<svg width="248" height="183" viewBox="0 0 248 183" xmlns="http://www.w3.org/2000/svg">
    <g fill="none" fill-rule="evenodd">
        <path d="M131.447 42.975c-4.3-2.488-11.338-2.488-15.64 0L3.212 108.125c-4.3 2.487-4.277 6.52.05 8.962l112.5 63.453c4.327 2.442 11.41 2.442 15.736 0l112.5-63.453c4.327-2.44 4.35-6.475.05-8.963l-112.6-65.15z" fill-opacity=".2" fill="#00A4BF"/>
        <path d="M100.1 41.21L76.006 55.15" fill="#FFF"/>
        <path d="M98.54 42.56c-.153 0-.305-.083-.386-.226-.063-.1-.08-.226-.045-.343.026-.117.107-.206.205-.27l1.564-.9c.206-.125.484-.044.61.163.054.108.072.225.045.342-.036.117-.108.216-.207.278l-1.563.9c-.063.037-.144.056-.225.056m-3.11 1.8c-.16 0-.313-.082-.394-.225-.117-.217-.045-.487.17-.614l1.555-.9c.208-.116.495-.043.612.164.045.072.063.153.063.234 0 .16-.09.306-.225.386l-1.554.9c-.072.037-.144.056-.225.056m-3.108 1.8c-.162 0-.314-.09-.395-.224-.063-.1-.072-.226-.045-.343.036-.118.108-.207.215-.27l1.555-.9c.207-.118.494-.045.61.162.037.072.064.153.064.234-.01.16-.09.305-.225.385l-1.553.893c-.072.044-.153.063-.225.063m-3.118 1.802c-.162 0-.305-.082-.386-.225-.126-.217-.054-.487.162-.614l1.554-.9c.207-.117.494-.044.62.163.036.072.054.153.054.234 0 .16-.09.306-.225.378l-1.554.9c-.073.045-.145.064-.226.064m-3.11 1.8c-.16 0-.313-.08-.394-.224-.117-.217-.045-.487.17-.614l1.555-.9c.207-.125.494-.044.61.163.037.062.064.134.064.215 0 .163-.082.316-.226.397l-1.554.9c-.072.044-.153.063-.225.063m-3.118 1.8c-.153 0-.305-.08-.386-.224-.125-.21-.053-.488.163-.615l1.554-.9c.207-.117.503-.044.62.163.036.062.054.134.054.215.01.163-.08.316-.224.397l-1.554.9c-.063.045-.144.064-.225.064m-3.11 1.8c-.16 0-.313-.08-.385-.224-.126-.217-.054-.487.162-.614l1.554-.9c.207-.125.494-.044.61.163.046.06.064.133.064.214.01.163-.08.316-.225.397l-1.554.91c-.072.036-.144.055-.225.055m-3.11 1.8c-.16 0-.313-.08-.394-.224-.126-.216-.054-.486.162-.613l1.563-.9c.206-.117.493-.044.61.163.036.062.054.134.063.215 0 .163-.09.316-.225.405l-1.563.9c-.063.037-.144.056-.216.056" fill="#33475C"/>
        <path stroke="#33475C" stroke-width="4.5" stroke-linecap="round" stroke-linejoin="round" d="M94.42 91.344l-51.526 29.814L98.22 153.17l51.53-29.813z"/>
        <path d="M43.792 121.158l54.43 31.494 50.63-29.295-54.43-31.493-50.63 29.294zm54.43 32.464c-.078 0-.156-.02-.225-.062L42.67 121.548c-.14-.08-.226-.23-.226-.39s.086-.31.225-.39l51.526-29.814c.14-.08.31-.08.45 0l55.328 32.014c.14.08.225.23.225.39s-.087.31-.226.39L98.446 153.56c-.07.04-.147.062-.224.062zM163.125 51.6l-51.528 29.81 55.328 32.013 51.528-29.814z" stroke="#33475C" stroke-width="4.5" stroke-linecap="round" stroke-linejoin="round"/>
        <path d="M112.496 81.413l54.43 31.493 50.628-29.295-54.43-31.49-50.628 29.293zm54.43 32.463c-.08 0-.156-.02-.225-.06l-55.328-32.013c-.14-.08-.224-.23-.224-.39s.085-.31.224-.39L162.9 51.21c.14-.082.31-.082.45 0l55.327 32.012c.14.08.225.23.225.39s-.085.31-.225.39l-51.527 29.813c-.07.04-.147.06-.225.06z" stroke="#33475C" stroke-width="4.5" stroke-linecap="round" stroke-linejoin="round"/>
        <path stroke="#33475C" stroke-width="4.5" stroke-linecap="round" stroke-linejoin="round" d="M166.925 113.425l-55.328-32.012v2.7l55.328 32.014 51.527-29.814v-2.7z"/>
        <path d="M112.046 83.854l54.88 31.753 51.078-29.555v-1.66l-50.854 29.423c-.14.08-.31.08-.45 0l-54.654-31.622v1.66zm54.88 32.723c-.08 0-.156-.02-.225-.06l-55.328-32.013c-.14-.08-.224-.23-.224-.39v-2.7c0-.162.085-.31.224-.39.14-.08.31-.08.45 0l55.103 31.882 51.303-29.684c.14-.08.31-.08.45 0s.224.23.224.39v2.7c0 .162-.085.31-.225.39l-51.527 29.814c-.07.04-.147.06-.225.06zM98.222 153.17l-55.33-32.012v2.702l55.33 32.012 51.527-29.813v-2.703z" stroke="#33475C" stroke-width="4.5" stroke-linecap="round" stroke-linejoin="round"/>
        <path d="M43.343 123.6l54.88 31.753 51.077-29.555v-1.66L98.446 153.56c-.14.08-.31.08-.45 0l-54.653-31.622v1.66zm54.88 32.723c-.08 0-.157-.02-.226-.06L42.67 124.248c-.14-.08-.226-.23-.226-.39v-2.702c0-.16.086-.31.225-.39.137-.08.31-.08.448 0l55.104 31.884 51.303-29.684c.138-.08.31-.08.45 0 .138.08.224.23.224.39v2.7c0 .16-.087.31-.226.39L98.444 156.26c-.07.04-.147.06-.224.06z" stroke="#33475C" stroke-width="4.5" stroke-linecap="round" stroke-linejoin="round"/>
        <path stroke="#33475C" stroke-width="4.5" stroke-linecap="round" stroke-linejoin="round" d="M96.756 92.695l-49.193 28.463 50.658 29.31 49.194-28.462z"/>
        <path d="M48.46 121.158l49.76 28.792 48.296-27.944-49.76-28.792-48.295 27.944zm49.76 29.762c-.076 0-.153-.02-.223-.06l-50.66-29.312c-.138-.08-.224-.23-.224-.39s.086-.31.225-.39L96.53 92.305c.14-.08.312-.08.45 0l50.66 29.312c.138.08.223.23.223.39s-.085.31-.224.39l-49.194 28.462c-.07.04-.147.06-.225.06zm64.93-96.708l-.025.088-49.194 28.463 50.75 29.363 49.28-28.515z" stroke="#33475C" stroke-width="4.5" stroke-linecap="round" stroke-linejoin="round"/>
        <path d="M114.83 82.764l49.85 28.842 48.38-27.996-49.85-28.84-48.382 27.994zm49.85 29.81c-.08 0-.156-.018-.225-.06l-50.748-29.36c-.14-.08-.225-.23-.225-.39 0-.162.086-.31.225-.39l49.048-28.38c.05-.09.127-.158.222-.198.13-.054.275-.044.396.026l50.812 29.4c.14.08.224.23.224.39s-.086.31-.225.39l-49.28 28.513c-.07.04-.15.06-.226.06zm-117.117 8.584v-9.63L98.22 140.96v9.51z" stroke="#33475C" stroke-width="4.5" stroke-linecap="round" stroke-linejoin="round"/>
        <path d="M48.012 120.898l49.76 28.792v-8.47l-49.76-28.91v8.588zm50.21 30.022c-.078 0-.155-.02-.225-.06l-50.66-29.312c-.138-.08-.224-.23-.224-.39v-9.63c0-.16.087-.31.225-.39.14-.08.31-.082.45 0l50.66 29.433c.138.082.222.23.222.39v9.51c0 .16-.085.31-.224.39-.07.04-.147.06-.225.06zm112.071-74.137l-43.92-26.715s-48.48 1.126-57.916 35.12l49.27 34.67s1.198-27.165 52.566-43.075z" stroke="#33475C" stroke-width="4.5" stroke-linecap="round" stroke-linejoin="round"/>
        <path d="M108.976 85.003l48.395 34.053c.703-4.567 6.486-28.06 51.84-42.405l-42.956-26.127c-2.774.105-48.08 2.346-57.278 34.48zm48.752 35.304c-.09 0-.182-.027-.258-.082l-49.27-34.67c-.157-.11-.227-.304-.176-.488 9.416-33.923 57.85-35.437 58.338-35.45.084-.003.17.023.244.066l43.92 26.715c.152.093.234.265.213.44-.023.177-.146.324-.315.376-50.48 15.634-52.236 42.395-52.25 42.664-.006.163-.1.31-.25.383-.06.032-.13.047-.197.047z" stroke="#33475C" stroke-width="4.5" stroke-linecap="round" stroke-linejoin="round"/>
        <path d="M157.728 119.857s-14.435-25.07 52.565-43.073l3.667 6.827-49.323 28.443-1.172 2.072-5.737 5.732z" stroke="#33475C" stroke-width="4.5" stroke-linecap="round" stroke-linejoin="round"/>
        <path d="M210.066 77.31c-36.598 9.89-48.404 21.862-51.857 30.176-2.374 5.712-.977 10.114-.35 11.603l5.244-5.24 1.14-2.02c.04-.07.1-.128.17-.168l48.944-28.223-3.292-6.13zm-52.34 42.997c-.018 0-.038 0-.057-.003-.14-.018-.262-.1-.332-.222-.125-.22-3.055-5.453.027-12.908 6.393-15.466 32.247-25.3 52.812-30.825.2-.052.413.036.512.22l3.666 6.828c.115.214.038.482-.172.604l-49.217 28.38-1.112 1.964c-.02.036-.044.07-.073.097l-5.737 5.734c-.085.084-.2.13-.318.13zm-5.4-7.45l-42.514-28.255s-15.7-11.334-62.25 26.926l50.66 29.433s41.427-35.522 54.104-28.103z" stroke="#33475C" stroke-width="4.5" stroke-linecap="round" stroke-linejoin="round"/>
        <path d="M48.35 111.464l49.823 28.948c1.635-1.385 11.273-9.452 22.098-16.66 13.357-8.896 23.13-13.014 29.15-12.285l-39.857-26.49c-.168-.12-15.98-10.52-61.214 26.487zm49.87 29.946c-.078 0-.156-.02-.226-.06l-50.658-29.433c-.128-.074-.212-.206-.223-.354-.012-.146.05-.29.163-.383 46.283-38.043 62.144-27.414 62.796-26.942l42.5 28.244c.202.134.262.407.133.614-.128.206-.398.272-.608.15-12.264-7.172-53.175 27.702-53.586 28.056-.084.07-.187.108-.292.108z" stroke="#33475C" stroke-width="4.5" stroke-linecap="round" stroke-linejoin="round"/>
        <path d="M112.21 86.197l-25.37 8.467s-8.83 3.424-17.13 10.285l44.387 25.788c13.054-9.453 30.928-22.154 38.23-17.88l-40.117-26.66z" stroke="#33475C" stroke-width="4.5" stroke-linecap="round" stroke-linejoin="round"/>
        <path d="M132.207 99.792l21.752 14.494c-4.21-7.365-8.74-12.05-13.798-13.644-2.65-.835-5.332-1.056-7.955-.85z" stroke="#33475C" stroke-width="4.5" stroke-linecap="round" stroke-linejoin="round"/>
        <path d="M133.593 100.175l18.975 12.644c-3.99-6.502-8.104-10.353-12.54-11.75-2.028-.637-4.194-.934-6.435-.895zm20.367 14.562c-.087 0-.174-.025-.25-.076l-21.75-14.493c-.16-.107-.236-.302-.187-.49.047-.184.208-.318.4-.333 2.85-.228 5.58.067 8.123.868 5.035 1.585 9.63 6.115 14.054 13.85.103.182.068.41-.084.553-.085.08-.196.122-.306.122z" stroke="#33475C" stroke-width="4.5" stroke-linecap="round" stroke-linejoin="round"/>
        <path d="M140.162 100.642L94.98 73.667C78.36 63.22 57.54 82.13 57.54 82.13l50.917 29.398s11.2-10.75 23.75-11.736c2.623-.206 5.304.015 7.955.85z" stroke="#33475C" stroke-width="4.5" stroke-linecap="round" stroke-linejoin="round"/>
        <path d="M58.312 82.057l50.083 28.914c1.733-1.575 12.24-10.723 23.777-11.627 1.808-.144 3.57-.075 5.265.196L94.75 74.053c-14.792-9.296-33.27 5.328-36.438 8.003zm50.145 29.92c-.077 0-.154-.02-.224-.06L57.315 82.523c-.124-.072-.207-.2-.222-.342-.016-.143.038-.286.144-.382.21-.193 21.265-19.02 37.98-8.512l45.175 26.97c.196.116.273.36.18.57-.093.208-.327.313-.545.244-2.43-.765-5.052-1.044-7.785-.83-12.25.962-23.363 11.507-23.475 11.613-.085.082-.197.125-.31.125zm38.958 10.029l10.312-2.148s-8.1-21.614-34.743-1.35c-22.052 16.77-24.762 22.452-24.762 22.452v9.51l49.193-28.464z" stroke="#33475C" stroke-width="4.5" stroke-linecap="round" stroke-linejoin="round"/>
        <path d="M98.67 141.075v8.614l48.52-28.073c.04-.025.086-.04.134-.05l9.772-2.038c-.762-1.635-3.638-6.914-9.695-8.662-6.557-1.892-14.68.8-24.145 7.997-20.223 15.38-24.146 21.456-24.584 22.21zm-.448 9.845c-.078 0-.156-.02-.225-.06-.14-.08-.225-.23-.225-.39v-9.51c0-.067.016-.133.044-.195.113-.235 3.01-5.97 24.896-22.617 9.708-7.384 18.1-10.125 24.95-8.142 7.6 2.2 10.372 9.388 10.487 9.693.044.122.035.26-.028.375-.064.115-.175.196-.303.223l-10.243 2.135-49.13 28.426c-.07.04-.148.06-.225.06z" stroke="#33475C" stroke-width="4.5" stroke-linecap="round" stroke-linejoin="round"/>
        <path d="M164.637 112.053s-3.536 8.613-17.223 9.954l2.336 1.35s9.487 4.01 17.175-9.932l-2.288-1.372z" stroke="#33475C" stroke-width="4.5" stroke-linecap="round" stroke-linejoin="round"/>
        <path d="M148.812 122.295l1.162.673c.32.13 9.003 3.568 16.345-9.38l-1.49-.895c-.93 1.794-4.935 8.07-16.018 9.602zm4.133 2.02c-2.026 0-3.335-.528-3.37-.542l-2.385-1.377c-.17-.098-.256-.294-.215-.485.042-.19.202-.333.396-.352 13.264-1.3 16.817-9.594 16.85-9.677.05-.12.15-.214.275-.255.125-.04.26-.025.372.04l2.29 1.375c.206.123.278.39.162.604-4.978 9.024-10.795 10.67-14.375 10.67z" stroke="#33475C" stroke-width="4.5" stroke-linecap="round" stroke-linejoin="round"/>
        <path d="M149.75 126.118s12.245-.333 17.175-9.932v-2.76c-7.85 10.71-17.176 9.93-17.176 9.93v2.762z" stroke="#33475C" stroke-width="4.5" stroke-linecap="round" stroke-linejoin="round"/>
        <path d="M150.198 123.823v1.815c2.24-.183 12.037-1.444 16.278-9.563v-1.32c-6.733 8.45-14.19 9.068-16.234 9.068h-.044zm-.45 2.745c-.116 0-.228-.046-.312-.128-.087-.084-.136-.2-.136-.322v-2.76c0-.126.053-.246.145-.332.092-.084.22-.125.34-.118.095.01 9.186.61 16.778-9.75.115-.156.317-.22.502-.16s.31.233.31.427v2.76c0 .072-.018.143-.05.206-4.993 9.726-17.438 10.174-17.563 10.178h-.013zM148.568 4.57c0-1.486-1.05-2.094-2.334-1.35l-42.766 24.743c-1.284.743-2.334 2.566-2.334 4.052V46.49c0 1.484 1.05 2.092 2.334 1.35l42.766-24.745c1.284-.743 2.334-2.567 2.334-4.053V4.57z" stroke="#33475C" stroke-width="4.5" stroke-linecap="round" stroke-linejoin="round"/>
        <path d="M148.568 4.57c0-1.486-1.05-2.094-2.334-1.35l-42.766 24.743c-1.284.743-2.334 2.566-2.334 4.052V46.49c0 1.484 1.05 2.092 2.334 1.35l42.766-24.745c1.284-.743 2.334-2.567 2.334-4.053V4.57z" stroke="#33475C" stroke-width="4.5" stroke-linecap="round" stroke-linejoin="round"/>
        <path d="M147.272 3.353c-.24 0-.522.087-.814.255l-42.765 24.745c-1.144.66-2.11 2.338-2.11 3.662v14.472c0 .544.168.952.46 1.122.296.17.73.11 1.2-.16l42.766-24.745c1.143-.662 2.11-2.338 2.11-3.662V4.57c0-.544-.17-.952-.462-1.122-.11-.064-.24-.095-.386-.095zM102.43 48.608c-.3 0-.582-.073-.835-.22-.587-.338-.91-1.014-.91-1.9V32.014c0-1.633 1.148-3.626 2.558-4.442L146.01 2.83c.765-.444 1.51-.5 2.097-.162.587.34.91 1.015.91 1.902v14.473c0 1.633-1.148 3.625-2.56 4.44L103.694 48.23c-.436.252-.866.38-1.263.38z" stroke="#33475C" stroke-width="4.5" stroke-linecap="round" stroke-linejoin="round"/>
        <path d="M142.94 11.034c0-1.23-1.05-1.63-2.336-.887l-21.542 12.465c-1.283.743-2.335 2.357-2.335 3.588 0 1.23 1.052 1.63 2.335.886l21.542-12.463c1.285-.743 2.335-2.358 2.335-3.59z" stroke="#33475C" stroke-width="4.5" stroke-linecap="round" stroke-linejoin="round"/>
        <path d="M141.804 10.223c-.276 0-.617.108-.975.315L119.286 23c-1.144.663-2.11 2.128-2.11 3.2 0 .248.054.574.312.723.3.172.803.09 1.347-.226l21.543-12.465c1.144-.66 2.11-2.126 2.11-3.198 0-.247-.054-.573-.312-.722-.103-.06-.23-.09-.374-.09zM117.86 27.91c-.302 0-.58-.068-.82-.207-.49-.284-.762-.818-.762-1.503 0-1.4 1.124-3.148 2.56-3.977L140.38 9.758c.838-.486 1.656-.567 2.247-.227.49.286.76.82.76 1.504 0 1.4-1.123 3.148-2.558 3.977l-21.543 12.466c-.497.288-.988.435-1.427.435zm17.39-4.6c0-1.23-1.05-1.63-2.335-.886l-13.853 8.015c-1.284.742-2.334 2.357-2.334 3.588 0 1.23 1.05 1.63 2.334.886l13.853-8.015c1.284-.744 2.334-2.358 2.334-3.59z" stroke="#33475C" stroke-width="4.5" stroke-linecap="round" stroke-linejoin="round"/>
        <path d="M134.114 22.5c-.277 0-.617.107-.975.314l-13.853 8.014c-1.144.662-2.11 2.127-2.11 3.2 0 .246.054.573.312.722.3.176.803.09 1.348-.225l13.852-8.016c1.144-.662 2.11-2.127 2.11-3.2 0-.247-.054-.573-.312-.722-.103-.06-.23-.088-.374-.088zM117.86 35.737c-.303 0-.58-.068-.82-.207-.49-.285-.76-.818-.76-1.503 0-1.4 1.123-3.147 2.558-3.977l13.852-8.016c.838-.487 1.656-.566 2.247-.227.49.285.76.82.76 1.503 0 1.4-1.123 3.148-2.558 3.978l-13.853 8.016c-.498.287-.987.433-1.428.433zm-3.45-3.805c0-3.21-2.268-4.52-5.04-2.917-2.773 1.605-5.04 5.542-5.04 8.75s2.267 4.52 5.04 2.916c2.772-1.603 5.04-5.54 5.04-8.748z" stroke="#33475C" stroke-width="4.5" stroke-linecap="round" stroke-linejoin="round"/>
        <path d="M111.606 28.78c-.608 0-1.294.21-2.012.624-2.656 1.538-4.816 5.287-4.816 8.362 0 1.384.446 2.403 1.256 2.872.81.467 1.915.344 3.11-.347 2.656-1.536 4.817-5.285 4.817-8.358 0-1.384-.445-2.404-1.256-2.873-.323-.188-.693-.28-1.098-.28zm-4.477 13.04c-.56 0-1.082-.135-1.545-.403-1.1-.636-1.705-1.932-1.705-3.65 0-3.362 2.36-7.462 5.264-9.142 1.486-.86 2.91-.983 4.01-.346 1.1.635 1.705 1.933 1.705 3.652 0 3.36-2.363 7.46-5.266 9.138-.86.498-1.698.75-2.465.75z" stroke="#33475C" stroke-width="4.5" stroke-linecap="round" stroke-linejoin="round"/>
        <path d="M107.876 35.2c0-.438-.31-.616-.687-.398-.38.218-.69.755-.69 1.193 0 .437.31.617.69.398.377-.22.686-.756.686-1.193zm4.084-2.35c0-.438-.31-.617-.687-.4-.377.22-.687.757-.687 1.194 0 .438.31.617.687.398.378-.218.688-.755.688-1.193zm-4 6.223c-.4 0-.765-.127-1.063-.38-.188-.16-.21-.445-.05-.635.16-.19.444-.212.633-.05.29.247.748.22 1.26-.078.61-.353 1.19-1.02 1.596-1.835.11-.22.38-.312.602-.2.222.11.313.38.2.603-.48.967-1.192 1.773-1.95 2.212-.42.242-.84.363-1.228.363zm47.135 6.282c1.8-1.046.813-2.477.277-3.07-.073-.073-.14-.146-.21-.218l-.067-.062h.006c-3.796-3.893-5.417-7.793-6.102-10.316-.507-1.828-1.696-1.518-2.27-1.243l-.32.185-43.017 24.814s-1.965 1.383-1.458 3.402c.906 2.77 2.84 6.692 6.982 10.48.77.607 2.424 1.478 4.642.188l41.54-24.16z" stroke="#33475C" stroke-width="4.5" stroke-linecap="round" stroke-linejoin="round"/>
        <path d="M155.095 45.355h.01-.01zm-7.54-14.668c-.227 0-.456.082-.63.167l-.292.17-43.018 24.813c-.035.027-1.67 1.214-1.247 2.9.845 2.583 2.727 6.488 6.85 10.26.672.528 2.138 1.28 4.112.13l41.54-24.162c.475-.276.744-.592.798-.937.09-.574-.41-1.2-.63-1.44l-.197-.204c-.02-.02-.04-.042-.06-.065-3.852-3.948-5.506-7.896-6.215-10.513-.108-.386-.314-.885-.686-1.053-.104-.048-.214-.067-.324-.067zM111.292 70.64c-1.196 0-2.11-.528-2.654-.956-4.29-3.926-6.243-7.982-7.13-10.696-.586-2.323 1.537-3.847 1.627-3.91l43.372-25.02c.462-.225 1.112-.412 1.746-.125.552.25.95.8 1.18 1.636.684 2.515 2.277 6.312 5.993 10.12.01.01.02.02.028.032.01.01.02.018.02.02l.218.222c.396.438 1.01 1.28.868 2.203-.097.626-.513 1.158-1.236 1.578l-41.54 24.16c-.92.537-1.758.734-2.49.734z" stroke="#33475C" stroke-width="4.5" stroke-linecap="round" stroke-linejoin="round"/>
        <path d="M116.934 57.357c1.516 2.4 1.775 5.262-.228 6.98-2.002 1.718-6.012 1.246-7.937-1.8-1.925-3.044-.636-6.878 1.77-7.958 2.405-1.08 4.876.376 6.394 2.777z" stroke="#33475C" stroke-width="4.5" stroke-linecap="round" stroke-linejoin="round"/>
        <path d="M112.195 54.665c-.478 0-.972.1-1.472.324-.997.447-1.82 1.473-2.202 2.743-.46 1.538-.232 3.202.63 4.565.86 1.36 2.262 2.28 3.848 2.52 1.31.19 2.587-.113 3.416-.824 2.002-1.716 1.327-4.518.14-6.397-.94-1.487-2.54-2.932-4.36-2.932zm1.598 11.112c-.304 0-.615-.023-.93-.07-1.842-.277-3.473-1.344-4.473-2.927s-1.267-3.518-.728-5.306c.462-1.54 1.444-2.746 2.693-3.306 2.41-1.085 5.143.074 6.958 2.947 1.816 2.874 1.693 5.843-.315 7.564-.834.715-1.97 1.097-3.205 1.097zm5.815-12.01c-.62 0-1.225-.323-1.558-.9-.496-.863-.2-1.964.658-2.46L140.25 37.94c.86-.495 1.96-.2 2.455.66.496.862.202 1.964-.658 2.462l-21.542 12.463c-.283.164-.592.242-.897.242z" stroke="#33475C" stroke-width="4.5" stroke-linecap="round" stroke-linejoin="round"/>
        <path d="M141.146 38.15c-.228 0-.46.06-.672.18l-21.542 12.465c-.642.373-.864 1.2-.493 1.846.357.622 1.218.857 1.84.495l21.542-12.463c.643-.373.865-1.202.493-1.846-.25-.433-.702-.675-1.17-.675zm-21.538 16.067c-.8 0-1.547-.432-1.947-1.126-.618-1.074-.25-2.453.823-3.074l21.542-12.465c1.075-.62 2.45-.248 3.068.825.62 1.075.25 2.455-.822 3.076l-21.54 12.465c-.34.198-.73.302-1.122.302zm3.145 5.597c-.62 0-1.225-.322-1.558-.9-.496-.862-.2-1.963.658-2.46l13.853-8.016c.86-.496 1.96-.202 2.454.66.497.862.202 1.962-.657 2.46l-13.853 8.015c-.283.164-.592.24-.897.24z" stroke="#33475C" stroke-width="4.5" stroke-linecap="round" stroke-linejoin="round"/>
        <path d="M136.602 48.648c-.23 0-.46.058-.672.18l-13.852 8.015c-.644.373-.865 1.2-.494 1.845.357.62 1.22.857 1.84.494l13.853-8.013c.644-.374.866-1.202.494-1.847-.248-.432-.702-.675-1.168-.675zm-13.85 11.616c-.8 0-1.546-.43-1.946-1.126-.62-1.074-.25-2.453.822-3.075l13.852-8.014c1.076-.623 2.452-.252 3.07.823.618 1.074.25 2.454-.823 3.075l-13.852 8.014c-.34.198-.73.302-1.122.302zm-9.218 3.109c-.378 0-.767-.065-1.144-.2-.234-.084-.355-.342-.272-.575.083-.235.338-.362.574-.273.744.265 1.53.175 2.004-.23.348-.3.534-.702.55-1.198.01-.247.222-.42.466-.434.248.01.442.217.433.466-.026.746-.325 1.385-.865 1.85-.455.39-1.08.593-1.746.593zm-2.476-3.308c.18.283.208.62-.027.82-.234.203-.706.148-.933-.21-.226-.36-.074-.81.21-.937.282-.127.572.044.75.327zm3.897-2.295c.18.283.208.62-.027.822-.236.202-.707.147-.934-.212-.226-.358-.074-.81.21-.936.282-.127.572.044.75.327zm68.095 9.1c-1.304-.71-3.42-.68-4.705.063l-37.202 21.525c-1.284.743-1.267 1.93.036 2.637l10.906 5.92c1.304.705 3.42.677 4.705-.066l37.203-21.526c1.284-.743 1.267-1.93-.036-2.637L183.05 66.87zM161 55.448c-1.305-.708-3.422-.678-4.706.065l-37.2 21.524c-1.285.743-1.27 1.93.035 2.637l10.905 5.92c1.304.706 3.42.677 4.705-.066l37.202-21.525c1.284-.742 1.268-1.93-.036-2.637L161 55.448z" stroke="#33475C" stroke-width="4.5" stroke-linecap="round" stroke-linejoin="round"/>
        <path d="M164.158 47.436c-1.303-.708-3.42-.678-4.704.064l-42.766 24.744c-1.284.743-1.268 1.93.036 2.637l12.986 7.047c1.304.708 3.42.68 4.705-.064L177.18 57.12c1.284-.743 1.268-1.93-.036-2.638l-12.986-7.046z" stroke="#33475C" stroke-width="4.5" stroke-linecap="round" stroke-linejoin="round"/>
        <path d="M164.158 47.436c-1.303-.708-3.42-.678-4.704.064l-42.766 24.744c-1.284.743-1.268 1.93.036 2.637l12.986 7.047c1.304.708 3.42.68 4.705-.064L177.18 57.12c1.284-.743 1.268-1.93-.036-2.638l-12.986-7.046z" stroke="#33475C" stroke-width="4.5" stroke-linecap="round" stroke-linejoin="round"/>
        <path d="M161.88 47.374c-.802 0-1.61.172-2.202.515l-42.765 24.744c-.467.27-.733.61-.727.936.003.324.278.658.752.915l12.986 7.048c1.165.63 3.118.604 4.267-.06l42.765-24.744c.468-.27.733-.612.728-.936-.003-.325-.278-.658-.752-.916l-12.986-7.046c-.563-.307-1.31-.458-2.063-.458zm-29.894 35.51c-.902 0-1.798-.184-2.49-.56l-12.986-7.047c-.78-.422-1.215-1.025-1.223-1.695-.01-.67.41-1.283 1.176-1.727L159.23 47.11c1.407-.815 3.714-.845 5.142-.07l12.987 7.046c.78.424 1.213 1.025 1.222 1.695.01.67-.41 1.285-1.177 1.73L134.64 82.25c-.726.42-1.693.633-2.654.633z" stroke="#33475C" stroke-width="4.5" stroke-linecap="round" stroke-linejoin="round"/>
        <path d="M161.43 52.266c-1.098-.595-3.047-.474-4.33.268l-21.543 12.464c-1.284.743-1.437 1.838-.34 2.434 1.098.596 3.046.475 4.33-.268L161.09 54.7c1.284-.744 1.436-1.84.34-2.434z" stroke="#33475C" stroke-width="4.5" stroke-linecap="round" stroke-linejoin="round"/>
        <path d="M159.677 52.338c-.81 0-1.687.2-2.353.586L135.78 65.388c-.534.31-.85.693-.846 1.025.004.295.273.5.497.623.964.522 2.746.402 3.893-.262l21.542-12.464c.535-.31.853-.693.848-1.024-.004-.295-.273-.502-.5-.624-.402-.22-.95-.324-1.536-.324zm-22.695 15.927c-.737 0-1.437-.144-1.978-.437-.617-.334-.96-.833-.97-1.402-.008-.674.465-1.336 1.298-1.817l21.542-12.465c1.43-.83 3.525-.95 4.77-.275.615.335.96.833.967 1.403.01.672-.462 1.335-1.296 1.816l-21.542 12.463c-.81.47-1.83.712-2.79.712zm23.738-7.761c-1.097-.596-3.046-.475-4.33.268l-13.852 8.014c-1.284.743-1.437 1.838-.34 2.434 1.098.596 3.046.475 4.33-.268l13.853-8.015c1.285-.743 1.437-1.838.34-2.433z" stroke="#33475C" stroke-width="4.5" stroke-linecap="round" stroke-linejoin="round"/>
        <path d="M158.968 60.575c-.81 0-1.688.2-2.354.586l-13.852 8.016c-.534.31-.852.693-.847 1.024.004.296.273.502.498.624.96.523 2.744.403 3.89-.262l13.853-8.015c.535-.31.852-.692.848-1.024-.004-.294-.273-.502-.498-.624-.403-.22-.953-.325-1.538-.325zm-15.004 11.477c-.738 0-1.44-.144-1.98-.436-.615-.334-.96-.832-.968-1.402-.01-.673.464-1.335 1.297-1.817l13.852-8.015c1.43-.828 3.526-.948 4.77-.275.616.335.96.833.967 1.403.01.673-.463 1.335-1.296 1.818l-13.852 8.014c-.81.468-1.83.71-2.79.71zm-7.148-1.154c-2.86-1.552-7.47-1.51-10.243.094-2.772 1.603-2.7 4.186.162 5.738 2.86 1.554 7.47 1.512 10.243-.092 2.772-1.605 2.7-4.188-.162-5.74z" stroke="#33475C" stroke-width="4.5" stroke-linecap="round" stroke-linejoin="round"/>
        <path d="M131.778 70.2c-1.812 0-3.623.395-4.98 1.18-1.18.683-1.82 1.556-1.808 2.46.012.93.71 1.817 1.958 2.495 2.748 1.49 7.147 1.45 9.805-.087 1.178-.682 1.82-1.556 1.808-2.46-.01-.93-.708-1.815-1.958-2.494-1.345-.73-3.085-1.093-4.824-1.093zm-.008 8.116c-1.892 0-3.786-.395-5.25-1.19-1.548-.84-2.41-2.002-2.43-3.273-.015-1.245.786-2.4 2.26-3.252 2.898-1.677 7.69-1.722 10.68-.098 1.55.84 2.412 2.004 2.43 3.274.016 1.245-.785 2.4-2.257 3.25-1.48.86-3.457 1.29-5.433 1.29z" stroke="#33475C" stroke-width="4.5" stroke-linecap="round" stroke-linejoin="round"/>
        <path d="M131.664 76.408c-.163 0-.326-.005-.49-.015-.248-.015-.437-.228-.422-.476.014-.248.232-.45.475-.423 1.222.074 2.39-.156 3.206-.628.706-.408 1.036-.94.906-1.46-.06-.242.086-.485.327-.546.238-.06.484.086.545.328.23.925-.268 1.843-1.33 2.457-.85.492-2.002.763-3.218.763zm-2.299-2.306c-.363-.197-.95-.192-1.3.012-.352.203-.343.532.02.728.364.197.95.192 1.3-.01.353-.205.343-.533-.02-.73zm4.227-2.452c-.363-.197-.95-.19-1.3.012-.353.204-.344.533.02.73.363.196.948.19 1.3-.013.353-.204.343-.532-.02-.73zm53.03-13.12c-1.304-.71-3.42-.68-4.705.064l-42.765 24.744c-1.284.743-1.268 1.93.036 2.636l12.986 7.047c1.303.708 3.42.68 4.704-.063l42.766-24.744c1.284-.743 1.268-1.93-.036-2.638l-12.986-7.046z" stroke="#33475C" stroke-width="4.5" stroke-linecap="round" stroke-linejoin="round"/>
        <path d="M186.622 58.53c-1.304-.71-3.42-.68-4.705.064l-42.765 24.744c-1.284.743-1.268 1.93.036 2.636l12.986 7.047c1.303.708 3.42.68 4.704-.063l42.766-24.744c1.284-.743 1.268-1.93-.036-2.638l-12.986-7.046z" stroke="#33475C" stroke-width="4.5" stroke-linecap="round" stroke-linejoin="round"/>
        <path d="M184.345 58.468c-.803 0-1.61.172-2.203.515l-42.766 24.745c-.466.27-.732.61-.727.935.003.324.278.658.75.915l12.988 7.047c1.165.633 3.118.606 4.267-.058l42.764-24.744c.466-.27.732-.612.727-.936-.004-.325-.278-.658-.752-.915l-12.987-7.047c-.563-.306-1.312-.457-2.063-.457zm-29.895 35.51c-.9 0-1.8-.186-2.49-.56l-12.986-7.048c-.78-.423-1.214-1.024-1.223-1.694-.01-.67.41-1.283 1.177-1.727l42.766-24.746c1.408-.814 3.715-.846 5.143-.07l12.987 7.046c.78.423 1.214 1.025 1.223 1.694.01.67-.41 1.284-1.177 1.728l-42.766 24.744c-.726.42-1.692.633-2.654.633z" stroke="#33475C" stroke-width="4.5" stroke-linecap="round" stroke-linejoin="round"/>
        <path d="M183.893 63.36c-1.097-.596-3.046-.475-4.33.268L158.02 76.092c-1.283.742-1.436 1.837-.34 2.434 1.1.595 3.047.474 4.33-.27l21.544-12.463c1.284-.743 1.436-1.838.34-2.434z" stroke="#33475C" stroke-width="4.5" stroke-linecap="round" stroke-linejoin="round"/>
        <path d="M182.14 63.43c-.81 0-1.687.202-2.352.586L158.245 76.48c-.535.312-.852.694-.847 1.026.004.294.273.5.497.623.963.52 2.744.402 3.892-.262l21.542-12.465c.534-.31.85-.692.847-1.024-.004-.295-.273-.502-.5-.625-.402-.22-.95-.325-1.537-.325zm-22.693 15.927c-.738 0-1.438-.143-1.98-.437-.616-.334-.96-.832-.968-1.402-.01-.672.463-1.334 1.296-1.816l21.542-12.465c1.432-.83 3.527-.95 4.77-.273.615.335.96.833.967 1.403.01.67-.464 1.333-1.297 1.816l-21.542 12.464c-.808.47-1.83.71-2.79.71zm23.737-7.76c-1.097-.595-3.046-.475-4.33.268L165 79.88c-1.283.743-1.435 1.838-.337 2.434 1.097.595 3.045.474 4.33-.27l13.852-8.014c1.284-.743 1.436-1.838.34-2.433z" stroke="#33475C" stroke-width="4.5" stroke-linecap="round" stroke-linejoin="round"/>
        <path d="M181.43 71.668c-.808 0-1.687.202-2.35.586l-13.854 8.016c-.535.31-.85.692-.848 1.024.005.295.273.5.498.624.962.52 2.744.4 3.892-.262l13.852-8.016c.535-.31.852-.692.848-1.024-.005-.294-.273-.5-.498-.624-.404-.218-.953-.324-1.54-.324zm-15.003 11.477c-.738 0-1.438-.142-1.98-.436-.615-.335-.96-.833-.967-1.403-.01-.672.463-1.334 1.297-1.816l13.852-8.015c1.43-.828 3.525-.95 4.767-.274.617.336.96.834.97 1.404.008.672-.465 1.334-1.298 1.816l-13.853 8.015c-.81.47-1.83.71-2.79.71zm-7.147-1.155c-2.86-1.55-7.47-1.51-10.243.095-2.773 1.604-2.7 4.186.162 5.74 2.86 1.552 7.47 1.51 10.242-.094 2.772-1.604 2.7-4.186-.162-5.74z" stroke="#33475C" stroke-width="4.5" stroke-linecap="round" stroke-linejoin="round"/>
        <path d="M154.242 81.294c-1.812 0-3.623.395-4.98 1.18-1.18.682-1.82 1.556-1.81 2.46.014.93.71 1.816 1.96 2.494 2.747 1.49 7.145 1.45 9.805-.087 1.178-.682 1.82-1.555 1.808-2.46-.013-.93-.71-1.814-1.96-2.493-1.344-.73-3.084-1.093-4.823-1.093zm-.01 8.115c-1.89 0-3.785-.397-5.248-1.19-1.55-.84-2.41-2.003-2.43-3.273-.015-1.246.786-2.4 2.26-3.252 2.898-1.68 7.69-1.724 10.68-.1 1.55.84 2.412 2.003 2.43 3.274.016 1.244-.786 2.4-2.258 3.25-1.48.857-3.457 1.29-5.434 1.29z" stroke="#33475C" stroke-width="4.5" stroke-linecap="round" stroke-linejoin="round"/>
        <path d="M154.128 87.502c-.163 0-.326-.006-.49-.016-.248-.014-.437-.227-.422-.475.014-.248.226-.448.475-.422 1.222.074 2.39-.157 3.207-.63.706-.407 1.035-.94.906-1.46-.06-.24.087-.484.328-.544.24-.06.485.085.545.328.23.924-.267 1.843-1.33 2.456-.85.493-2 .764-3.217.764zm-2.298-2.307c-.364-.197-.95-.19-1.3.012-.354.204-.345.532.018.73.364.196.95.19 1.302-.013.352-.204.342-.53-.02-.73zm4.226-2.451c-.363-.197-.95-.192-1.3.012-.353.203-.344.532.02.728.363.197.948.192 1.3-.01.353-.205.343-.533-.02-.73zM90.913 47.978c0-.99-.7-2.207-1.557-2.702L75.293 37.14c-.856-.496-1.556-.09-1.556.9v35.184c0 .99.7 2.206 1.556 2.7l14.063 8.138c.857.496 1.557.09 1.557-.9V47.978z" stroke="#33475C" stroke-width="4.5" stroke-linecap="round" stroke-linejoin="round"/>
        <path d="M90.913 47.978c0-.99-.7-2.207-1.557-2.702L75.293 37.14c-.856-.496-1.556-.09-1.556.9v35.184c0 .99.7 2.206 1.556 2.7l14.063 8.138c.857.496 1.557.09 1.557-.9V47.978z" stroke="#33475C" stroke-width="4.5" stroke-linecap="round" stroke-linejoin="round"/>
        <path d="M74.603 37.377c-.07 0-.133.016-.184.045-.15.086-.234.31-.234.617v35.184c0 .835.61 1.894 1.332 2.312l14.063 8.137c.266.152.502.192.65.106.15-.086.233-.31.233-.618V47.977c0-.835-.61-1.894-1.33-2.312L75.067 37.53c-.172-.1-.333-.153-.465-.153zM90.05 84.723c-.293 0-.607-.09-.918-.27l-14.064-8.138c-.998-.577-1.78-1.935-1.78-3.09V38.038c0-.638.248-1.147.682-1.398.432-.25.997-.213 1.548.108l14.063 8.137c1 .577 1.782 1.935 1.782 3.09V83.16c0 .637-.248 1.147-.68 1.397-.19.11-.405.163-.632.163z" stroke="#33475C" stroke-width="4.5" stroke-linecap="round" stroke-linejoin="round"/>
        <path d="M73.737 51.423c0-.99-.7-2.206-1.556-2.702l-14.063-8.135c-.856-.496-1.556-.09-1.556.9v21.677c0 .99.7 2.206 1.557 2.7L72.18 74c.857.495 1.557.09 1.557-.9V51.423z" stroke="#33475C" stroke-width="4.5" stroke-linecap="round" stroke-linejoin="round"/>
        <path d="M73.737 51.423c0-.99-.7-2.206-1.556-2.702l-14.063-8.135c-.856-.496-1.556-.09-1.556.9v21.677c0 .99.7 2.206 1.557 2.7L72.18 74c.857.495 1.557.09 1.557-.9V51.423z" stroke="#33475C" stroke-width="4.5" stroke-linecap="round" stroke-linejoin="round"/>
        <path d="M57.427 40.823c-.07 0-.133.015-.184.045-.148.085-.233.31-.233.617v21.677c0 .835.61 1.894 1.332 2.312l14.063 8.137c.265.153.502.192.65.107.148-.085.232-.31.232-.617V51.422c0-.834-.61-1.893-1.33-2.31L57.89 40.973c-.172-.1-.333-.15-.465-.15zM72.875 74.66c-.293 0-.608-.09-.92-.27l-14.063-8.137c-.998-.577-1.78-1.935-1.78-3.09V41.484c0-.638.248-1.147.682-1.397.432-.25.997-.214 1.548.107l14.063 8.137c1 .576 1.78 1.935 1.78 3.09V73.1c0 .638-.247 1.146-.68 1.397-.19.11-.404.164-.63.164zm8.468-29.47l-4.816-2.785v5.573l4.816 2.786z" stroke="#33475C" stroke-width="4.5" stroke-linecap="round" stroke-linejoin="round"/>
        <path d="M76.977 47.717l3.917 2.267v-4.532l-3.917-2.266v4.53zm4.366 3.497c-.078 0-.155-.02-.225-.06l-4.815-2.787c-.14-.08-.225-.228-.225-.39v-5.57c0-.162.086-.31.225-.39.14-.082.31-.082.45 0l4.815 2.785c.14.08.224.23.224.39v5.572c0 .16-.085.31-.224.39-.07.04-.148.06-.225.06zm6.779-2.359l-4.816-2.786v5.572l4.816 2.786z" stroke="#33475C" stroke-width="4.5" stroke-linecap="round" stroke-linejoin="round"/>
        <path d="M83.756 51.382l3.916 2.266v-4.533l-3.916-2.266v4.532zm4.365 3.496c-.076 0-.153-.02-.223-.06l-4.815-2.786c-.14-.08-.224-.23-.224-.39V46.07c0-.162.085-.31.224-.39.14-.08.31-.08.45 0l4.814 2.786c.14.08.225.228.225.39v5.572c0 .16-.085.31-.224.39-.07.04-.147.06-.225.06zm-6.778-1.77l-4.816-2.786v5.572l4.816 2.786z" stroke="#33475C" stroke-width="4.5" stroke-linecap="round" stroke-linejoin="round"/>
        <path d="M76.977 55.633l3.917 2.267v-4.532l-3.917-2.266v4.53zm4.366 3.497c-.078 0-.155-.02-.225-.06l-4.815-2.786c-.14-.08-.225-.23-.225-.39v-5.572c0-.16.086-.31.225-.39.14-.08.31-.08.45 0l4.815 2.787c.14.08.224.227.224.388v5.572c0 .16-.085.31-.224.39-.07.04-.148.06-.225.06zm6.779-2.358l-4.816-2.786v5.572l4.816 2.786z" stroke="#33475C" stroke-width="4.5" stroke-linecap="round" stroke-linejoin="round"/>
        <path d="M83.756 59.297l3.916 2.267V57.03l-3.916-2.264v4.53zm4.365 3.497c-.076 0-.153-.02-.223-.062l-4.815-2.785c-.14-.08-.224-.23-.224-.39v-5.57c0-.162.085-.31.224-.39.14-.082.31-.082.45 0l4.814 2.785c.14.08.225.23.225.39v5.57c0 .163-.085.31-.224.39-.07.04-.147.062-.225.062zm-6.778-1.77l-4.816-2.786v5.572l4.816 2.786z" stroke="#33475C" stroke-width="4.5" stroke-linecap="round" stroke-linejoin="round"/>
        <path d="M76.977 63.55l3.917 2.266v-4.532l-3.917-2.266v4.532zm4.366 3.496c-.078 0-.155-.02-.225-.06L76.303 64.2c-.14-.08-.225-.23-.225-.39v-5.57c0-.163.086-.31.225-.39.14-.082.31-.082.45 0l4.815 2.785c.14.08.224.23.224.39v5.57c0 .162-.085.31-.224.39-.07.04-.148.06-.225.06zm6.779-2.358l-4.816-2.786v5.572l4.816 2.786z" stroke="#33475C" stroke-width="4.5" stroke-linecap="round" stroke-linejoin="round"/>
        <path d="M83.756 67.213l3.916 2.267v-4.532l-3.916-2.266v4.53zm4.365 3.497c-.076 0-.153-.02-.223-.06l-4.815-2.787c-.14-.08-.224-.228-.224-.39v-5.57c0-.162.085-.31.224-.39.14-.082.31-.082.45 0l4.814 2.785c.14.08.225.23.225.39v5.572c0 .16-.085.31-.224.39-.07.04-.147.06-.225.06zM64.167 48.523l-4.815-2.786v5.572l4.815 2.785z" stroke="#33475C" stroke-width="4.5" stroke-linecap="round" stroke-linejoin="round"/>
        <path d="M59.8 51.048l3.918 2.267v-4.532L59.8 46.517v4.53zm4.367 3.497c-.078 0-.155-.02-.225-.06l-4.815-2.787c-.14-.08-.224-.228-.224-.39v-5.57c0-.162.085-.31.224-.39.14-.082.31-.082.45 0l4.815 2.785c.14.08.224.23.224.39v5.572c0 .16-.085.31-.224.39-.07.04-.148.06-.225.06zm6.779-2.358L66.13 49.4v5.573l4.816 2.786z" stroke="#33475C" stroke-width="4.5" stroke-linecap="round" stroke-linejoin="round"/>
        <path d="M66.58 54.713l3.917 2.266v-4.533L66.58 50.18v4.533zm4.366 3.496c-.078 0-.155-.02-.224-.062l-4.816-2.785c-.14-.08-.224-.23-.224-.39v-5.57c0-.163.085-.31.224-.39.14-.082.31-.082.45 0l4.815 2.785c.14.08.225.23.225.39v5.57c0 .162-.085.31-.224.39-.068.04-.147.06-.224.06zm7.574 19.584l6.78 3.923v-9.99l-6.78-3.92z" stroke="#33475C" stroke-width="4.5" stroke-linecap="round" stroke-linejoin="round"/>
        <path d="M78.97 77.533l5.88 3.402v-8.947l-5.88-3.403v8.948zm6.33 4.633c-.078 0-.155-.02-.225-.06l-6.78-3.923c-.138-.08-.223-.23-.223-.39v-9.988c0-.16.085-.31.224-.39.14-.08.31-.08.45 0l6.778 3.922c.14.08.225.23.225.39v9.99c0 .16-.086.308-.226.388-.07.04-.146.06-.224.06zM61.31 67.71l6.78 3.923V60.08l-6.78-3.92z" stroke="#33475C" stroke-width="4.5" stroke-linecap="round" stroke-linejoin="round"/>
        <path d="M61.76 67.45l5.88 3.403V60.34l-5.88-3.4v10.51zm6.33 4.634c-.078 0-.156-.02-.226-.06L61.086 68.1c-.14-.08-.225-.228-.225-.39V56.16c0-.162.086-.31.226-.39.138-.082.31-.082.45 0l6.778 3.922c.14.08.224.23.224.39v11.55c0 .162-.085.31-.224.39-.07.04-.148.062-.225.062z" stroke="#33475C" stroke-width="4.5" stroke-linecap="round" stroke-linejoin="round"/>
        <path fill="#8E98DF" d="M94.42 91.344l-51.526 29.814L98.22 153.17l51.53-29.813"/>
        <path d="M43.792 121.158l54.43 31.494 50.63-29.295-54.43-31.493-50.63 29.294zm54.43 32.464c-.078 0-.156-.02-.225-.062L42.67 121.548c-.14-.08-.226-.23-.226-.39s.086-.31.225-.39l51.526-29.814c.14-.08.31-.08.45 0l55.328 32.014c.14.08.225.23.225.39s-.087.31-.226.39L98.446 153.56c-.07.04-.147.062-.224.062z" fill="#33475C"/>
        <path fill="#8E98DF" d="M163.125 51.6l-51.528 29.81 55.328 32.013 51.528-29.814"/>
        <path d="M112.496 81.413l54.43 31.493 50.628-29.295-54.43-31.49-50.628 29.293zm54.43 32.463c-.08 0-.156-.02-.225-.06l-55.328-32.013c-.14-.08-.224-.23-.224-.39s.085-.31.224-.39L162.9 51.21c.14-.082.31-.082.45 0l55.327 32.012c.14.08.225.23.225.39s-.085.31-.225.39l-51.527 29.813c-.07.04-.147.06-.225.06z" fill="#33475C"/>
        <path fill="#6976D4" d="M166.925 113.425l-55.328-32.012v2.7l55.328 32.014 51.527-29.814v-2.7"/>
        <path d="M112.046 83.854l54.88 31.753 51.078-29.555v-1.66l-50.854 29.423c-.14.08-.31.08-.45 0l-54.654-31.622v1.66zm54.88 32.723c-.08 0-.156-.02-.225-.06l-55.328-32.013c-.14-.08-.224-.23-.224-.39v-2.7c0-.162.085-.31.224-.39.14-.08.31-.08.45 0l55.103 31.882 51.303-29.684c.14-.08.31-.08.45 0s.224.23.224.39v2.7c0 .162-.085.31-.225.39l-51.527 29.814c-.07.04-.147.06-.225.06z" fill="#33475C"/>
        <path fill="#6976D4" d="M98.222 153.17l-55.33-32.012v2.702l55.33 32.012 51.527-29.813v-2.703"/>
        <path d="M43.343 123.6l54.88 31.753 51.077-29.555v-1.66L98.446 153.56c-.14.08-.31.08-.45 0l-54.653-31.622v1.66zm54.88 32.723c-.08 0-.157-.02-.226-.06L42.67 124.248c-.14-.08-.226-.23-.226-.39v-2.702c0-.16.086-.31.225-.39.137-.08.31-.08.448 0l55.104 31.884 51.303-29.684c.138-.08.31-.08.45 0 .138.08.224.23.224.39v2.7c0 .16-.087.31-.226.39L98.444 156.26c-.07.04-.147.06-.224.06z" fill="#33475C"/>
        <path fill="#FFF" d="M96.756 92.695l-49.193 28.463 50.658 29.31 49.194-28.462"/>
        <path d="M48.46 121.158l49.76 28.792 48.296-27.944-49.76-28.792-48.295 27.944zm49.76 29.762c-.076 0-.153-.02-.223-.06l-50.66-29.312c-.138-.08-.224-.23-.224-.39s.086-.31.225-.39L96.53 92.305c.14-.08.312-.08.45 0l50.66 29.312c.138.08.223.23.223.39s-.085.31-.224.39l-49.194 28.462c-.07.04-.147.06-.225.06z" fill="#33475C"/>
        <path fill="#FFF" d="M163.15 54.212l-.025.088-49.194 28.463 50.75 29.363 49.28-28.515"/>
        <path d="M114.83 82.764l49.85 28.842 48.38-27.996-49.85-28.84-48.382 27.994zm49.85 29.81c-.08 0-.156-.018-.225-.06l-50.748-29.36c-.14-.08-.225-.23-.225-.39 0-.162.086-.31.225-.39l49.048-28.38c.05-.09.127-.158.222-.198.13-.054.275-.044.396.026l50.812 29.4c.14.08.224.23.224.39s-.086.31-.225.39l-49.28 28.513c-.07.04-.15.06-.226.06z" fill="#33475C"/>
        <path fill="#EBF0F7" d="M47.563 121.158v-9.63L98.22 140.96v9.51"/>
        <path d="M48.012 120.898l49.76 28.792v-8.47l-49.76-28.91v8.588zm50.21 30.022c-.078 0-.155-.02-.225-.06l-50.66-29.312c-.138-.08-.224-.23-.224-.39v-9.63c0-.16.087-.31.225-.39.14-.08.31-.082.45 0l50.66 29.433c.138.082.222.23.222.39v9.51c0 .16-.085.31-.224.39-.07.04-.147.06-.225.06z" fill="#33475C"/>
        <path d="M210.293 76.783l-43.92-26.715s-48.48 1.126-57.916 35.12l49.27 34.67s1.198-27.165 52.566-43.075" fill="#EBF0F7"/>
        <path d="M108.976 85.003l48.395 34.053c.703-4.567 6.486-28.06 51.84-42.405l-42.956-26.127c-2.774.105-48.08 2.346-57.278 34.48m48.752 35.304c-.09 0-.182-.027-.258-.082l-49.27-34.67c-.157-.11-.227-.304-.176-.488 9.416-33.923 57.85-35.437 58.338-35.45.084-.003.17.023.244.066l43.92 26.715c.152.093.234.265.213.44-.023.177-.146.324-.315.376-50.48 15.634-52.236 42.395-52.25 42.664-.006.163-.1.31-.25.383-.06.032-.13.047-.197.047" fill="#33475C"/>
        <path d="M157.728 119.857s-14.435-25.07 52.565-43.073l3.667 6.827-49.323 28.443-1.172 2.072-5.737 5.732z" fill="#CBD6E3"/>
        <path d="M210.066 77.31c-36.598 9.89-48.404 21.862-51.857 30.176-2.374 5.712-.977 10.114-.35 11.603l5.244-5.24 1.14-2.02c.04-.07.1-.128.17-.168l48.944-28.223-3.292-6.13zm-52.34 42.997c-.018 0-.038 0-.057-.003-.14-.018-.262-.1-.332-.222-.125-.22-3.055-5.453.027-12.908 6.393-15.466 32.247-25.3 52.812-30.825.2-.052.413.036.512.22l3.666 6.828c.115.214.038.482-.172.604l-49.217 28.38-1.112 1.964c-.02.036-.044.07-.073.097l-5.737 5.734c-.085.084-.2.13-.318.13z" fill="#33475C"/>
        <path d="M152.326 112.857l-42.514-28.255s-15.7-11.334-62.25 26.926l50.66 29.433s41.427-35.522 54.104-28.103" fill="#EBF0F7"/>
        <path d="M48.35 111.464l49.823 28.948c1.635-1.385 11.273-9.452 22.098-16.66 13.357-8.896 23.13-13.014 29.15-12.285l-39.857-26.49c-.168-.12-15.98-10.52-61.214 26.487m49.87 29.946c-.078 0-.156-.02-.226-.06l-50.658-29.433c-.128-.074-.212-.206-.223-.354-.012-.146.05-.29.163-.383 46.283-38.043 62.144-27.414 62.796-26.942l42.5 28.244c.202.134.262.407.133.614-.128.206-.398.272-.608.15-12.264-7.172-53.175 27.702-53.586 28.056-.084.07-.187.108-.292.108" fill="#33475C"/>
        <path d="M112.21 86.197l-25.37 8.467s-8.83 3.424-17.13 10.285l44.387 25.788c13.054-9.453 30.928-22.154 38.23-17.88l-40.117-26.66z" fill="#98ACC3" opacity=".5"/>
        <path d="M132.207 99.792l21.752 14.494c-4.21-7.365-8.74-12.05-13.798-13.644-2.65-.835-5.332-1.056-7.955-.85" fill="#98ACC3"/>
        <path d="M133.593 100.175l18.975 12.644c-3.99-6.502-8.104-10.353-12.54-11.75-2.028-.637-4.194-.934-6.435-.895m20.367 14.562c-.087 0-.174-.025-.25-.076l-21.75-14.493c-.16-.107-.236-.302-.187-.49.047-.184.208-.318.4-.333 2.85-.228 5.58.067 8.123.868 5.035 1.585 9.63 6.115 14.054 13.85.103.182.068.41-.084.553-.085.08-.196.122-.306.122" fill="#33475C"/>
        <path d="M140.162 100.642L94.98 73.667C78.36 63.22 57.54 82.13 57.54 82.13l50.917 29.398s11.2-10.75 23.75-11.736c2.623-.206 5.304.015 7.955.85" fill="#EBF0F7"/>
        <path d="M58.312 82.057l50.083 28.914c1.733-1.575 12.24-10.723 23.777-11.627 1.808-.144 3.57-.075 5.265.196L94.75 74.053c-14.792-9.296-33.27 5.328-36.438 8.003m50.145 29.92c-.077 0-.154-.02-.224-.06L57.315 82.523c-.124-.072-.207-.2-.222-.342-.016-.143.038-.286.144-.382.21-.193 21.265-19.02 37.98-8.512l45.175 26.97c.196.116.273.36.18.57-.093.208-.327.313-.545.244-2.43-.765-5.052-1.044-7.785-.83-12.25.962-23.363 11.507-23.475 11.613-.085.082-.197.125-.31.125" fill="#33475C"/>
        <path d="M147.415 122.006l10.312-2.148s-8.1-21.614-34.743-1.35c-22.052 16.77-24.762 22.452-24.762 22.452v9.51l49.193-28.464z" fill="#CBD6E3"/>
        <path d="M98.67 141.075v8.614l48.52-28.073c.04-.025.086-.04.134-.05l9.772-2.038c-.762-1.635-3.638-6.914-9.695-8.662-6.557-1.892-14.68.8-24.145 7.997-20.223 15.38-24.146 21.456-24.584 22.21m-.448 9.845c-.078 0-.156-.02-.225-.06-.14-.08-.225-.23-.225-.39v-9.51c0-.067.016-.133.044-.195.113-.235 3.01-5.97 24.896-22.617 9.708-7.384 18.1-10.125 24.95-8.142 7.6 2.2 10.372 9.388 10.487 9.693.044.122.035.26-.028.375-.064.115-.175.196-.303.223l-10.243 2.135-49.13 28.426c-.07.04-.148.06-.225.06" fill="#33475C"/>
        <path d="M164.637 112.053s-3.536 8.613-17.223 9.954l2.336 1.35s9.487 4.01 17.175-9.932l-2.288-1.372z" fill="#6976D4"/>
        <path d="M148.812 122.295l1.162.673c.32.13 9.003 3.568 16.345-9.38l-1.49-.895c-.93 1.794-4.935 8.07-16.018 9.602m4.133 2.02c-2.026 0-3.335-.528-3.37-.542l-2.385-1.377c-.17-.098-.256-.294-.215-.485.042-.19.202-.333.396-.352 13.264-1.3 16.817-9.594 16.85-9.677.05-.12.15-.214.275-.255.125-.04.26-.025.372.04l2.29 1.375c.206.123.278.39.162.604-4.978 9.024-10.795 10.67-14.375 10.67" fill="#33475C"/>
        <path d="M149.75 126.118s12.245-.333 17.175-9.932v-2.76c-7.85 10.71-17.176 9.93-17.176 9.93v2.762z" fill="#6976D4"/>
        <path d="M150.198 123.823v1.815c2.24-.183 12.037-1.444 16.278-9.563v-1.32c-6.733 8.45-14.19 9.068-16.234 9.068h-.044zm-.45 2.745c-.116 0-.228-.046-.312-.128-.087-.084-.136-.2-.136-.322v-2.76c0-.126.053-.246.145-.332.092-.084.22-.125.34-.118.095.01 9.186.61 16.778-9.75.115-.156.317-.22.502-.16s.31.233.31.427v2.76c0 .072-.018.143-.05.206-4.993 9.726-17.438 10.174-17.563 10.178h-.013z" fill="#33475C"/>
        <path d="M148.568 4.57c0-1.486-1.05-2.094-2.334-1.35l-42.766 24.743c-1.284.743-2.334 2.566-2.334 4.052V46.49c0 1.484 1.05 2.092 2.334 1.35l42.766-24.745c1.284-.743 2.334-2.567 2.334-4.053V4.57z" fill="#FEF9F0"/>
        <path d="M147.272 3.353c-.24 0-.522.087-.814.255l-42.765 24.745c-1.144.66-2.11 2.338-2.11 3.662v14.472c0 .544.168.952.46 1.122.296.17.73.11 1.2-.16l42.766-24.745c1.143-.662 2.11-2.338 2.11-3.662V4.57c0-.544-.17-.952-.462-1.122-.11-.064-.24-.095-.386-.095M102.43 48.608c-.3 0-.582-.073-.835-.22-.587-.338-.91-1.014-.91-1.9V32.014c0-1.633 1.148-3.626 2.558-4.442L146.01 2.83c.765-.444 1.51-.5 2.097-.162.587.34.91 1.015.91 1.902v14.473c0 1.633-1.148 3.625-2.56 4.44L103.694 48.23c-.436.252-.866.38-1.263.38" fill="#33475C"/>
        <path d="M142.94 11.034c0-1.23-1.05-1.63-2.336-.887l-21.542 12.465c-1.283.743-2.335 2.357-2.335 3.588 0 1.23 1.052 1.63 2.335.886l21.542-12.463c1.285-.743 2.335-2.358 2.335-3.59" fill="#FBE1B2"/>
        <path d="M141.804 10.223c-.276 0-.617.108-.975.315L119.286 23c-1.144.663-2.11 2.128-2.11 3.2 0 .248.054.574.312.723.3.172.803.09 1.347-.226l21.543-12.465c1.144-.66 2.11-2.126 2.11-3.198 0-.247-.054-.573-.312-.722-.103-.06-.23-.09-.374-.09m-23.944 17.69c-.302 0-.58-.07-.82-.21-.49-.283-.762-.817-.762-1.502 0-1.4 1.124-3.148 2.56-3.977L140.38 9.758c.838-.486 1.656-.567 2.247-.227.49.286.76.82.76 1.504 0 1.4-1.123 3.148-2.558 3.977l-21.543 12.466c-.497.288-.988.435-1.427.435" fill="#33475C"/>
        <path d="M135.25 23.31c0-1.23-1.05-1.63-2.335-.886l-13.853 8.015c-1.284.742-2.334 2.357-2.334 3.588 0 1.23 1.05 1.63 2.334.886l13.853-8.015c1.284-.744 2.334-2.358 2.334-3.59" fill="#FBE1B2"/>
        <path d="M134.114 22.5c-.277 0-.617.107-.975.314l-13.853 8.014c-1.144.662-2.11 2.127-2.11 3.2 0 .246.054.573.312.722.3.176.803.09 1.348-.225l13.852-8.016c1.144-.662 2.11-2.127 2.11-3.2 0-.247-.054-.573-.312-.722-.103-.06-.23-.088-.374-.088M117.86 35.737c-.303 0-.58-.068-.82-.207-.49-.285-.76-.818-.76-1.503 0-1.4 1.123-3.147 2.558-3.977l13.852-8.016c.838-.487 1.656-.566 2.247-.227.49.285.76.82.76 1.503 0 1.4-1.123 3.148-2.558 3.978l-13.853 8.016c-.498.287-.987.433-1.428.433" fill="#33475C"/>
        <path d="M114.41 31.932c0-3.21-2.268-4.52-5.04-2.917-2.773 1.605-5.04 5.542-5.04 8.75s2.267 4.52 5.04 2.916c2.772-1.603 5.04-5.54 5.04-8.748" fill="#FBE1B2"/>
        <path d="M111.606 28.78c-.608 0-1.294.21-2.012.624-2.656 1.538-4.816 5.287-4.816 8.362 0 1.384.446 2.403 1.256 2.872.81.467 1.915.344 3.11-.347 2.656-1.536 4.817-5.285 4.817-8.358 0-1.384-.445-2.404-1.256-2.873-.323-.188-.693-.28-1.098-.28m-4.477 13.04c-.56 0-1.082-.135-1.545-.403-1.1-.636-1.705-1.932-1.705-3.65 0-3.362 2.36-7.462 5.264-9.142 1.486-.86 2.91-.983 4.01-.346 1.1.635 1.705 1.933 1.705 3.652 0 3.36-2.363 7.46-5.266 9.138-.86.498-1.698.75-2.465.75" fill="#33475C"/>
        <path d="M107.876 35.2c0-.438-.31-.616-.687-.398-.38.218-.69.755-.69 1.193 0 .437.31.617.69.398.377-.22.686-.756.686-1.193m4.085-2.35c0-.438-.31-.617-.687-.4-.377.22-.687.757-.687 1.194 0 .438.31.617.687.398.378-.218.688-.755.688-1.193m-4.001 6.224c-.4 0-.765-.127-1.063-.38-.188-.16-.21-.445-.05-.635.16-.19.444-.212.633-.05.29.247.748.22 1.26-.078.61-.353 1.19-1.02 1.596-1.835.11-.22.38-.312.602-.2.222.11.313.38.2.603-.48.967-1.192 1.773-1.95 2.212-.42.242-.84.363-1.228.363" fill="#33475C"/>
        <path d="M155.095 45.355c1.8-1.046.813-2.477.277-3.07-.073-.073-.14-.146-.21-.218l-.067-.062h.006c-3.796-3.893-5.417-7.793-6.102-10.316-.507-1.828-1.696-1.518-2.27-1.243l-.32.185-43.017 24.814s-1.965 1.383-1.458 3.402c.906 2.77 2.84 6.692 6.982 10.48.77.607 2.424 1.478 4.642.188l41.54-24.16z" fill="#FFF3EE"/>
        <path d="M155.095 45.355h.01-.01zm-7.54-14.668c-.227 0-.456.082-.63.167l-.292.17-43.018 24.813c-.035.027-1.67 1.214-1.247 2.9.845 2.583 2.727 6.488 6.85 10.26.672.528 2.138 1.28 4.112.13l41.54-24.162c.475-.276.744-.592.798-.937.09-.574-.41-1.2-.63-1.44l-.197-.204c-.02-.02-.04-.042-.06-.065-3.852-3.948-5.506-7.896-6.215-10.513-.108-.386-.314-.885-.686-1.053-.104-.048-.214-.067-.324-.067zM111.292 70.64c-1.196 0-2.11-.528-2.654-.956-4.29-3.926-6.243-7.982-7.13-10.696-.586-2.323 1.537-3.847 1.627-3.91l43.372-25.02c.462-.225 1.112-.412 1.746-.125.552.25.95.8 1.18 1.636.684 2.515 2.277 6.312 5.993 10.12.01.01.02.02.028.032.01.01.02.018.02.02l.218.222c.396.438 1.01 1.28.868 2.203-.097.626-.513 1.158-1.236 1.578l-41.54 24.16c-.92.537-1.758.734-2.49.734z" fill="#33475C"/>
        <path d="M116.934 57.357c1.516 2.4 1.775 5.262-.228 6.98-2.002 1.718-6.012 1.246-7.937-1.8-1.925-3.044-.636-6.878 1.77-7.958 2.405-1.08 4.876.376 6.394 2.777" fill="#FFC7AA"/>
        <path d="M112.195 54.665c-.478 0-.972.1-1.472.324-.997.447-1.82 1.473-2.202 2.743-.46 1.538-.232 3.202.63 4.565.86 1.36 2.262 2.28 3.848 2.52 1.31.19 2.587-.113 3.416-.824 2.002-1.716 1.327-4.518.14-6.397-.94-1.487-2.54-2.932-4.36-2.932m1.6 11.112c-.305 0-.616-.023-.93-.07-1.843-.277-3.474-1.344-4.474-2.927s-1.267-3.518-.728-5.306c.462-1.54 1.444-2.746 2.693-3.306 2.41-1.085 5.143.074 6.958 2.947 1.816 2.874 1.693 5.843-.315 7.564-.834.715-1.97 1.097-3.205 1.097" fill="#33475C"/>
        <path d="M119.608 53.767c-.62 0-1.225-.323-1.558-.9-.496-.863-.2-1.964.658-2.46L140.25 37.94c.86-.495 1.96-.2 2.455.66.496.862.202 1.964-.658 2.462l-21.542 12.463c-.283.164-.592.242-.897.242" fill="#FFC7AA"/>
        <path d="M141.146 38.15c-.228 0-.46.06-.672.18l-21.542 12.465c-.642.373-.864 1.2-.493 1.846.357.622 1.218.857 1.84.495l21.542-12.463c.643-.373.865-1.202.493-1.846-.25-.433-.702-.675-1.17-.675M119.61 54.218c-.8 0-1.547-.432-1.947-1.126-.618-1.074-.25-2.453.823-3.074l21.542-12.465c1.075-.62 2.45-.248 3.068.825.62 1.075.25 2.455-.822 3.076l-21.54 12.465c-.34.198-.73.302-1.122.302" fill="#33475C"/>
        <path d="M122.753 59.814c-.62 0-1.225-.322-1.558-.9-.496-.862-.2-1.963.658-2.46l13.853-8.016c.86-.496 1.96-.202 2.454.66.497.862.202 1.962-.657 2.46l-13.853 8.015c-.283.164-.592.24-.897.24" fill="#FFC7AA"/>
        <path d="M136.602 48.648c-.23 0-.46.058-.672.18l-13.852 8.015c-.644.373-.865 1.2-.494 1.845.357.62 1.22.857 1.84.494l13.853-8.013c.644-.374.866-1.202.494-1.847-.248-.432-.702-.675-1.168-.675m-13.85 11.616c-.8 0-1.546-.43-1.946-1.126-.62-1.074-.25-2.453.822-3.075l13.852-8.014c1.076-.623 2.452-.252 3.07.823.618 1.074.25 2.454-.823 3.075l-13.852 8.014c-.34.198-.73.302-1.122.302m-9.22 3.111c-.378 0-.767-.065-1.144-.2-.234-.084-.355-.342-.272-.575.083-.235.338-.362.574-.273.744.265 1.53.175 2.004-.23.348-.3.534-.702.55-1.198.01-.247.222-.42.466-.434.248.01.442.217.433.466-.026.746-.325 1.385-.865 1.85-.455.39-1.08.593-1.746.593m-2.476-3.307c.18.283.208.62-.027.82-.234.203-.706.148-.933-.21-.226-.36-.074-.81.21-.937.282-.127.572.044.75.327m3.897-2.295c.18.283.208.62-.027.822-.236.202-.707.147-.934-.212-.226-.358-.074-.81.21-.936.282-.127.572.044.75.327" fill="#33475C"/>
        <path d="M183.05 68.67c-1.304-.708-3.42-.68-4.705.064L141.143 90.26c-1.284.742-1.267 1.93.036 2.636l10.906 5.92c1.304.705 3.42.677 4.705-.066l37.203-21.525c1.284-.743 1.267-1.93-.036-2.637L183.05 68.67zM161 57.25c-1.305-.71-3.422-.68-4.706.064l-37.2 21.524c-1.285.743-1.27 1.93.035 2.637l10.905 5.92c1.304.706 3.42.677 4.705-.066l37.202-21.526c1.284-.742 1.268-1.93-.036-2.637L161 57.25z" fill="#98ACC3" opacity=".5"/>
        <path d="M164.158 47.436c-1.303-.708-3.42-.678-4.704.064l-42.766 24.744c-1.284.743-1.268 1.93.036 2.637l12.986 7.047c1.304.708 3.42.68 4.705-.064L177.18 57.12c1.284-.743 1.268-1.93-.036-2.638l-12.986-7.046z" fill="#FFF1EE"/>
        <path d="M161.88 47.374c-.802 0-1.61.172-2.202.515l-42.765 24.744c-.467.27-.733.61-.727.936.003.324.278.658.752.915l12.986 7.048c1.165.63 3.118.604 4.267-.06l42.765-24.744c.468-.27.733-.612.728-.936-.003-.325-.278-.658-.752-.916l-12.986-7.046c-.563-.307-1.31-.458-2.063-.458m-29.894 35.51c-.902 0-1.798-.184-2.49-.56l-12.986-7.047c-.78-.422-1.215-1.025-1.223-1.695-.01-.67.41-1.283 1.176-1.727L159.23 47.11c1.407-.815 3.714-.845 5.142-.07l12.987 7.046c.78.424 1.213 1.025 1.222 1.695.01.67-.41 1.285-1.177 1.73L134.64 82.25c-.726.42-1.693.633-2.654.633" fill="#33475C"/>
        <path d="M161.43 52.266c-1.098-.595-3.047-.474-4.33.268l-21.543 12.464c-1.284.743-1.437 1.838-.34 2.434 1.098.596 3.046.475 4.33-.268L161.09 54.7c1.284-.744 1.436-1.84.34-2.434" fill="#FFBCAA"/>
        <path d="M159.677 52.338c-.81 0-1.687.2-2.353.586L135.78 65.388c-.534.31-.85.693-.846 1.025.004.295.273.5.497.623.964.522 2.746.402 3.893-.262l21.542-12.464c.535-.31.853-.693.848-1.024-.004-.295-.273-.502-.5-.624-.402-.22-.95-.324-1.536-.324m-22.695 15.927c-.737 0-1.437-.144-1.978-.437-.617-.334-.96-.833-.97-1.402-.008-.674.465-1.336 1.298-1.817l21.542-12.465c1.43-.83 3.525-.95 4.77-.275.615.335.96.833.967 1.403.01.672-.462 1.335-1.296 1.816l-21.542 12.463c-.81.47-1.83.712-2.79.712" fill="#33475C"/>
        <path d="M160.72 60.504c-1.097-.596-3.046-.475-4.33.268l-13.852 8.014c-1.284.743-1.437 1.838-.34 2.434 1.098.596 3.046.475 4.33-.268l13.853-8.015c1.285-.743 1.437-1.838.34-2.433" fill="#FFBCAA"/>
        <path d="M158.968 60.575c-.81 0-1.688.2-2.354.586l-13.852 8.016c-.534.31-.852.693-.847 1.024.004.296.273.502.498.624.96.523 2.744.403 3.89-.262l13.853-8.015c.535-.31.852-.692.848-1.024-.004-.294-.273-.502-.498-.624-.403-.22-.953-.325-1.538-.325m-15.004 11.477c-.738 0-1.44-.144-1.98-.436-.615-.334-.96-.832-.968-1.402-.01-.673.464-1.335 1.297-1.817l13.852-8.015c1.43-.828 3.526-.948 4.77-.275.616.335.96.833.967 1.403.01.673-.463 1.335-1.296 1.818l-13.852 8.014c-.81.468-1.83.71-2.79.71" fill="#33475C"/>
        <path d="M136.816 70.898c-2.86-1.552-7.47-1.51-10.243.094-2.772 1.603-2.7 4.186.162 5.738 2.86 1.554 7.47 1.512 10.243-.092 2.772-1.605 2.7-4.188-.162-5.74" fill="#FFBCAA"/>
        <path d="M131.778 70.2c-1.812 0-3.623.395-4.98 1.18-1.18.683-1.82 1.556-1.808 2.46.012.93.71 1.817 1.958 2.495 2.748 1.49 7.147 1.45 9.805-.087 1.178-.682 1.82-1.556 1.808-2.46-.01-.93-.708-1.815-1.958-2.494-1.345-.73-3.085-1.093-4.824-1.093m-.008 8.116c-1.892 0-3.786-.395-5.25-1.19-1.548-.84-2.41-2.002-2.43-3.273-.015-1.245.786-2.4 2.26-3.252 2.898-1.677 7.69-1.722 10.68-.098 1.55.84 2.412 2.004 2.43 3.274.016 1.245-.785 2.4-2.257 3.25-1.48.86-3.457 1.29-5.433 1.29" fill="#33475C"/>
        <path d="M131.664 76.408c-.163 0-.326-.005-.49-.015-.248-.015-.437-.228-.422-.476.014-.248.232-.45.475-.423 1.222.074 2.39-.156 3.206-.628.706-.408 1.036-.94.906-1.46-.06-.242.086-.485.327-.546.238-.06.484.086.545.328.23.925-.268 1.843-1.33 2.457-.85.492-2.002.763-3.218.763m-2.298-2.306c-.363-.197-.95-.192-1.3.012-.352.203-.343.532.02.728.364.197.95.192 1.3-.01.353-.205.343-.533-.02-.73m4.227-2.452c-.363-.197-.95-.19-1.3.012-.353.204-.344.533.02.73.363.196.948.19 1.3-.013.353-.204.343-.532-.02-.73" fill="#33475C"/>
        <path d="M186.622 58.53c-1.304-.71-3.42-.68-4.705.064l-42.765 24.744c-1.284.743-1.268 1.93.036 2.636l12.986 7.047c1.303.708 3.42.68 4.704-.063l42.766-24.744c1.284-.743 1.268-1.93-.036-2.638l-12.986-7.046z" fill="#FDEDF2"/>
        <path d="M184.345 58.468c-.803 0-1.61.172-2.203.515l-42.766 24.745c-.466.27-.732.61-.727.935.003.324.278.658.75.915l12.988 7.047c1.165.633 3.118.606 4.267-.058l42.764-24.744c.466-.27.732-.612.727-.936-.004-.325-.278-.658-.752-.915l-12.987-7.047c-.563-.306-1.312-.457-2.063-.457m-29.895 35.51c-.9 0-1.8-.186-2.49-.56l-12.986-7.048c-.78-.423-1.214-1.024-1.223-1.694-.01-.67.41-1.283 1.177-1.727l42.766-24.746c1.408-.814 3.715-.846 5.143-.07l12.987 7.046c.78.423 1.214 1.025 1.223 1.694.01.67-.41 1.284-1.177 1.728l-42.766 24.744c-.726.42-1.692.633-2.654.633" fill="#33475C"/>
        <path d="M183.893 63.36c-1.097-.596-3.046-.475-4.33.268L158.02 76.092c-1.283.742-1.436 1.837-.34 2.434 1.1.595 3.047.474 4.33-.27l21.544-12.463c1.284-.743 1.436-1.838.34-2.434" fill="#FBA9BE"/>
        <path d="M182.14 63.43c-.81 0-1.687.202-2.352.586L158.245 76.48c-.535.312-.852.694-.847 1.026.004.294.273.5.497.623.963.52 2.744.402 3.892-.262l21.542-12.465c.534-.31.85-.692.847-1.024-.004-.295-.273-.502-.5-.625-.402-.22-.95-.325-1.537-.325m-22.693 15.927c-.738 0-1.438-.143-1.98-.437-.616-.334-.96-.832-.968-1.402-.01-.672.463-1.334 1.296-1.816l21.542-12.465c1.432-.83 3.527-.95 4.77-.273.615.335.96.833.967 1.403.01.67-.464 1.333-1.297 1.816l-21.542 12.464c-.808.47-1.83.71-2.79.71" fill="#33475C"/>
        <path d="M183.184 71.597c-1.097-.595-3.046-.475-4.33.268L165 79.88c-1.283.743-1.435 1.838-.337 2.434 1.097.595 3.045.474 4.33-.27l13.852-8.014c1.284-.743 1.436-1.838.34-2.433" fill="#FBA9BE"/>
        <path d="M181.43 71.668c-.808 0-1.687.202-2.35.586l-13.854 8.016c-.535.31-.85.692-.848 1.024.005.295.273.5.498.624.962.52 2.744.4 3.892-.262l13.852-8.016c.535-.31.852-.692.848-1.024-.005-.294-.273-.5-.498-.624-.404-.218-.953-.324-1.54-.324m-15.003 11.477c-.738 0-1.438-.142-1.98-.436-.615-.335-.96-.833-.967-1.403-.01-.672.463-1.334 1.297-1.816l13.852-8.015c1.43-.828 3.525-.95 4.767-.274.617.336.96.834.97 1.404.008.672-.465 1.334-1.298 1.816l-13.853 8.015c-.81.47-1.83.71-2.79.71" fill="#33475C"/>
        <path d="M159.28 81.99c-2.86-1.55-7.47-1.51-10.243.095-2.773 1.604-2.7 4.186.162 5.74 2.86 1.552 7.47 1.51 10.242-.094 2.772-1.604 2.7-4.186-.162-5.74" fill="#FBA9BE"/>
        <path d="M154.242 81.294c-1.812 0-3.623.395-4.98 1.18-1.18.682-1.82 1.556-1.81 2.46.014.93.71 1.816 1.96 2.494 2.747 1.49 7.145 1.45 9.805-.087 1.178-.682 1.82-1.555 1.808-2.46-.013-.93-.71-1.814-1.96-2.493-1.344-.73-3.084-1.093-4.823-1.093m-.01 8.115c-1.89 0-3.785-.397-5.248-1.19-1.55-.84-2.41-2.003-2.43-3.273-.015-1.246.786-2.4 2.26-3.252 2.898-1.68 7.69-1.724 10.68-.1 1.55.84 2.412 2.003 2.43 3.274.016 1.244-.786 2.4-2.258 3.25-1.48.857-3.457 1.29-5.434 1.29" fill="#33475C"/>
        <path d="M154.128 87.502c-.163 0-.326-.006-.49-.016-.248-.014-.437-.227-.422-.475.014-.248.226-.448.475-.422 1.222.074 2.39-.157 3.207-.63.706-.407 1.035-.94.906-1.46-.06-.24.087-.484.328-.544.24-.06.485.085.545.328.23.924-.267 1.843-1.33 2.456-.85.493-2 .764-3.217.764m-2.3-2.308c-.364-.197-.95-.19-1.3.012-.354.204-.345.532.018.73.364.196.95.19 1.302-.013.352-.204.342-.53-.02-.73m4.226-2.45c-.363-.197-.95-.192-1.3.012-.353.203-.344.532.02.728.363.197.948.192 1.3-.01.353-.205.343-.533-.02-.73" fill="#33475C"/>
        <path d="M90.913 47.978c0-.99-.7-2.207-1.557-2.702L75.293 37.14c-.856-.496-1.556-.09-1.556.9v35.184c0 .99.7 2.206 1.556 2.7l14.063 8.138c.857.496 1.557.09 1.557-.9V47.978z" fill="#7BDED2"/>
        <path d="M74.603 37.377c-.07 0-.133.016-.184.045-.15.086-.234.31-.234.617v35.184c0 .835.61 1.894 1.332 2.312l14.063 8.137c.266.152.502.192.65.106.15-.086.233-.31.233-.618V47.977c0-.835-.61-1.894-1.33-2.312L75.067 37.53c-.172-.1-.333-.153-.465-.153M90.05 84.723c-.293 0-.607-.09-.918-.27l-14.064-8.138c-.998-.577-1.78-1.935-1.78-3.09V38.038c0-.638.248-1.147.682-1.398.432-.25.997-.213 1.548.108l14.063 8.137c1 .577 1.782 1.935 1.782 3.09V83.16c0 .637-.248 1.147-.68 1.397-.19.11-.405.163-.632.163" fill="#33475C"/>
        <path d="M73.737 51.423c0-.99-.7-2.206-1.556-2.702l-14.063-8.135c-.856-.496-1.556-.09-1.556.9v21.677c0 .99.7 2.206 1.557 2.7L72.18 74c.857.495 1.557.09 1.557-.9V51.423z" fill="#7BDED2"/>
        <path d="M57.427 40.823c-.07 0-.133.015-.184.045-.148.085-.233.31-.233.617v21.677c0 .835.61 1.894 1.332 2.312l14.063 8.137c.265.153.502.192.65.107.148-.085.232-.31.232-.617V51.422c0-.834-.61-1.893-1.33-2.31L57.89 40.973c-.172-.1-.333-.15-.465-.15m15.45 33.837c-.293 0-.608-.09-.92-.27l-14.063-8.137c-.998-.577-1.78-1.935-1.78-3.09V41.484c0-.638.248-1.147.682-1.397.432-.25.997-.214 1.548.107l14.063 8.137c1 .576 1.78 1.935 1.78 3.09V73.1c0 .638-.247 1.146-.68 1.397-.19.11-.404.164-.63.164" fill="#33475C"/>
        <path fill="#E5F6F9" d="M81.343 45.19l-4.816-2.785v5.573l4.816 2.786"/>
        <path d="M76.977 47.717l3.917 2.267v-4.532l-3.917-2.266v4.53zm4.366 3.497c-.078 0-.155-.02-.225-.06l-4.815-2.787c-.14-.08-.225-.228-.225-.39v-5.57c0-.162.086-.31.225-.39.14-.082.31-.082.45 0l4.815 2.785c.14.08.224.23.224.39v5.572c0 .16-.085.31-.224.39-.07.04-.148.06-.225.06z" fill="#33475C"/>
        <path fill="#E5F6F9" d="M88.122 48.855l-4.816-2.786v5.572l4.816 2.786"/>
        <path d="M83.756 51.382l3.916 2.266v-4.533l-3.916-2.266v4.532zm4.365 3.496c-.076 0-.153-.02-.223-.06l-4.815-2.786c-.14-.08-.224-.23-.224-.39V46.07c0-.162.085-.31.224-.39.14-.08.31-.08.45 0l4.814 2.786c.14.08.225.228.225.39v5.572c0 .16-.085.31-.224.39-.07.04-.147.06-.225.06z" fill="#33475C"/>
        <path fill="#E5F6F9" d="M81.343 53.108l-4.816-2.786v5.572l4.816 2.786"/>
        <path d="M76.977 55.633l3.917 2.267v-4.532l-3.917-2.266v4.53zm4.366 3.497c-.078 0-.155-.02-.225-.06l-4.815-2.786c-.14-.08-.225-.23-.225-.39v-5.572c0-.16.086-.31.225-.39.14-.08.31-.08.45 0l4.815 2.787c.14.08.224.227.224.388v5.572c0 .16-.085.31-.224.39-.07.04-.148.06-.225.06z" fill="#33475C"/>
        <path fill="#E5F6F9" d="M88.122 56.772l-4.816-2.786v5.572l4.816 2.786"/>
        <path d="M83.756 59.297l3.916 2.267V57.03l-3.916-2.264v4.53zm4.365 3.497c-.076 0-.153-.02-.223-.062l-4.815-2.785c-.14-.08-.224-.23-.224-.39v-5.57c0-.162.085-.31.224-.39.14-.082.31-.082.45 0l4.814 2.785c.14.08.225.23.225.39v5.57c0 .163-.085.31-.224.39-.07.04-.147.062-.225.062z" fill="#33475C"/>
        <path fill="#E5F6F9" d="M81.343 61.024l-4.816-2.786v5.572l4.816 2.786"/>
        <path d="M76.977 63.55l3.917 2.266v-4.532l-3.917-2.266v4.532zm4.366 3.496c-.078 0-.155-.02-.225-.06L76.303 64.2c-.14-.08-.225-.23-.225-.39v-5.57c0-.163.086-.31.225-.39.14-.082.31-.082.45 0l4.815 2.785c.14.08.224.23.224.39v5.57c0 .162-.085.31-.224.39-.07.04-.148.06-.225.06z" fill="#33475C"/>
        <path fill="#E5F6F9" d="M88.122 64.688l-4.816-2.786v5.572l4.816 2.786"/>
        <path d="M83.756 67.213l3.916 2.267v-4.532l-3.916-2.266v4.53zm4.365 3.497c-.076 0-.153-.02-.223-.06l-4.815-2.787c-.14-.08-.224-.228-.224-.39v-5.57c0-.162.085-.31.224-.39.14-.082.31-.082.45 0l4.814 2.785c.14.08.225.23.225.39v5.572c0 .16-.085.31-.224.39-.07.04-.147.06-.225.06z" fill="#33475C"/>
        <path fill="#E5F6F9" d="M64.167 48.523l-4.815-2.786v5.572l4.815 2.785"/>
        <path d="M59.8 51.048l3.918 2.267v-4.532L59.8 46.517v4.53zm4.367 3.497c-.078 0-.155-.02-.225-.06l-4.815-2.787c-.14-.08-.224-.228-.224-.39v-5.57c0-.162.085-.31.224-.39.14-.082.31-.082.45 0l4.815 2.785c.14.08.224.23.224.39v5.572c0 .16-.085.31-.224.39-.07.04-.148.06-.225.06z" fill="#33475C"/>
        <path fill="#E5F6F9" d="M70.946 52.187L66.13 49.4v5.573l4.816 2.786"/>
        <path d="M66.58 54.713l3.917 2.266v-4.533L66.58 50.18v4.533zm4.366 3.496c-.078 0-.155-.02-.224-.062l-4.816-2.785c-.14-.08-.224-.23-.224-.39v-5.57c0-.163.085-.31.224-.39.14-.082.31-.082.45 0l4.815 2.785c.14.08.225.23.225.39v5.57c0 .162-.085.31-.224.39-.068.04-.147.06-.224.06z" fill="#33475C"/>
        <path fill="#CBD6E3" d="M78.52 77.793l6.78 3.923v-9.99l-6.78-3.92"/>
        <path d="M78.97 77.533l5.88 3.402v-8.947l-5.88-3.403v8.948zm6.33 4.633c-.078 0-.155-.02-.225-.06l-6.78-3.923c-.138-.08-.223-.23-.223-.39v-9.988c0-.16.085-.31.224-.39.14-.08.31-.08.45 0l6.778 3.922c.14.08.225.23.225.39v9.99c0 .16-.086.308-.226.388-.07.04-.146.06-.224.06z" fill="#33475C"/>
        <path fill="#CBD6E3" d="M61.31 67.71l6.78 3.923V60.08l-6.78-3.92"/>
        <path d="M61.76 67.45l5.88 3.403V60.34l-5.88-3.4v10.51zm6.33 4.634c-.078 0-.156-.02-.226-.06L61.086 68.1c-.14-.08-.225-.228-.225-.39V56.16c0-.162.086-.31.226-.39.138-.082.31-.082.45 0l6.778 3.922c.14.08.224.23.224.39v11.55c0 .162-.085.31-.224.39-.07.04-.148.062-.225.062z" fill="#33475C"/>
        <path d="M91.603 85.237l11.175 6.466" fill="#FFF"/>
        <path d="M93.158 86.584c-.08 0-.153-.018-.225-.054l-1.555-.9c-.215-.127-.287-.406-.16-.622.116-.207.403-.28.61-.162l1.554.9c.108.063.18.162.207.27.035.117.017.243-.046.343-.08.143-.225.224-.386.224m3.11 1.8c-.073 0-.154-.017-.226-.053l-1.555-.9c-.134-.08-.215-.225-.224-.387 0-.08.018-.162.063-.234.117-.208.404-.28.61-.163l1.564.9c.207.126.288.396.162.613-.08.144-.234.225-.395.225m3.118 1.8c-.08 0-.153-.017-.225-.053l-1.555-.9c-.134-.082-.224-.226-.224-.388 0-.08.02-.162.055-.234.126-.207.413-.28.62-.162l1.554.9c.215.126.287.396.16.613-.08.145-.224.226-.385.226m3.11 1.8c-.073 0-.154-.017-.226-.053l-1.556-.9c-.134-.082-.215-.226-.224-.388 0-.08.018-.162.063-.234.116-.206.404-.278.61-.16l1.555.9c.216.125.288.395.17.612-.08.144-.233.225-.394.225" fill="#33475C"/>
        <path d="M122.784 80.127l-20.006 11.576" fill="#FFF"/>
        <path d="M121.23 81.478c-.163 0-.307-.09-.388-.225-.063-.108-.08-.225-.045-.342.027-.116.1-.216.207-.28l1.554-.89c.207-.126.495-.045.61.162.127.216.055.495-.16.612l-1.555.9c-.072.037-.144.064-.224.064m-3.11 1.8c-.162 0-.315-.09-.396-.224-.126-.216-.045-.495.162-.622l1.563-.89c.206-.127.494-.046.61.16.045.073.063.154.063.235-.01.153-.09.297-.224.378l-1.565.9c-.063.045-.144.064-.215.064m-3.118 1.8c-.162 0-.306-.09-.387-.225-.126-.216-.054-.495.162-.613l1.554-.91c.208-.116.496-.035.62.172.037.072.055.153.055.234 0 .153-.09.297-.224.378l-1.554.9c-.072.037-.144.064-.224.064m-3.11 1.8c-.16 0-.314-.09-.395-.224-.117-.216-.045-.496.17-.622l1.555-.9c.207-.117.495-.036.61.17.046.073.064.154.064.235-.01.16-.09.296-.224.377l-1.555.9c-.072.037-.153.064-.224.064m-3.118 1.802c-.153 0-.306-.09-.387-.225-.063-.108-.08-.225-.045-.342.027-.117.108-.217.207-.27l1.554-.9c.207-.127.495-.046.62.16.036.073.063.154.054.235 0 .153-.08.297-.215.378l-1.564.9c-.064.045-.145.064-.225.064m-3.11 1.8c-.16 0-.314-.09-.395-.224-.117-.216-.045-.487.17-.613l1.555-.91c.207-.116.495-.035.61.172.046.072.064.153.064.234 0 .154-.09.307-.225.38l-1.555.9c-.072.036-.144.063-.224.063m-2.885 1.666c-.16 0-.313-.082-.394-.226-.126-.216-.045-.487.17-.613l1.33-.764c.207-.126.495-.045.61.162.037.072.064.153.064.234-.01.153-.09.297-.224.378l-1.33.775c-.072.036-.153.054-.225.054" fill="#33475C"/>
    </g>
</svg>
