<?xml version="1.0" encoding="UTF-8"?>
<svg width="155px" height="152px" viewBox="0 0 155 152" version="1.1" xmlns="http://www.w3.org/2000/svg" xmlns:xlink="http://www.w3.org/1999/xlink">
    <!-- Generator: Sketch 55.2 (78181) - https://sketchapp.com -->
    <title>Illustrations/Integrations</title>
    <desc>Created with Sketch.</desc>
    <g id="----Illustrations" stroke="none" stroke-width="1" fill="none" fill-rule="evenodd">
        <g id="Stickersheet" transform="translate(-2271.000000, -11203.000000)">
            <g id="Illustrations/_Stickersheet" transform="translate(-320.000000, 3244.000000)">
                <g id="Illustrations/Platform/Integrations" transform="translate(2593.000000, 7961.000000)">
                    <path d="M54.6028448,92.1059852 C52.8287069,91.0798287 49.9256897,91.0798287 48.1515517,92.1059852 L1.70068966,118.976516 C-0.0734482759,120.002672 -0.0643965517,121.66629 1.72008621,122.674307 L48.1308621,148.846481 C49.9166379,149.851907 52.8377586,149.851907 54.6235345,148.846481 L101.03431,122.674307 C102.818793,121.66629 102.827845,120.002672 101.053707,118.976516 L54.6028448,92.1059852 Z" id="Fill1" fill="#7B97B7" fill-rule="evenodd" opacity="0.35"></path>
                    <polygon id="Fill3" fill="#00BEA5" fill-rule="evenodd" points="76.0969397 59.3110852 76.0956466 59.3110852 76.0969397 59.3097896 76.0969397 30.7121548 51.3792672 16.4133374 26.6615948 30.7121548 26.6615948 30.7147461 26.6577155 30.7121548 1.9400431 45.0109722 1.9400431 73.608607 1.9400431 102.206242 26.6577155 116.506355 51.3753879 130.805172 76.0930603 116.506355 76.0930603 116.505059 76.0969397 116.50765 100.814612 102.207537 100.814612 73.6099026"></polygon>
                    <polygon id="Stroke4" stroke="#33475C" stroke-width="6.46551724" stroke-linecap="round" stroke-linejoin="round" points="76.0969397 59.3110852 76.0956466 59.3110852 76.0969397 59.3097896 76.0969397 30.7121548 51.3792672 16.4133374 26.6615948 30.7121548 26.6615948 30.7147461 26.6577155 30.7121548 1.9400431 45.0109722 1.9400431 73.608607 1.9400431 102.206242 26.6577155 116.506355 51.3753879 130.805172 76.0930603 116.506355 76.0930603 116.505059 76.0969397 116.50765 100.814612 102.207537 100.814612 73.6099026"></polygon>
                    <polygon id="Fill6" fill="#F5F8FA" fill-rule="evenodd" points="51.3795259 73.6100322 76.0971983 59.3112148 100.814871 73.6100322 76.0971983 87.9088496"></polygon>
                    <polygon id="Stroke7" stroke="#33475C" stroke-width="1.29310345" stroke-linecap="round" stroke-linejoin="round" points="51.3795259 73.6100322 76.0971983 59.3112148 100.814871 73.6100322 76.0971983 87.9088496"></polygon>
                    <polygon id="Fill8" fill="#CBD6E3" fill-rule="evenodd" points="76.0969397 87.9091087 76.0969397 116.506743 100.814612 102.207926 100.814612 73.6102913"></polygon>
                    <polygon id="Stroke9" stroke="#33475C" stroke-width="1.29310345" stroke-linecap="round" stroke-linejoin="round" points="76.0969397 87.9091087 76.0969397 116.506743 100.814612 102.207926 100.814612 73.6102913"></polygon>
                    <polygon id="Fill10" fill="#9DB2C9" fill-rule="evenodd" points="51.3795259 73.6100322 76.0971983 87.9088496 76.0971983 116.506484 51.3795259 102.207667"></polygon>
                    <polygon id="Stroke11" stroke="#33475C" stroke-width="1.29310345" stroke-linecap="round" stroke-linejoin="round" points="51.3795259 73.6100322 76.0971983 87.9088496 76.0971983 116.506484 51.3795259 102.207667"></polygon>
                    <polygon id="Fill12" fill="#E4EAEF" fill-rule="evenodd" points="26.6615948 59.3110852 51.3792672 45.0122678 76.0969397 59.3110852 51.3792672 73.6099026"></polygon>
                    <polygon id="Stroke13" stroke="#33475C" stroke-width="1.29310345" stroke-linecap="round" stroke-linejoin="round" points="26.6615948 59.3110852 51.3792672 45.0122678 76.0969397 59.3110852 51.3792672 73.6099026"></polygon>
                    <polygon id="Fill14" fill="#CBD6E3" fill-rule="evenodd" points="51.3788793 73.6100322 51.3788793 102.207667 76.0965517 87.9088496 76.0965517 59.3112148"></polygon>
                    <polygon id="Stroke15" stroke="#33475C" stroke-width="1.29310345" stroke-linecap="round" stroke-linejoin="round" points="51.3788793 73.6100322 51.3788793 102.207667 76.0965517 87.9088496 76.0965517 59.3112148"></polygon>
                    <polygon id="Fill16" fill="#9DB2C9" fill-rule="evenodd" points="26.6615948 59.3110852 51.3792672 73.6099026 51.3792672 102.207537 26.6615948 87.90872"></polygon>
                    <polygon id="Stroke17" stroke="#33475C" stroke-width="1.29310345" stroke-linecap="round" stroke-linejoin="round" points="26.6615948 59.3110852 51.3792672 73.6099026 51.3792672 102.207537 26.6615948 87.90872"></polygon>
                    <polygon id="Fill18" fill="#F9D28C" fill-rule="evenodd" points="26.6615948 30.7118957 51.3792672 16.4130783 76.0969397 30.7118957 51.3792672 45.010713"></polygon>
                    <polygon id="Stroke19" stroke="#33475C" stroke-width="1.29310345" stroke-linecap="round" stroke-linejoin="round" points="26.6615948 30.7118957 51.3792672 16.4130783 76.0969397 30.7118957 51.3792672 45.010713"></polygon>
                    <polygon id="Fill20" fill="#F9D28C" fill-rule="evenodd" points="51.3788793 45.0108426 51.3788793 73.6084774 76.0965517 59.30966 76.0965517 30.7120252"></polygon>
                    <polygon id="Stroke21" stroke="#33475C" stroke-width="1.29310345" stroke-linecap="round" stroke-linejoin="round" points="51.3788793 45.0108426 51.3788793 73.6084774 76.0965517 59.30966 76.0965517 30.7120252"></polygon>
                    <polygon id="Fill22" fill="#9DB2C9" fill-rule="evenodd" points="26.6615948 30.7118957 51.3792672 45.010713 51.3792672 73.6083478 26.6615948 59.3095304"></polygon>
                    <polygon id="Stroke23" stroke="#33475C" stroke-width="1.29310345" stroke-linecap="round" stroke-linejoin="round" points="26.6615948 30.7118957 51.3792672 45.010713 51.3792672 73.6083478 26.6615948 59.3095304"></polygon>
                    <polygon id="Fill24" fill="#E4EAEF" fill-rule="evenodd" points="1.93978448 73.6088661 26.6574569 59.3100487 51.3751293 73.6088661 26.6574569 87.9076835"></polygon>
                    <polygon id="Stroke25" stroke="#33475C" stroke-width="1.29310345" stroke-linecap="round" stroke-linejoin="round" points="1.93978448 73.6088661 26.6574569 59.3100487 51.3751293 73.6088661 26.6574569 87.9076835"></polygon>
                    <polygon id="Fill26" fill="#CBD6E3" fill-rule="evenodd" points="26.6571983 87.907813 26.6571983 116.505448 51.3748707 102.20663 51.3748707 73.6089957"></polygon>
                    <polygon id="Stroke27" stroke="#33475C" stroke-width="1.29310345" stroke-linecap="round" stroke-linejoin="round" points="26.6571983 87.907813 26.6571983 116.505448 51.3748707 102.20663 51.3748707 73.6089957"></polygon>
                    <polygon id="Fill28" fill="#EAF0F6" fill-rule="evenodd" points="1.93978448 73.6088661 26.6574569 87.9076835 26.6574569 116.505318 1.93978448 102.206501"></polygon>
                    <polygon id="Stroke29" stroke="#33475C" stroke-width="1.29310345" stroke-linecap="round" stroke-linejoin="round" points="1.93978448 73.6088661 26.6574569 87.9076835 26.6574569 116.505318 1.93978448 102.206501"></polygon>
                    <polygon id="Fill30" fill="#7CD1DF" fill-rule="evenodd" points="1.93978448 45.0108426 26.6574569 30.7120252 51.3751293 45.0108426 26.6574569 59.30966"></polygon>
                    <polygon id="Stroke31" stroke="#33475C" stroke-width="1.29310345" stroke-linecap="round" stroke-linejoin="round" points="1.93978448 45.0108426 26.6574569 30.7120252 51.3751293 45.0108426 26.6574569 59.30966"></polygon>
                    <polygon id="Fill32" fill="#CBD6E3" fill-rule="evenodd" points="26.6571983 59.3097896 26.6571983 87.9074243 51.3748707 73.608607 51.3748707 45.0109722"></polygon>
                    <polygon id="Stroke33" stroke="#33475C" stroke-width="1.29310345" stroke-linecap="round" stroke-linejoin="round" points="26.6571983 59.3097896 26.6571983 87.9074243 51.3748707 73.608607 51.3748707 45.0109722"></polygon>
                    <polygon id="Fill34" fill="#00A4BF" fill-rule="evenodd" points="1.93978448 45.0108426 26.6574569 59.30966 26.6574569 87.9072948 1.93978448 73.6084774"></polygon>
                    <polygon id="Stroke35" stroke="#33475C" stroke-width="1.29310345" stroke-linecap="round" stroke-linejoin="round" points="1.93978448 45.0108426 26.6574569 59.30966 26.6574569 87.9072948 1.93978448 73.6084774"></polygon>
                    <polygon id="Fill36" fill="#E4EAEF" fill-rule="evenodd" points="26.6578448 87.907813 51.3755172 73.6089957 76.0931897 87.907813 51.3755172 102.20663"></polygon>
                    <polygon id="Stroke37" stroke="#33475C" stroke-width="1.29310345" stroke-linecap="round" stroke-linejoin="round" points="26.6578448 87.907813 51.3755172 73.6089957 76.0931897 87.907813 51.3755172 102.20663"></polygon>
                    <polygon id="Fill38" fill="#F77D81" fill-rule="evenodd" points="51.3751293 102.20676 51.3751293 130.804395 76.0928017 116.505577 76.0928017 87.9079426"></polygon>
                    <polygon id="Stroke39" stroke="#33475C" stroke-width="1.29310345" stroke-linecap="round" stroke-linejoin="round" points="51.3751293 102.20676 51.3751293 130.804395 76.0928017 116.505577 76.0928017 87.9079426"></polygon>
                    <polygon id="Fill40" fill="#F55257" fill-rule="evenodd" points="26.6578448 87.907813 51.3755172 102.20663 51.3755172 130.804265 26.6578448 116.505448"></polygon>
                    <polygon id="Stroke41" stroke="#33475C" stroke-width="1.29310345" stroke-linecap="round" stroke-linejoin="round" points="26.6578448 87.907813 51.3755172 102.20663 51.3755172 130.804265 26.6578448 116.505448"></polygon>
                    <polygon id="Fill42" fill="#F5F8FA" fill-rule="evenodd" points="26.6578448 59.3110852 51.3755172 45.0122678 76.0931897 59.3110852 51.3755172 73.6099026"></polygon>
                    <polygon id="Stroke43" stroke="#33475C" stroke-width="1.29310345" stroke-linecap="round" stroke-linejoin="round" points="26.6578448 59.3110852 51.3755172 45.0122678 76.0931897 59.3110852 51.3755172 73.6099026"></polygon>
                    <polygon id="Fill44" fill="#CBD6E3" fill-rule="evenodd" points="51.3751293 73.6100322 51.3751293 102.207667 76.0928017 87.9088496 76.0928017 59.3112148"></polygon>
                    <polygon id="Stroke45" stroke="#33475C" stroke-width="1.29310345" stroke-linecap="round" stroke-linejoin="round" points="51.3751293 73.6100322 51.3751293 102.207667 76.0928017 87.9088496 76.0928017 59.3112148"></polygon>
                    <polygon id="Fill46" fill="#EAF0F6" fill-rule="evenodd" points="26.6578448 59.3110852 51.3755172 73.6099026 51.3755172 102.207537 26.6578448 87.90872"></polygon>
                    <polygon id="Stroke47" stroke="#33475C" stroke-width="1.29310345" stroke-linecap="round" stroke-linejoin="round" points="26.6578448 59.3110852 51.3755172 73.6099026 51.3755172 102.207537 26.6578448 87.90872"></polygon>
                    <polygon id="Fill48" fill="#00BEA5" fill-rule="evenodd" points="124.792888 1.64821478 100.075216 15.9470322 100.075216 44.544667 124.792888 58.84478 149.51056 44.544667 149.51056 15.9470322"></polygon>
                    <polygon id="Stroke49" stroke="#33475C" stroke-width="6.46551724" stroke-linecap="round" stroke-linejoin="round" points="124.792888 1.64821478 100.075216 15.9470322 100.075216 44.544667 124.792888 58.84478 149.51056 44.544667 149.51056 15.9470322"></polygon>
                    <polygon id="Fill51" fill="#FFC7AA" fill-rule="evenodd" points="100.074828 15.9472913 124.7925 1.64847391 149.510172 15.9472913 124.7925 30.2461087"></polygon>
                    <polygon id="Stroke52" stroke="#33475C" stroke-width="1.29310345" stroke-linecap="round" stroke-linejoin="round" points="100.074828 15.9472913 124.7925 1.64847391 149.510172 15.9472913 124.7925 30.2461087"></polygon>
                    <polygon id="Fill53" fill="#FFAB7D" fill-rule="evenodd" points="124.792888 30.2462383 124.792888 58.843873 149.51056 44.5450557 149.51056 15.9474209"></polygon>
                    <polygon id="Stroke54" stroke="#33475C" stroke-width="1.29310345" stroke-linecap="round" stroke-linejoin="round" points="124.792888 30.2462383 124.792888 58.843873 149.51056 44.5450557 149.51056 15.9474209"></polygon>
                    <polygon id="Fill55" fill="#FF8F52" fill-rule="evenodd" points="100.074828 15.9472913 124.7925 30.2461087 124.7925 58.8437435 100.074828 44.5449261"></polygon>
                    <polygon id="Stroke56" stroke="#33475C" stroke-width="1.29310345" stroke-linecap="round" stroke-linejoin="round" points="100.074828 15.9472913 124.7925 30.2461087 124.7925 58.8437435 100.074828 44.5449261"></polygon>
                    <path d="M77.3337931,58.5721748 L112.916121,37.39474" id="Stroke57" stroke="#33475C" stroke-width="1.29310345" stroke-linecap="round" stroke-linejoin="round" stroke-dasharray="2.586206896551724,3.879310344827586,0,0"></path>
                    <path d="M133.433534,14.5035461 C133.530517,14.9945983 133.251207,15.4856504 132.66931,15.8471374 L132.573621,15.9028504 C132.237414,16.1010852 131.821034,16.2487896 131.363276,16.3317113 C130.838276,16.4314765 130.278362,16.4496157 129.736552,16.3861287 C129.206379,16.3433722 128.713707,16.2034417 128.328362,15.9883635 L128.213276,15.9235809 C127.840862,15.7136852 127.565431,15.4519635 127.415431,15.1643287 C127.244741,14.8520765 127.218879,14.5177983 127.340431,14.1977722 C127.445172,13.881633 127.714138,13.5901113 128.108534,13.3633722 L128.146034,13.3426417 C128.502931,13.1314504 128.941293,12.9733809 129.424914,12.8826852 C129.929224,12.7932852 130.464569,12.7777374 130.98181,12.8412243 C131.496466,12.906007 131.978793,13.0394591 132.386121,13.2325113 C132.471466,13.2739722 132.542586,13.3115461 132.618879,13.3555983 C133.137414,13.6639635 133.428362,14.0746852 133.433534,14.5035461 M132.020172,11.3447461 C131.029655,11.1957461 129.987414,11.1983374 128.999483,11.3512243 C128.250776,11.4626504 127.548621,11.6595896 126.93569,11.9316765 L124.946897,10.7811374 C125.271466,10.3276591 125.083966,9.8055113 124.474914,9.46345913 C123.651207,8.98018087 122.307672,8.97499826 121.472328,9.45179826 C120.638276,9.92859826 120.629224,10.7046939 121.451638,11.1879722 C121.458103,11.1918591 121.465862,11.1957461 121.472328,11.199633 C122.064569,11.5533461 122.967155,11.6608852 123.752069,11.47172 L125.740862,12.6235548 C125.329655,12.9306243 125.012845,13.2778591 124.805948,13.6484157 C123.285259,13.7689113 118.287414,14.1679722 115.371466,14.3998939 C115.26931,14.2923548 115.141293,14.1938852 114.993879,14.1057809 C114.06931,13.5706765 112.56931,13.5693809 111.643448,14.1044852 C110.717586,14.6395896 110.716293,15.5063809 111.640862,16.0427809 C112.565431,16.5791809 114.064138,16.5804765 114.991293,16.0440765 C115.292586,15.8691635 115.505948,15.6489026 115.605517,15.4066157 L116.219741,15.3573809 L124.491724,14.5812852 C124.472328,14.865033 124.516293,15.1487809 124.624914,15.4260504 C124.83181,15.9961374 125.318017,16.5208765 126.025345,16.9341896 L126.177931,17.0222939 C126.668017,17.3099287 127.240862,17.5457374 127.87319,17.7167635 C128.408534,17.8605809 128.982672,17.9512765 129.569741,17.9862591 L129.569741,19.8377461 C128.654224,20.0826243 128.255948,20.7110157 128.680086,21.2396417 C129.102931,21.7695635 130.189138,22.0001896 131.104655,21.756607 C132.020172,21.510433 132.418448,20.8833374 131.995603,20.3534157 C131.824914,20.1422243 131.539138,19.9673113 131.182241,19.8597722 L131.180948,17.9512765 C131.568879,17.90852 131.946466,17.8424417 132.311121,17.7569287 C133.086983,17.58072 133.793017,17.31252 134.381379,16.9704678 L134.496466,16.9056852 C135.920172,16.0842417 136.512414,14.8961287 136.062414,13.7637287 C135.846466,13.1845722 135.347328,12.6533548 134.627069,12.2348591 L134.589569,12.212833 C133.882241,11.7969287 132.995172,11.497633 132.020172,11.3447461" id="Fill58" fill="#FF8F52" fill-rule="evenodd"></path>
                </g>
            </g>
        </g>
    </g>
</svg>