<svg viewBox="0 0 62 99" xmlns="http://www.w3.org/2000/svg">
    <title>
        Page 1
    </title>
    <g fill="none" fill-rule="evenodd">
        <path d="M35.63 65.707c-1.97-1.136-5.188-1.136-7.155 0L4.048 79.81c-1.968 1.135-1.968 2.994 0 4.13l24.427 14.103c1.967 1.136 5.186 1.136 7.154 0L60.055 83.94c1.967-1.136 1.967-2.995 0-4.13L35.63 65.707z" fill-opacity=".2" fill="#FF8F52"/>
        <path d="M16.574 54.208c8.684 5.015 22.896 5.015 31.58 0 8.686-5.014 8.686-13.22 0-18.233-8.684-5.014-22.896-5.014-31.58 0-8.685 5.014-8.685 13.22 0 18.233z" stroke="#33475C" stroke-width="5"/>
        <path d="M16.574 54.208c8.684 5.015 22.896 5.015 31.58 0 8.686-5.014 8.686-13.22 0-18.233-8.684-5.014-22.896-5.014-31.58 0-8.685 5.014-8.685 13.22 0 18.233z" stroke="#33475C" stroke-width="5"/>
        <path d="M18.527 52.385c7.61 4.01 20.064 4.01 27.674 0 7.612-4.01 7.612-10.576 0-14.587-7.61-4.012-20.063-4.012-27.673 0-7.61 4.01-7.61 10.576 0 14.587z" stroke="#33475C" stroke-width="5"/>
        <path d="M18.527 52.385c7.61 4.01 20.064 4.01 27.674 0 7.612-4.01 7.612-10.576 0-14.587-7.61-4.012-20.063-4.012-27.673 0-7.61 4.01-7.61 10.576 0 14.587z" stroke="#33475C" stroke-width="5"/>
        <path d="M16.574 54.208a18.926 18.926 0 0 1-1.614-1.04l-.105.048L27.922 67.44h.1c.195.43.565.84 1.147 1.175 1.757 1.015 4.632 1.015 6.39 0 .58-.336.952-.745 1.15-1.175h.097l13.067-14.224-.106-.05c-.5.36-1.036.71-1.613 1.042-8.685 5.015-22.897 5.015-31.58 0z" stroke="#33475C" stroke-width="5"/>
        <path d="M36.807 67.44h-.1c-.195.43-.566.84-1.147 1.176-1.758 1.014-4.634 1.014-6.39 0-.582-.337-.953-.745-1.15-1.177h-.098l-.07-.077v8.602c0 .67.44 1.337 1.317 1.844 1.756 1.014 4.632 1.014 6.39 0 .878-.508 1.317-1.176 1.317-1.845v-8.602l-.07.076z" stroke="#33475C" stroke-width="5"/>
        <path d="M16.574 54.208c8.684 5.015 22.896 5.015 31.58 0 8.686-5.014 8.686-13.22 0-18.233-8.684-5.014-22.896-5.014-31.58 0-8.685 5.014-8.685 13.22 0 18.233" fill="#FFF"/>
        <path d="M16.574 54.208c8.684 5.015 22.896 5.015 31.58 0 8.686-5.014 8.686-13.22 0-18.233-8.684-5.014-22.896-5.014-31.58 0-8.685 5.014-8.685 13.22 0 18.233" fill="#E4EBEF"/>
        <path d="M16.574 54.208c8.684 5.015 22.896 5.015 31.58 0 8.686-5.014 8.686-13.22 0-18.233-8.684-5.014-22.896-5.014-31.58 0-8.685 5.014-8.685 13.22 0 18.233z" stroke="#33475C" stroke-linecap="round" stroke-linejoin="round"/>
        <path d="M18.527 52.385c7.61 4.01 20.064 4.01 27.674 0 7.612-4.01 7.612-10.576 0-14.587-7.61-4.012-20.063-4.012-27.673 0-7.61 4.01-7.61 10.576 0 14.587" fill="#CBD6E3"/>
        <path d="M18.527 52.385c7.61 4.01 20.064 4.01 27.674 0 7.612-4.01 7.612-10.576 0-14.587-7.61-4.012-20.063-4.012-27.673 0-7.61 4.01-7.61 10.576 0 14.587z" stroke="#33475C" stroke-linecap="round" stroke-linejoin="round"/>
        <path d="M18.527 52.385c7.61 4.01 20.064 4.01 27.674 0 7.612-4.01 7.612-10.576 0-14.587-7.61-4.012-20.063-4.012-27.673 0-7.61 4.01-7.61 10.576 0 14.587z" stroke="#33475C" stroke-linecap="round" stroke-linejoin="round"/>
        <path d="M16.574 54.208a18.926 18.926 0 0 1-1.614-1.04l-.105.048L27.922 67.44h.1c.195.43.565.84 1.147 1.175 1.757 1.015 4.632 1.015 6.39 0 .58-.336.952-.745 1.15-1.175h.097l13.067-14.224-.106-.05c-.5.36-1.036.71-1.613 1.042-8.685 5.015-22.897 5.015-31.58 0" fill="#9DB2C9"/>
        <path d="M16.574 54.208a18.926 18.926 0 0 1-1.614-1.04l-.105.048L27.922 67.44h.1c.195.43.565.84 1.147 1.175 1.757 1.015 4.632 1.015 6.39 0 .58-.336.952-.745 1.15-1.175h.097l13.067-14.224-.106-.05c-.5.36-1.036.71-1.613 1.042-8.685 5.015-22.897 5.015-31.58 0z" stroke="#33475C" stroke-linecap="round" stroke-linejoin="round"/>
        <path d="M36.807 67.44h-.1c-.195.43-.566.84-1.147 1.176-1.758 1.014-4.634 1.014-6.39 0-.582-.337-.953-.745-1.15-1.177h-.098l-.07-.077v8.602c0 .67.44 1.337 1.317 1.844 1.756 1.014 4.632 1.014 6.39 0 .878-.508 1.317-1.176 1.317-1.845v-8.602l-.07.076z" fill="#CBD6E3"/>
        <path d="M36.807 67.44h-.1c-.195.43-.566.84-1.147 1.176-1.758 1.014-4.634 1.014-6.39 0-.582-.337-.953-.745-1.15-1.177h-.098l-.07-.077v8.602c0 .67.44 1.337 1.317 1.844 1.756 1.014 4.632 1.014 6.39 0 .878-.508 1.317-1.176 1.317-1.845v-8.602l-.07.076z" stroke="#33475C" stroke-linecap="round" stroke-linejoin="round"/>
        <path d="M37.08 12.54a8.54 8.54 0 1 1-17.08.002 8.54 8.54 0 0 1 17.08-.002zm-18.417 9.294a7.09 7.09 0 1 1-14.182 0 7.09 7.09 0 1 1 14.183.001zm30.07-5.561a4.543 4.543 0 1 1-9.087.001 4.543 4.543 0 0 1 9.087-.001zm4.331 12.657a5.356 5.356 0 1 1-10.71.001 5.356 5.356 0 0 1 10.708-.003zm-13.418.698a5.954 5.954 0 1 1-11.909 0 5.954 5.954 0 0 1 11.909 0zm-14.339 2.474a4.32 4.32 0 1 1-8.64 0 4.32 4.32 0 0 1 8.64 0zm10.31 11.558a6.137 6.137 0 1 1-6.135-6.136 6.136 6.136 0 0 1 6.137 6.136zm9.443-4.234a3.591 3.591 0 1 1-7.185.001 3.591 3.591 0 0 1 7.186-.001z" stroke="#FFF" stroke-width="8"/>
        <path d="M37.08 12.54a8.54 8.54 0 1 1-17.08.002 8.54 8.54 0 0 1 17.08-.002" fill="#506E91"/>
        <path d="M18.663 21.834a7.09 7.09 0 1 1-14.182 0 7.09 7.09 0 1 1 14.183.001" fill="#6976D4"/>
        <path d="M48.733 16.273a4.543 4.543 0 1 1-9.087.001 4.543 4.543 0 0 1 9.087-.001" fill="#BDEEE8"/>
        <path d="M53.064 28.93a5.356 5.356 0 1 1-10.71.001 5.356 5.356 0 0 1 10.708-.003" fill="#01A4BF"/>
        <path d="M39.646 29.628a5.954 5.954 0 1 1-11.909 0 5.954 5.954 0 0 1 11.909 0" fill="#FF7A52"/>
        <path d="M25.307 32.102a4.32 4.32 0 1 1-8.64 0 4.32 4.32 0 0 1 8.64 0" fill="#D9DCF4"/>
        <path d="M35.617 43.66a6.137 6.137 0 1 1-6.135-6.136 6.136 6.136 0 0 1 6.137 6.136" fill="#40CEBB"/>
        <path d="M45.06 39.426a3.591 3.591 0 1 1-7.185.001 3.591 3.591 0 0 1 7.186-.001" fill="#BDE8EF"/>
    </g>
</svg>
