<svg viewBox="0 0 213 177" xmlns="http://www.w3.org/2000/svg">
    <title>
        Page 1
    </title>
    <g fill="none" fill-rule="evenodd">
        <path d="M113.033 56.863c-3.698-2.135-9.75-2.135-13.447 0L2.76 112.765c-3.697 2.135-3.678 5.595.043 7.69l96.74 54.447c3.722 2.095 9.81 2.095 13.532 0l96.74-54.447c3.722-2.095 3.74-5.555.043-7.69l-96.825-55.902z" fill="#F9D28C" opacity=".5"/>
        <path stroke="#33475C" stroke-width="5" stroke-linecap="round" stroke-linejoin="round" d="M66.35 78.353l9.558 5.518V49.654z"/>
        <path d="M66.955 78.123l8.454 4.88V52.738l-8.455 25.386zm8.954 6.247a.488.488 0 0 1-.25-.067l-9.56-5.518a.5.5 0 0 1-.223-.59l9.557-28.7a.496.496 0 0 1 .555-.335c.24.04.42.248.42.493V83.87a.502.502 0 0 1-.5.5z" stroke="#33475C" stroke-width="5" stroke-linecap="round" stroke-linejoin="round"/>
        <path stroke="#33475C" stroke-width="5" stroke-linecap="round" stroke-linejoin="round" d="M75.91 49.654V83.87l9.557 5.52z"/>
        <path d="M76.41 83.58l8.298 4.793-8.3-34.503v29.71zm9.057 6.31a.49.49 0 0 1-.25-.07l-9.558-5.517a.498.498 0 0 1-.25-.433V49.653c0-.253.188-.467.44-.496.25-.04.486.133.545.38l9.558 39.734a.505.505 0 0 1-.487.62z" stroke="#33475C" stroke-width="5" stroke-linecap="round" stroke-linejoin="round"/>
        <path d="M40.237 116.002a.5.5 0 0 1-.25-.933l44.48-25.68L66.35 78.93l-44.98 25.968a.5.5 0 1 1-.501-.865L66.103 77.92a.497.497 0 0 1 .5 0l19.114 11.036a.5.5 0 0 1 0 .863l-45.23 26.115a.489.489 0 0 1-.25.067z" stroke="#33475C" stroke-width="5" stroke-linecap="round" stroke-linejoin="round"/>
        <path stroke="#33475C" stroke-width="5" stroke-linecap="round" stroke-linejoin="round" d="M40.236 115.502l-9.558-39.735-9.557 28.7 9.778-.356z"/>
        <path d="M31.128 103.602l8.112 9.896-8.64-35.915-8.777 26.358 9.305-.338zm8.722 12.218l-9.18-11.2-10.25.372 10.336-31.04 9.967 41.433-.873.435z" stroke="#33475C" stroke-width="5" stroke-linecap="round" stroke-linejoin="round"/>
        <path stroke="#33475C" stroke-width="5" stroke-linecap="round" stroke-linejoin="round" d="M85.466 89.39l-45.23 26.113-9.558-39.735 45.23-26.114z"/>
        <path d="M31.252 76.014l9.313 38.72 44.327-25.59L75.58 50.42 31.25 76.015zm8.984 39.988a.5.5 0 0 1-.487-.383l-9.558-39.735a.499.499 0 0 1 .236-.55l45.23-26.114a.503.503 0 0 1 .738.315l9.556 39.737a.499.499 0 0 1-.236.55l-45.23 26.113a.496.496 0 0 1-.25.067z" stroke="#33475C" stroke-width="5" stroke-linecap="round" stroke-linejoin="round"/>
        <path d="M40.236 115.502l49.13-34.677s-5.386 2.387-6.676-2.98l-42.454 37.657z" stroke="#33475C" stroke-width="5" stroke-linecap="round" stroke-linejoin="round"/>
        <path d="M82.435 78.742l-35.13 31.16 39.742-28.053c-.76.034-1.61-.067-2.4-.458-1.02-.503-1.76-1.392-2.212-2.65zm-42.198 37.26a.5.5 0 0 1-.333-.873L82.36 77.472a.502.502 0 0 1 .817.258c.33 1.37.973 2.302 1.912 2.766 1.77.873 4.05-.118 4.073-.128a.5.5 0 0 1 .492.865l-49.13 34.678a.496.496 0 0 1-.287.093z" stroke="#33475C" stroke-width="5" stroke-linecap="round" stroke-linejoin="round"/>
        <path stroke="#33475C" stroke-width="5" stroke-linecap="round" stroke-linejoin="round" d="M40.236 115.502l45.23-26.114-1.638-6.81-17.477-4.226-45.23 26.114 9.778-.355z"/>
        <path d="M31.128 103.602l9.226 11.255 44.54-25.714-1.48-6.15-16.986-4.107-43.315 25.008 8.015-.292zm8.99 12.546l-9.45-11.528-9.53.346-.267-.932L66.276 77.82l17.968 4.345 1.797 7.47-45.92 26.513z" stroke="#33475C" stroke-width="5" stroke-linecap="round" stroke-linejoin="round"/>
        <path stroke="#33475C" stroke-width="5" stroke-linecap="round" stroke-linejoin="round" d="M71.13 80.883L30.898 104.11l9.338 11.392 14.13-14.51z"/>
        <path d="M31.66 104.25l8.61 10.502 13.74-14.11 14.938-17.92-37.29 21.527zm8.544 12.002l-10.066-12.28L70.88 80.45l.634.753-16.762 20.108-14.548 14.942z" stroke="#33475C" stroke-width="5" stroke-linecap="round" stroke-linejoin="round"/>
        <path stroke="#33475C" stroke-width="5" stroke-linecap="round" stroke-linejoin="round" d="M40.236 115.502l-9.338-11.39-9.777.354 9.778-.355z"/>
        <path d="M40.237 116.002a.497.497 0 0 1-.387-.183l-9.18-11.2-9.53.346c-.257-.01-.508-.206-.518-.482v-.018c0-.268.21-.49.48-.5l9.78-.356a.5.5 0 0 1 .403.183l9.338 11.392a.502.502 0 0 1-.07.704.5.5 0 0 1-.316.112z" stroke="#33475C" stroke-width="5" stroke-linecap="round" stroke-linejoin="round"/>
        <path d="M82.69 77.847l-6.78-28.193-45.232 26.114 9.558 39.734 49.13-34.677s-5.385 2.387-6.676-2.978z" stroke="#33475C" stroke-width="5" stroke-linecap="round" stroke-linejoin="round"/>
        <path d="M31.252 76.014l9.298 38.655 46.497-32.82c-.76.033-1.61-.067-2.4-.458-1.22-.602-2.04-1.755-2.443-3.428L75.58 50.42 31.25 76.015zm8.984 39.988a.507.507 0 0 1-.486-.382l-9.558-39.735a.499.499 0 0 1 .236-.55l45.23-26.114a.503.503 0 0 1 .738.315l6.78 28.195c.33 1.37.973 2.302 1.912 2.765 1.77.873 4.052-.118 4.075-.127a.499.499 0 1 1 .49.865l-49.13 34.677a.495.495 0 0 1-.287.092z" stroke="#33475C" stroke-width="5" stroke-linecap="round" stroke-linejoin="round"/>
        <path d="M82.71 78.347c-.276 0-.505-.224-.505-.5s.22-.5.495-.5h.01a.5.5 0 0 1 0 1z" stroke="#33475C" stroke-width="5" stroke-linecap="round" stroke-linejoin="round"/>
        <path stroke="#33475C" stroke-width="5" stroke-linecap="round" stroke-linejoin="round" d="M82.69 77.847l-6.78-28.193-45.232 26.114"/>
        <path d="M82.69 78.347a.501.501 0 0 1-.486-.383L75.58 50.42 30.93 76.2a.502.502 0 0 1-.684-.182.498.498 0 0 1 .183-.683L75.66 49.22c.136-.08.3-.09.446-.025.145.06.252.188.29.34l6.78 28.195a.498.498 0 0 1-.486.617z" stroke="#33475C" stroke-width="5" stroke-linecap="round" stroke-linejoin="round"/>
        <path stroke="#33475C" stroke-width="5" stroke-linecap="round" stroke-linejoin="round" d="M31.252 76.014l3.08 12.8 44.326-25.592-3.08-12.8z"/>
        <path d="M35.932 79.104a.998.998 0 0 1-.865-1.5c.71-1.23.71-3.39 0-4.62-.235-.406-.525-.66-.756-.66-.232 0-.522.254-.756.66-.254.44-.426 1.014-.497 1.66a1 1 0 0 1-1.988-.221c.1-.917.36-1.76.752-2.438.61-1.055 1.516-1.66 2.49-1.66.97 0 1.878.605 2.487 1.66 1.07 1.855 1.07 4.763 0 6.62-.186.32-.522.5-.868.5z" stroke="#33475C" stroke-width="5" stroke-linecap="round" stroke-linejoin="round"/>
        <path d="M41.35 76.028a.998.998 0 0 1-.866-1.5c.71-1.23.71-3.39 0-4.62-.235-.406-.524-.66-.756-.66-.232 0-.522.254-.756.66-.255.44-.427 1.015-.498 1.66a.992.992 0 0 1-1.104.883.999.999 0 0 1-.884-1.103c.1-.917.362-1.76.754-2.44.61-1.053 1.516-1.658 2.488-1.658.974 0 1.88.604 2.488 1.66 1.07 1.854 1.07 4.762 0 6.618a1 1 0 0 1-.867.5z" stroke="#33475C" stroke-width="5" stroke-linecap="round" stroke-linejoin="round"/>
        <path d="M46.767 72.952a.998.998 0 0 1-.865-1.5c.71-1.23.71-3.39 0-4.62-.235-.406-.525-.66-.756-.66-.233 0-.522.254-.756.66-.255.44-.427 1.015-.498 1.66a.991.991 0 0 1-1.104.883 1 1 0 0 1-.884-1.104c.1-.916.362-1.76.754-2.438.608-1.054 1.514-1.658 2.487-1.66.973 0 1.88.606 2.49 1.66 1.07 1.856 1.07 4.764 0 6.62-.186.32-.522.5-.868.5z" stroke="#33475C" stroke-width="5" stroke-linecap="round" stroke-linejoin="round"/>
        <path d="M52.185 69.876a.998.998 0 0 1-.865-1.5c.71-1.23.71-3.39 0-4.62-.235-.406-.525-.66-.756-.66-.233 0-.523.254-.757.66-.255.443-.427 1.016-.497 1.657-.06.548-.558.944-1.103.886a1.002 1.002 0 0 1-.885-1.104c.1-.914.36-1.757.753-2.44.61-1.054 1.516-1.66 2.49-1.66.97 0 1.878.606 2.487 1.66 1.07 1.856 1.07 4.764 0 6.62a1 1 0 0 1-.867.5z" stroke="#33475C" stroke-width="5" stroke-linecap="round" stroke-linejoin="round"/>
        <path d="M57.602 66.8a.998.998 0 0 1-.865-1.5c.71-1.23.71-3.39 0-4.62-.235-.406-.524-.658-.756-.658-.23 0-.52.252-.755.66-.255.44-.427 1.013-.498 1.657a.99.99 0 0 1-1.104.883 1 1 0 0 1-.884-1.104c.1-.918.36-1.76.753-2.44.61-1.054 1.516-1.658 2.488-1.658h.002c.973 0 1.88.605 2.487 1.66 1.07 1.854 1.07 4.762 0 6.618-.186.32-.522.5-.868.5z" stroke="#33475C" stroke-width="5" stroke-linecap="round" stroke-linejoin="round"/>
        <path d="M63.02 63.724a.997.997 0 0 1-.865-1.499c.71-1.23.71-3.39 0-4.62-.235-.406-.525-.66-.756-.66-.234 0-.523.254-.757.66-.255.44-.427 1.016-.498 1.66a.996.996 0 0 1-1.104.883.999.999 0 0 1-.883-1.103c.1-.917.362-1.76.754-2.44.61-1.053 1.515-1.657 2.488-1.66.973 0 1.88.606 2.49 1.66 1.07 1.858 1.07 4.766 0 6.62a1 1 0 0 1-.868.5zm-16.253 9.228a.998.998 0 0 1-.865-1.5c.71-1.23.71-3.39 0-4.62-.235-.406-.525-.66-.756-.66-.233 0-.522.254-.756.66-.255.44-.427 1.015-.498 1.66a.991.991 0 0 1-1.104.883 1 1 0 0 1-.884-1.104c.1-.916.362-1.76.754-2.438.608-1.054 1.514-1.658 2.487-1.66.973 0 1.88.606 2.49 1.66 1.07 1.856 1.07 4.764 0 6.62-.186.32-.522.5-.868.5z" stroke="#33475C" stroke-width="5" stroke-linecap="round" stroke-linejoin="round"/>
        <path d="M68.437 60.65a1 1 0 0 1-.865-1.501c.71-1.23.71-3.39 0-4.62-.234-.407-.524-.66-.755-.66-.233 0-.523.253-.757.66-.255.442-.427 1.015-.497 1.657a1 1 0 1 1-1.988-.217c.1-.915.36-1.758.753-2.44.61-1.055 1.516-1.66 2.49-1.66.97 0 1.878.605 2.487 1.66 1.07 1.856 1.07 4.764 0 6.62-.186.32-.522.5-.868.5zm-16.252 9.226a.998.998 0 0 1-.865-1.5c.71-1.23.71-3.39 0-4.62-.235-.406-.525-.66-.756-.66-.233 0-.523.254-.757.66-.255.443-.427 1.016-.497 1.657-.06.548-.558.944-1.103.886a1.002 1.002 0 0 1-.885-1.104c.1-.914.36-1.757.753-2.44.61-1.054 1.516-1.66 2.49-1.66.97 0 1.878.606 2.487 1.66 1.07 1.856 1.07 4.764 0 6.62a1 1 0 0 1-.867.5z" stroke="#33475C" stroke-width="5" stroke-linecap="round" stroke-linejoin="round"/>
        <path d="M73.855 57.573a.998.998 0 0 1-.865-1.501c.71-1.23.71-3.39 0-4.62-.235-.406-.525-.66-.756-.66-.233 0-.522.254-.756.66-.255.44-.427 1.015-.498 1.66a1 1 0 0 1-1.988-.221c.1-.917.362-1.76.754-2.44.608-1.053 1.514-1.657 2.487-1.658.973 0 1.88.605 2.49 1.66 1.07 1.855 1.07 4.763 0 6.62-.186.32-.522.5-.868.5zm10.791 23.819c-1.02-.503-1.76-1.393-2.212-2.65l-35.13 31.16 39.743-28.053c-.764.03-1.612-.07-2.4-.458zM39.75 95.02l35.64-20.577M39.75 95.52a.501.501 0 0 1-.249-.933L75.14 74.01a.5.5 0 0 1 .499.866L40 95.453a.491.491 0 0 1-.25.067zm1.612 5.673l21.96-12.68m-21.96 13.18a.5.5 0 0 1-.25-.933l21.96-12.68a.5.5 0 1 1 .501.866l-21.96 12.68a.5.5 0 0 1-.25.067zm1.318-13.925l4.087 16.996" stroke="#33475C" stroke-width="5" stroke-linecap="round" stroke-linejoin="round"/>
        <path d="M46.766 105.263a.501.501 0 0 1-.486-.383l-4.088-16.995a.5.5 0 1 1 .973-.233l4.088 16.994a.5.5 0 0 1-.487.616zm1.879-21.393l3.698 15.373m-.001.5a.5.5 0 0 1-.486-.382l-3.698-15.373a.5.5 0 0 1 .37-.602c.27-.06.54.1.603.368l3.7 15.373a.502.502 0 0 1-.488.616zm2.474-18.959l3.256 13.538m0 .5a.501.501 0 0 1-.486-.383L54.33 80.9a.498.498 0 0 1 .37-.602c.267-.058.538.1.602.37l3.257 13.537a.502.502 0 0 1-.488.617z" stroke="#33475C" stroke-width="5" stroke-linecap="round" stroke-linejoin="round"/>
        <path fill="#FFF" d="M66.35 78.352l9.558 5.518V49.653"/>
        <path d="M66.955 78.123l8.454 4.88V52.738l-8.455 25.386zm8.954 6.247a.488.488 0 0 1-.25-.067l-9.56-5.518a.5.5 0 0 1-.223-.59l9.557-28.7a.496.496 0 0 1 .555-.335c.24.04.42.248.42.493V83.87a.502.502 0 0 1-.5.5z" fill="#33475C"/>
        <path fill="#FFF" d="M75.91 49.654V83.87l9.557 5.52"/>
        <path d="M76.41 83.58l8.298 4.793-8.3-34.503v29.71zm9.057 6.31a.49.49 0 0 1-.25-.07l-9.558-5.517a.498.498 0 0 1-.25-.433V49.653c0-.253.188-.467.44-.496.25-.04.486.133.545.38l9.558 39.734a.505.505 0 0 1-.487.62z" fill="#33475C"/>
        <path d="M40.237 116.002a.5.5 0 0 1-.25-.933l44.48-25.68L66.35 78.93l-44.98 25.968a.5.5 0 1 1-.501-.865L66.103 77.92a.497.497 0 0 1 .5 0l19.114 11.036a.5.5 0 0 1 0 .863l-45.23 26.115a.489.489 0 0 1-.25.067" fill="#33475C"/>
        <path fill="#E6EFF7" d="M40.236 115.502l-9.558-39.735-9.557 28.7 9.778-.356"/>
        <path d="M31.128 103.602l8.112 9.896-8.64-35.915-8.777 26.358 9.305-.338zm8.722 12.218l-9.18-11.2-10.25.372 10.336-31.04 9.967 41.433-.873.435z" fill="#33475C"/>
        <path fill="#FFF" d="M85.466 89.39l-45.23 26.113-9.558-39.735 45.23-26.114"/>
        <path d="M31.252 76.014l9.313 38.72 44.327-25.59L75.58 50.42 31.25 76.015zm8.984 39.988a.5.5 0 0 1-.487-.383l-9.558-39.735a.499.499 0 0 1 .236-.55l45.23-26.114a.503.503 0 0 1 .738.315l9.556 39.737a.499.499 0 0 1-.236.55l-45.23 26.113a.496.496 0 0 1-.25.067z" fill="#33475C"/>
        <path d="M40.236 115.502l49.13-34.677s-5.386 2.387-6.676-2.98l-42.454 37.657z" fill="#FFF"/>
        <path d="M82.435 78.742l-35.13 31.16 39.742-28.053c-.76.034-1.61-.067-2.4-.458-1.02-.503-1.76-1.392-2.212-2.65m-42.198 37.26a.5.5 0 0 1-.333-.873L82.36 77.472a.502.502 0 0 1 .817.258c.33 1.37.973 2.302 1.912 2.766 1.77.873 4.05-.118 4.073-.128a.5.5 0 0 1 .492.865l-49.13 34.678a.496.496 0 0 1-.287.093" fill="#33475C"/>
        <path fill="#D4E7F8" d="M40.236 115.502l45.23-26.114-1.638-6.81-17.477-4.226-45.23 26.114 9.778-.355"/>
        <path d="M31.128 103.602l9.226 11.255 44.54-25.714-1.48-6.15-16.986-4.107-43.315 25.008 8.015-.292zm8.99 12.546l-9.45-11.528-9.53.346-.267-.932L66.276 77.82l17.968 4.345 1.797 7.47-45.92 26.513z" fill="#33475C"/>
        <path fill="#E6EFF7" d="M71.13 80.883L30.898 104.11l9.338 11.392 14.13-14.51"/>
        <path d="M31.66 104.25l8.61 10.502 13.74-14.11 14.938-17.92-37.29 21.527zm8.544 12.002l-10.066-12.28L70.88 80.45l.634.753-16.762 20.108-14.548 14.942z" fill="#33475C"/>
        <path fill="#FFF" d="M40.236 115.502l-9.338-11.39-9.777.354 9.778-.355"/>
        <path d="M40.237 116.002a.497.497 0 0 1-.387-.183l-9.18-11.2-9.53.346c-.257-.01-.508-.206-.518-.482v-.018c0-.268.21-.49.48-.5l9.78-.356a.5.5 0 0 1 .403.183l9.338 11.392a.502.502 0 0 1-.07.704.5.5 0 0 1-.316.112" fill="#33475C"/>
        <path d="M82.69 77.847l-6.78-28.193-45.232 26.114 9.558 39.734 49.13-34.677s-5.385 2.387-6.676-2.978" fill="#FFF"/>
        <path d="M31.252 76.014l9.298 38.655 46.497-32.82c-.76.033-1.61-.067-2.4-.458-1.22-.602-2.04-1.755-2.443-3.428L75.58 50.42 31.25 76.015zm8.984 39.988a.507.507 0 0 1-.486-.382l-9.558-39.735a.499.499 0 0 1 .236-.55l45.23-26.114a.503.503 0 0 1 .738.315l6.78 28.195c.33 1.37.973 2.302 1.912 2.765 1.77.873 4.052-.118 4.075-.127a.499.499 0 1 1 .49.865l-49.13 34.677a.495.495 0 0 1-.287.092z" fill="#33475C"/>
        <path d="M82.71 78.347c-.276 0-.505-.224-.505-.5s.22-.5.495-.5h.01a.5.5 0 0 1 0 1" fill="#33475C"/>
        <path fill="#FFF" d="M82.69 77.847l-6.78-28.193-45.232 26.114"/>
        <path d="M82.69 78.347a.501.501 0 0 1-.486-.383L75.58 50.42 30.93 76.2a.502.502 0 0 1-.684-.182.498.498 0 0 1 .183-.683L75.66 49.22c.136-.08.3-.09.446-.025.145.06.252.188.29.34l6.78 28.195a.498.498 0 0 1-.486.617" fill="#33475C"/>
        <path fill="#F65257" d="M31.252 76.014l3.08 12.8 44.326-25.592-3.08-12.8"/>
        <path d="M35.932 79.104a.998.998 0 0 1-.865-1.5c.71-1.23.71-3.39 0-4.62-.235-.406-.525-.66-.756-.66-.232 0-.522.254-.756.66-.254.44-.426 1.014-.497 1.66a1 1 0 0 1-1.988-.221c.1-.917.36-1.76.752-2.438.61-1.055 1.516-1.66 2.49-1.66.97 0 1.878.605 2.487 1.66 1.07 1.855 1.07 4.763 0 6.62-.186.32-.522.5-.868.5" fill="#F7C364"/>
        <path d="M41.35 76.028a.998.998 0 0 1-.866-1.5c.71-1.23.71-3.39 0-4.62-.235-.406-.524-.66-.756-.66-.232 0-.522.254-.756.66-.255.44-.427 1.015-.498 1.66a.992.992 0 0 1-1.104.883.999.999 0 0 1-.884-1.103c.1-.917.362-1.76.754-2.44.61-1.053 1.516-1.658 2.488-1.658.974 0 1.88.604 2.488 1.66 1.07 1.854 1.07 4.762 0 6.618a1 1 0 0 1-.867.5" fill="#F7C364"/>
        <path d="M46.767 72.952a.998.998 0 0 1-.865-1.5c.71-1.23.71-3.39 0-4.62-.235-.406-.525-.66-.756-.66-.233 0-.522.254-.756.66-.255.44-.427 1.015-.498 1.66a.991.991 0 0 1-1.104.883 1 1 0 0 1-.884-1.104c.1-.916.362-1.76.754-2.438.608-1.054 1.514-1.658 2.487-1.66.973 0 1.88.606 2.49 1.66 1.07 1.856 1.07 4.764 0 6.62-.186.32-.522.5-.868.5" fill="#F7C364"/>
        <path d="M52.185 69.876a.998.998 0 0 1-.865-1.5c.71-1.23.71-3.39 0-4.62-.235-.406-.525-.66-.756-.66-.233 0-.523.254-.757.66-.255.443-.427 1.016-.497 1.657-.06.548-.558.944-1.103.886a1.002 1.002 0 0 1-.885-1.104c.1-.914.36-1.757.753-2.44.61-1.054 1.516-1.66 2.49-1.66.97 0 1.878.606 2.487 1.66 1.07 1.856 1.07 4.764 0 6.62a1 1 0 0 1-.867.5" fill="#F7C364"/>
        <path d="M57.602 66.8a.998.998 0 0 1-.865-1.5c.71-1.23.71-3.39 0-4.62-.235-.406-.524-.658-.756-.658-.23 0-.52.252-.755.66-.255.44-.427 1.013-.498 1.657a.99.99 0 0 1-1.104.883 1 1 0 0 1-.884-1.104c.1-.918.36-1.76.753-2.44.61-1.054 1.516-1.658 2.488-1.658h.002c.973 0 1.88.605 2.487 1.66 1.07 1.854 1.07 4.762 0 6.618-.186.32-.522.5-.868.5" fill="#F7C364"/>
        <path d="M63.02 63.724a.997.997 0 0 1-.865-1.499c.71-1.23.71-3.39 0-4.62-.235-.406-.525-.66-.756-.66-.234 0-.523.254-.757.66-.255.44-.427 1.016-.498 1.66a.996.996 0 0 1-1.104.883.999.999 0 0 1-.883-1.103c.1-.917.362-1.76.754-2.44.61-1.053 1.515-1.657 2.488-1.66.973 0 1.88.606 2.49 1.66 1.07 1.858 1.07 4.766 0 6.62a1 1 0 0 1-.868.5m-16.254 9.227a.998.998 0 0 1-.865-1.5c.71-1.23.71-3.39 0-4.62-.235-.406-.525-.66-.756-.66-.233 0-.522.254-.756.66-.255.44-.427 1.015-.498 1.66a.991.991 0 0 1-1.104.883 1 1 0 0 1-.884-1.104c.1-.916.362-1.76.754-2.438.608-1.054 1.514-1.658 2.487-1.66.973 0 1.88.606 2.49 1.66 1.07 1.856 1.07 4.764 0 6.62-.186.32-.522.5-.868.5" fill="#F7C364"/>
        <path d="M68.437 60.65a1 1 0 0 1-.865-1.501c.71-1.23.71-3.39 0-4.62-.234-.407-.524-.66-.755-.66-.233 0-.523.253-.757.66-.255.442-.427 1.015-.497 1.657a1 1 0 1 1-1.988-.217c.1-.915.36-1.758.753-2.44.61-1.055 1.516-1.66 2.49-1.66.97 0 1.878.605 2.487 1.66 1.07 1.856 1.07 4.764 0 6.62-.186.32-.522.5-.868.5m-16.252 9.227a.998.998 0 0 1-.865-1.5c.71-1.23.71-3.39 0-4.62-.235-.406-.525-.66-.756-.66-.233 0-.523.254-.757.66-.255.443-.427 1.016-.497 1.657-.06.548-.558.944-1.103.886a1.002 1.002 0 0 1-.885-1.104c.1-.914.36-1.757.753-2.44.61-1.054 1.516-1.66 2.49-1.66.97 0 1.878.606 2.487 1.66 1.07 1.856 1.07 4.764 0 6.62a1 1 0 0 1-.867.5" fill="#F7C364"/>
        <path d="M73.855 57.573a.998.998 0 0 1-.865-1.501c.71-1.23.71-3.39 0-4.62-.235-.406-.525-.66-.756-.66-.233 0-.522.254-.756.66-.255.44-.427 1.015-.498 1.66a1 1 0 0 1-1.988-.221c.1-.917.362-1.76.754-2.44.608-1.053 1.514-1.657 2.487-1.658.973 0 1.88.605 2.49 1.66 1.07 1.855 1.07 4.763 0 6.62-.186.32-.522.5-.868.5" fill="#F7C364"/>
        <path d="M84.646 81.392c-1.02-.503-1.76-1.393-2.212-2.65l-35.13 31.16 39.743-28.053c-.764.03-1.612-.07-2.4-.458" fill="#E6EFF7"/>
        <path d="M39.75 95.02l35.64-20.577" fill="#33475C"/>
        <path d="M39.75 95.52a.501.501 0 0 1-.249-.933L75.14 74.01a.5.5 0 0 1 .499.866L40 95.453a.491.491 0 0 1-.25.067" fill="#D4E7F8"/>
        <path d="M41.362 101.193l21.96-12.68" fill="#33475C"/>
        <path d="M41.362 101.693a.5.5 0 0 1-.25-.933l21.96-12.68a.5.5 0 1 1 .501.866l-21.96 12.68a.5.5 0 0 1-.25.067" fill="#D4E7F8"/>
        <path d="M42.68 87.768l4.087 16.996" fill="#33475C"/>
        <path d="M46.766 105.263a.501.501 0 0 1-.486-.383l-4.088-16.995a.5.5 0 1 1 .973-.233l4.088 16.994a.5.5 0 0 1-.487.616" fill="#D4E7F8"/>
        <path d="M48.645 83.87l3.698 15.373" fill="#33475C"/>
        <path d="M52.342 99.743a.5.5 0 0 1-.486-.382l-3.698-15.373a.5.5 0 0 1 .37-.602c.27-.06.54.1.603.368l3.7 15.373a.502.502 0 0 1-.488.616" fill="#D4E7F8"/>
        <path d="M54.816 80.784l3.256 13.538" fill="#33475C"/>
        <path d="M58.072 94.822a.501.501 0 0 1-.486-.383L54.33 80.9a.498.498 0 0 1 .37-.602c.267-.058.538.1.602.37l3.257 13.537a.502.502 0 0 1-.488.617" fill="#D4E7F8"/>
        <path stroke="#33475C" stroke-width="5" stroke-linecap="round" stroke-linejoin="round" d="M193.86 101.006l.208 5.383zm.208 5.884a.5.5 0 0 1-.5-.48l-.207-5.384v-.02a.5.5 0 0 1 .48-.5c.284.01.51.204.52.48l.208 5.383v.02a.5.5 0 0 1-.48.5h-.02z"/>
        <path d="M194.07 106.39l-76.46-44.145c.084 2.198-1.406 4.897-3.31 5.997l76.46 44.144c1.905-1.1 3.394-3.8 3.31-5.997z" stroke="#33475C" stroke-width="5" stroke-linecap="round" stroke-linejoin="round"/>
        <path d="M115.234 68.204l75.515 43.6c1.547-1.038 2.774-3.264 2.82-5.124l-75.5-43.59c-.223 1.887-1.354 3.927-2.836 5.114zm75.525 44.683a.472.472 0 0 1-.25-.07l-76.46-44.142a.498.498 0 0 1-.25-.433c0-.18.094-.345.25-.434 1.735-1 3.136-3.542 3.06-5.544a.496.496 0 0 1 .24-.448.508.508 0 0 1 .51-.005l76.458 44.147c.15.086.244.24.25.413.092 2.37-1.505 5.263-3.56 6.448a.487.487 0 0 1-.25.07z" stroke="#33475C" stroke-width="5" stroke-linecap="round" stroke-linejoin="round"/>
        <path stroke="#33475C" stroke-width="5" stroke-linecap="round" stroke-linejoin="round" d="M190.76 112.386L114.3 68.242l-12.188 7.036 76.46 44.144z"/>
        <path d="M103.112 75.278l75.46 43.567 11.187-6.46L114.3 68.82l-11.188 6.458zm75.46 44.645a.497.497 0 0 1-.25-.068l-76.46-44.144a.497.497 0 1 1 0-.865l12.187-7.036a.497.497 0 0 1 .5 0l76.46 44.144a.501.501 0 0 1 0 .865l-12.188 7.035a.497.497 0 0 1-.25.068zM115.416 5.536l76.458 44.077 2.195 56.776-76.46-44.145z" stroke="#33475C" stroke-width="5" stroke-linecap="round" stroke-linejoin="round"/>
        <path d="M118.097 61.95l75.437 43.554-2.15-55.596L115.95 6.422l2.147 55.528zm75.97 44.94a.508.508 0 0 1-.25-.068l-76.46-44.144a.499.499 0 0 1-.248-.414l-2.194-56.71a.5.5 0 0 1 .75-.452L192.12 49.18c.15.085.244.242.25.414l2.196 56.776a.499.499 0 0 1-.5.519zm-18.797 10.626l-73.158-42.238c-.953.55-1.8.6-2.4.24l76.46 44.143c-.582-.35-.922-1.096-.902-2.144z" stroke="#33475C" stroke-width="5" stroke-linecap="round" stroke-linejoin="round"/>
        <path d="M101.64 76.05l73.184 42.255a4.136 4.136 0 0 1-.05-.498l-72.67-41.957c-.157.08-.312.145-.465.2zm74.53 44.11a.477.477 0 0 1-.248-.067l-76.4-44.11-.07-.04a.498.498 0 0 1-.17-.68.498.498 0 0 1 .68-.18l.047.028c.454.25 1.126.153 1.852-.265a.497.497 0 0 1 .5 0l73.158 42.238c.158.09.253.26.25.443-.016.834.22 1.44.66 1.707.235.14.312.445.172.68a.496.496 0 0 1-.43.247z" stroke="#33475C" stroke-width="5" stroke-linecap="round" stroke-linejoin="round"/>
        <path d="M181.234 51.67c-1.905 1.1-3.535 3.798-3.62 5.996l-2.35 59.76c-.086 2.198 1.402 3.097 3.308 1.997l12.187-7.036c1.904-1.1 3.393-3.8 3.308-5.997l-2.195-56.777c-.085-2.198-1.714-3.097-3.62-1.997l-7.02 4.053z" stroke="#33475C" stroke-width="5" stroke-linecap="round" stroke-linejoin="round"/>
        <path d="M181.484 52.1c-1.748 1.01-3.292 3.568-3.372 5.585l-2.348 59.76c-.033.86.21 1.512.666 1.788.456.276 1.147.186 1.89-.243l12.188-7.036c1.737-1.002 3.138-3.542 3.06-5.545l-2.195-56.778c-.034-.882-.343-1.526-.868-1.817-.525-.288-1.236-.206-2 .233l-7.02 4.053zm-4.437 68.295c-.413 0-.796-.102-1.134-.306-.79-.477-1.197-1.43-1.148-2.684l2.348-59.76c.093-2.356 1.83-5.232 3.87-6.41l7.02-4.053c1.08-.622 2.14-.71 2.985-.243.845.466 1.336 1.408 1.384 2.653l2.195 56.777c.092 2.37-1.504 5.263-3.56 6.45l-12.186 7.035c-.62.36-1.223.54-1.773.54z" stroke="#33475C" stroke-width="5" stroke-linecap="round" stroke-linejoin="round"/>
        <path d="M99.594 53.205l-.79 20.076c-.042 1.1.308 1.874.908 2.236l76.46 44.145c-.6-.36-.95-1.135-.907-2.234l.792-20.15-76.463-44.07z" stroke="#33475C" stroke-width="5" stroke-linecap="round" stroke-linejoin="round"/>
        <path d="M100.06 54.05l-.756 19.25c-.034.86.21 1.513.666 1.787l74.845 43.213a4.527 4.527 0 0 1-.05-.895l.78-19.846-75.484-43.51zm76.11 66.11a.49.49 0 0 1-.25-.067L99.46 75.948c-.796-.48-1.204-1.432-1.155-2.687l.79-20.075a.497.497 0 0 1 .747-.414l76.464 44.073c.16.093.257.268.25.453l-.79 20.15c-.035.86.207 1.51.664 1.787a.498.498 0 0 1-.258.927z" stroke="#33475C" stroke-width="5" stroke-linecap="round" stroke-linejoin="round"/>
        <path stroke="#33475C" stroke-width="5" stroke-linecap="round" stroke-linejoin="round" d="M177.573 58.697l-2.01 51.123 6.516 5.162.35-56.153-4.762-.34z"/>
        <path d="M176.074 109.585l5.51 4.367.342-54.658-3.865-.274-1.986 50.565zm6.005 5.896a.506.506 0 0 1-.312-.107l-6.514-5.162a.497.497 0 0 1-.19-.41l2.01-51.123a.5.5 0 0 1 .045-.19l.094-.207a.513.513 0 0 1 .49-.29l4.76.34a.499.499 0 0 1 .465.5l-.35 56.154a.506.506 0 0 1-.285.45.546.546 0 0 1-.216.047z" stroke="#33475C" stroke-width="5" stroke-linecap="round" stroke-linejoin="round"/>
        <path stroke="#33475C" stroke-width="5" stroke-linecap="round" stroke-linejoin="round" d="M182.122 107.96l6.886 3.288-1.8-54.723-4.78-.64v2.943z"/>
        <path d="M182.624 107.647l5.858 2.795-1.76-53.477-3.793-.507v2.37l-.306 48.82zm6.385 4.1a.515.515 0 0 1-.217-.048l-6.886-3.287a.5.5 0 0 1-.285-.454l.307-52.074c0-.144.06-.28.17-.376a.481.481 0 0 1 .395-.12l4.78.64a.5.5 0 0 1 .433.48l1.8 54.72a.502.502 0 0 1-.499.518z" stroke="#33475C" stroke-width="5" stroke-linecap="round" stroke-linejoin="round"/>
        <path stroke="#33475C" stroke-width="5" stroke-linecap="round" stroke-linejoin="round" d="M188.813 105.3l5.255 1.45-2.03-52.855-4.93-.64.1 3.27z"/>
        <path d="M189.3 104.916l4.243 1.17-1.988-51.75-3.93-.51.084 2.684 1.59 48.406zm4.77 2.334a.503.503 0 0 1-.134-.018l-5.256-1.45a.5.5 0 0 1-.366-.466L186.61 53.27a.489.489 0 0 1 .163-.384.49.49 0 0 1 .4-.126l4.93.638a.5.5 0 0 1 .435.477l2.03 52.855a.5.5 0 0 1-.5.52zm-92.697-47.87h-.02a.503.503 0 0 1-.48-.52l.08-2c.01-.276.272-.484.518-.48.277.012.49.244.48.52l-.078 2a.5.5 0 0 1-.5.48zm-.196 4.995h-.02a.502.502 0 0 1-.48-.52l.078-1.998c.01-.277.274-.47.52-.48a.5.5 0 0 1 .48.52l-.08 1.998c-.01.27-.23.48-.498.48zm-.197 4.996h-.02a.5.5 0 0 1-.48-.518l.08-2c.01-.276.273-.477.518-.48.276.012.49.244.48.52l-.08 2a.498.498 0 0 1-.498.48zm-.13 4.993a.502.502 0 0 1-.48-.355 1.886 1.886 0 0 1-.07-.55l.005-.126.058-1.483a.512.512 0 0 1 .52-.482c.275.01.49.244.48.52l-.06 1.49c-.002.25.022.332.024.34a.5.5 0 0 1-.478.644zm73.083 26.54h-.02a.502.502 0 0 1-.48-.52l.08-1.998a.512.512 0 0 1 .518-.48c.277.012.49.244.48.52l-.078 1.998a.499.499 0 0 1-.5.48zm-.196 4.996h-.02a.502.502 0 0 1-.48-.52l.078-1.997c.01-.277.265-.478.52-.48a.5.5 0 0 1 .48.52l-.08 1.997c-.01.27-.23.48-.498.48zm-.196 4.997h-.02a.5.5 0 0 1-.48-.52l.08-1.998c.01-.278.245-.465.518-.482a.5.5 0 0 1 .48.52l-.078 2a.5.5 0 0 1-.5.48zm-.195 4.996h-.02a.5.5 0 0 1-.48-.52l.078-1.998a.501.501 0 0 1 1 .04l-.08 1.998c-.01.27-.23.48-.498.48z" stroke="#33475C" stroke-width="5" stroke-linecap="round" stroke-linejoin="round"/>
        <path d="M193.86 101.006l.208 5.383-.208-5.384z" fill="#E6EFF7"/>
        <path d="M194.068 106.89a.5.5 0 0 1-.5-.48l-.207-5.384v-.02a.5.5 0 0 1 .48-.5c.284.01.51.204.52.48l.208 5.383v.02a.5.5 0 0 1-.48.5h-.02z" fill="#33475C"/>
        <path d="M194.07 106.39l-76.46-44.145c.084 2.198-1.406 4.897-3.31 5.997l76.46 44.144c1.905-1.1 3.394-3.8 3.31-5.997" fill="#E6EFF7"/>
        <path d="M115.234 68.204l75.515 43.6c1.547-1.038 2.774-3.264 2.82-5.124l-75.5-43.59c-.223 1.887-1.354 3.927-2.836 5.114m75.525 44.683a.472.472 0 0 1-.25-.07l-76.46-44.142a.498.498 0 0 1-.25-.433c0-.18.094-.345.25-.434 1.735-1 3.136-3.542 3.06-5.544a.496.496 0 0 1 .24-.448.508.508 0 0 1 .51-.005l76.458 44.147c.15.086.244.24.25.413.092 2.37-1.505 5.263-3.56 6.448a.487.487 0 0 1-.25.07" fill="#33475C"/>
        <path fill="#E6EFF7" d="M190.76 112.386L114.3 68.242l-12.188 7.036 76.46 44.144"/>
        <path d="M103.112 75.278l75.46 43.567 11.187-6.46L114.3 68.82l-11.188 6.458zm75.46 44.645a.497.497 0 0 1-.25-.068l-76.46-44.144a.497.497 0 1 1 0-.865l12.187-7.036a.497.497 0 0 1 .5 0l76.46 44.144a.501.501 0 0 1 0 .865l-12.188 7.035a.497.497 0 0 1-.25.068z" fill="#33475C"/>
        <path fill="#E6EFF7" d="M115.416 5.536l76.458 44.077 2.195 56.776-76.46-44.145"/>
        <path d="M118.097 61.95l75.437 43.554-2.15-55.596L115.95 6.422l2.147 55.528zm75.97 44.94a.508.508 0 0 1-.25-.068l-76.46-44.144a.499.499 0 0 1-.248-.414l-2.194-56.71a.5.5 0 0 1 .75-.452L192.12 49.18c.15.085.244.242.25.414l2.196 56.776a.499.499 0 0 1-.5.519z" fill="#33475C"/>
        <path d="M175.27 117.516l-73.158-42.238c-.953.55-1.8.6-2.4.24l76.46 44.143c-.582-.35-.922-1.096-.902-2.144" fill="#E6EFF7"/>
        <path d="M101.64 76.05l73.184 42.255a4.136 4.136 0 0 1-.05-.498l-72.67-41.957c-.157.08-.312.145-.465.2m74.53 44.11a.477.477 0 0 1-.248-.067l-76.4-44.11-.07-.04a.498.498 0 0 1-.17-.68.498.498 0 0 1 .68-.18l.047.028c.454.25 1.126.153 1.852-.265a.497.497 0 0 1 .5 0l73.158 42.238c.158.09.253.26.25.443-.016.834.22 1.44.66 1.707.235.14.312.445.172.68a.496.496 0 0 1-.43.247" fill="#33475C"/>
        <path d="M181.234 51.67c-1.905 1.1-3.535 3.798-3.62 5.996l-2.35 59.76c-.086 2.198 1.402 3.097 3.308 1.997l12.187-7.036c1.904-1.1 3.393-3.8 3.308-5.997l-2.195-56.777c-.085-2.198-1.714-3.097-3.62-1.997l-7.02 4.053z" fill="#B2743D"/>
        <path d="M181.484 52.1c-1.748 1.01-3.292 3.568-3.372 5.585l-2.348 59.76c-.033.86.21 1.512.666 1.788.456.276 1.147.186 1.89-.243l12.188-7.036c1.737-1.002 3.138-3.542 3.06-5.545l-2.195-56.778c-.034-.882-.343-1.526-.868-1.817-.525-.288-1.236-.206-2 .233l-7.02 4.053zm-4.437 68.295c-.413 0-.796-.102-1.134-.306-.79-.477-1.197-1.43-1.148-2.684l2.348-59.76c.093-2.356 1.83-5.232 3.87-6.41l7.02-4.053c1.08-.622 2.14-.71 2.985-.243.845.466 1.336 1.408 1.384 2.653l2.195 56.777c.092 2.37-1.504 5.263-3.56 6.45l-12.186 7.035c-.62.36-1.223.54-1.773.54z" fill="#33475C"/>
        <path d="M99.594 53.205l-.79 20.076c-.042 1.1.308 1.874.908 2.236l76.46 44.145c-.6-.36-.95-1.135-.907-2.234l.792-20.15-76.463-44.07z" fill="#C78244"/>
        <path d="M100.06 54.05l-.756 19.25c-.034.86.21 1.513.666 1.787l74.845 43.213a4.527 4.527 0 0 1-.05-.895l.78-19.846-75.484-43.51zm76.11 66.11a.49.49 0 0 1-.25-.067L99.46 75.948c-.796-.48-1.204-1.432-1.155-2.687l.79-20.075a.497.497 0 0 1 .747-.414l76.464 44.073c.16.093.257.268.25.453l-.79 20.15c-.035.86.207 1.51.664 1.787a.498.498 0 0 1-.258.927z" fill="#33475C"/>
        <path fill="#C78244" d="M177.573 58.697l-2.01 51.123 6.516 5.162.35-56.153-4.762-.34"/>
        <path d="M176.074 109.585l5.51 4.367.342-54.658-3.865-.274-1.986 50.565zm6.005 5.896a.506.506 0 0 1-.312-.107l-6.514-5.162a.497.497 0 0 1-.19-.41l2.01-51.123a.5.5 0 0 1 .045-.19l.094-.207a.513.513 0 0 1 .49-.29l4.76.34a.499.499 0 0 1 .465.5l-.35 56.154a.506.506 0 0 1-.285.45.546.546 0 0 1-.216.047z" fill="#33475C"/>
        <path fill="#C78244" d="M182.122 107.96l6.886 3.288-1.8-54.723-4.78-.64v2.943"/>
        <path d="M182.624 107.647l5.858 2.795-1.76-53.477-3.793-.507v2.37l-.306 48.82zm6.385 4.1a.515.515 0 0 1-.217-.048l-6.886-3.287a.5.5 0 0 1-.285-.454l.307-52.074c0-.144.06-.28.17-.376a.481.481 0 0 1 .395-.12l4.78.64a.5.5 0 0 1 .433.48l1.8 54.72a.502.502 0 0 1-.499.518z" fill="#33475C"/>
        <path fill="#C78244" d="M188.813 105.3l5.255 1.45-2.03-52.855-4.93-.64.1 3.27"/>
        <path d="M189.3 104.916l4.243 1.17-1.988-51.75-3.93-.51.084 2.684 1.59 48.406zm4.77 2.334a.503.503 0 0 1-.134-.018l-5.256-1.45a.5.5 0 0 1-.366-.466L186.61 53.27a.489.489 0 0 1 .163-.384.49.49 0 0 1 .4-.126l4.93.638a.5.5 0 0 1 .435.477l2.03 52.855a.5.5 0 0 1-.5.52z" fill="#33475C"/>
        <path d="M101.373 59.38h-.02a.503.503 0 0 1-.48-.52l.08-2c.01-.276.272-.484.518-.48.277.012.49.244.48.52l-.078 2a.5.5 0 0 1-.5.48m-.195 4.995h-.02a.502.502 0 0 1-.48-.52l.078-1.998c.01-.277.274-.47.52-.48a.5.5 0 0 1 .48.52l-.08 1.998c-.01.27-.23.48-.498.48m-.197 4.996h-.02a.5.5 0 0 1-.48-.518l.08-2c.01-.276.273-.477.518-.48.276.012.49.244.48.52l-.08 2a.498.498 0 0 1-.498.48m-.13 4.99a.5.5 0 0 1-.48-.354 1.886 1.886 0 0 1-.07-.55l.005-.126.058-1.483a.512.512 0 0 1 .52-.482c.275.01.49.244.48.52l-.06 1.49c-.002.25.022.332.024.34a.5.5 0 0 1-.478.644m73.083 26.542h-.02a.502.502 0 0 1-.48-.52l.08-1.998a.512.512 0 0 1 .518-.48c.277.012.49.244.48.52l-.078 1.998a.499.499 0 0 1-.5.48m-.195 4.996h-.02a.502.502 0 0 1-.48-.52l.078-1.997c.01-.277.265-.478.52-.48a.5.5 0 0 1 .48.52l-.08 1.997c-.01.27-.23.48-.498.48m-.196 4.997h-.02a.5.5 0 0 1-.48-.52l.08-1.998c.01-.278.245-.465.518-.482a.5.5 0 0 1 .48.52l-.078 2a.5.5 0 0 1-.5.48m-.195 4.995h-.02a.5.5 0 0 1-.48-.52l.078-1.998a.501.501 0 0 1 1 .04l-.08 1.998c-.01.27-.23.48-.498.48" fill="#B2743D"/>
        <path d="M177.613 57.666c.086-2.198 1.716-4.897 3.62-5.997l7.02-4.054c.917-.53 1.764-.585 2.41-.268v-.008l-76.38-44.108c-.655-.36-1.537-.31-2.49.24l-7.02 4.053c-.194.112-.383.25-.57.395-1.65 1.26-2.973 3.628-3.05 5.602l-.003.073 76.463 44.07" stroke="#33475C" stroke-width="5" stroke-linecap="round" stroke-linejoin="round"/>
        <path d="M101.667 13.315l75.535 43.536c.39-2.173 1.965-4.565 3.782-5.614l7.02-4.053c.26-.15.52-.268.775-.355L114.033 3.665c-.516-.284-1.226-.2-1.99.24l-7.02 4.052c-.176.102-.347.23-.517.36-1.492 1.14-2.68 3.25-2.84 4.998zm75.946 44.85a.508.508 0 0 1-.25-.066L100.9 14.027a.504.504 0 0 1-.25-.453c.085-2.162 1.45-4.677 3.25-6.053.204-.156.412-.31.624-.43l7.02-4.053c1.077-.623 2.136-.71 2.98-.246l76.39 44.113c.145.083.24.234.25.4a.501.501 0 1 1-.72.488c-.524-.258-1.214-.167-1.94.252l-7.02 4.053c-1.748 1.01-3.292 3.57-3.37 5.585a.502.502 0 0 1-.5.481z" stroke="#33475C" stroke-width="5" stroke-linecap="round" stroke-linejoin="round"/>
        <path d="M159.144 40.345c1.15.665 3.035.665 4.187 0l1.043-.6 1.04-.603c1.153-.665 1.153-1.752 0-2.417-1.857-1.073-4.47-2.412-4.47-2.412l-5.976 3.45 4.177 2.582z" stroke="#33475C" stroke-width="5" stroke-linecap="round" stroke-linejoin="round"/>
        <path d="M159.4 39.915c1 .574 2.684.57 3.68-.003l2.084-1.203c.39-.227.613-.51.613-.776 0-.268-.223-.55-.613-.777-1.5-.865-3.52-1.918-4.21-2.274l-5.012 2.894 3.458 2.138zm1.837 1.432c-.843 0-1.686-.19-2.343-.57l-.013-.008-4.176-2.582a.498.498 0 0 1 .013-.858l5.975-3.45a.503.503 0 0 1 .478-.012c.025.014 2.647 1.358 4.494 2.424.708.408 1.114 1.007 1.113 1.642 0 .634-.405 1.233-1.113 1.64l-2.083 1.203c-.656.38-1.5.57-2.343.57z" stroke="#33475C" stroke-width="5" stroke-linecap="round" stroke-linejoin="round"/>
        <path d="M161.238 36.193c-2.044 0-2.044 1.765-2.044 1.765 0 .303.2.606.597.836.797.46 2.1.46 2.895 0 .398-.23.597-.533.597-.836 0 0 0-1.765-2.044-1.765z" stroke="#33475C" stroke-width="5" stroke-linecap="round" stroke-linejoin="round"/>
        <path d="M161.238 36.694c-1.5 0-1.544 1.135-1.544 1.265 0 .125.13.276.347.402.638.367 1.758.368 2.396 0 .216-.126.346-.276.346-.403-.004-.21-.096-1.266-1.544-1.266zm0 2.945c-.61 0-1.222-.138-1.697-.412-.538-.312-.846-.774-.846-1.27 0-.783.53-2.264 2.544-2.264 2.012 0 2.544 1.48 2.544 2.265 0 .494-.31.956-.846 1.267-.477.275-1.088.412-1.698.412zm-30.085-22.773c-1.15-.665-3.035-.665-4.187 0l-1.042.6-1.04.603c-1.153.664-1.153 1.75 0 2.416 1.857 1.073 4.47 2.412 4.47 2.412l5.976-3.45-4.177-2.582z" stroke="#33475C" stroke-width="5" stroke-linecap="round" stroke-linejoin="round"/>
        <path d="M129.06 16.867c-.672 0-1.344.145-1.844.433l-2.084 1.203c-.39.224-.613.508-.613.775 0 .268.223.55.613.777 1.5.865 3.52 1.917 4.21 2.274l5.012-2.896-3.458-2.137c-.5-.286-1.168-.43-1.837-.43zm.295 6.53a.508.508 0 0 1-.228-.053c-.025-.014-2.647-1.358-4.494-2.424-.72-.414-1.114-.997-1.114-1.642 0-.644.394-1.227 1.113-1.64l2.083-1.204c1.315-.76 3.374-.76 4.687 0l.013.008 4.177 2.58a.5.5 0 0 1-.013.86l-5.975 3.45a.503.503 0 0 1-.25.066z" stroke="#33475C" stroke-width="5" stroke-linecap="round" stroke-linejoin="round"/>
        <path d="M129.217 17.791c2.044.002 2.044 1.767 2.044 1.767 0 .303-.198.605-.596.835-.796.46-2.098.46-2.894 0-.398-.23-.597-.532-.597-.835 0 0 0-1.765 2.044-1.765z" stroke="#33475C" stroke-width="5" stroke-linecap="round" stroke-linejoin="round"/>
        <path d="M129.217 18.29c-1.5 0-1.544 1.136-1.544 1.266 0 .127.13.277.347.402.636.368 1.755.368 2.394 0 .217-.125.347-.275.347-.402-.003-.208-.095-1.265-1.543-1.265zm0 2.947c-.61 0-1.222-.137-1.697-.413-.538-.31-.847-.772-.847-1.268 0-.784.53-2.265 2.544-2.265 2.012 0 2.544 1.482 2.544 2.266 0 .496-.308.96-.846 1.27-.476.274-1.087.41-1.697.41zm27.738 8.479l-1.988 1.148v6.9l1.988-1.15z" stroke="#33475C" stroke-width="5" stroke-linecap="round" stroke-linejoin="round"/>
        <path d="M155.467 31.153v5.744l.988-.57v-5.744l-.988.57zm-.5 7.11a.5.5 0 0 1-.5-.5v-6.9c0-.178.095-.343.25-.432l1.988-1.146a.5.5 0 1 1 .75.432v6.9c0 .18-.095.344-.25.433l-1.988 1.146a.496.496 0 0 1-.25.067zm3.987-9.701v6.9l1.988-1.15v-6.898z" stroke="#33475C" stroke-width="5" stroke-linecap="round" stroke-linejoin="round"/>
        <path d="M159.454 28.85v5.745l.988-.57V28.28l-.988.57zm-.5 7.11a.5.5 0 0 1-.5-.499v-6.898c0-.18.095-.344.25-.433l1.988-1.148a.5.5 0 1 1 .75.432v6.9c0 .18-.095.344-.25.433l-1.988 1.147a.496.496 0 0 1-.25.067zm-27.448-21.203L129.356 16v6.898l2.15-1.242z" stroke="#33475C" stroke-width="5" stroke-linecap="round" stroke-linejoin="round"/>
        <path d="M129.856 16.288v5.743l1.15-.663v-5.744l-1.15.665zm-.5 7.11a.5.5 0 0 1-.5-.501V16c0-.18.095-.345.25-.434l2.15-1.242a.498.498 0 1 1 .75.433v6.9a.496.496 0 0 1-.25.432l-2.15 1.24a.499.499 0 0 1-.25.067zm4.149-9.795v6.9l1.825-1.055v-6.9z" stroke="#33475C" stroke-width="5" stroke-linecap="round" stroke-linejoin="round"/>
        <path d="M134.005 13.892v5.744l.825-.476v-5.745l-.825.477zm-.5 7.11a.5.5 0 0 1-.5-.5v-6.9c0-.178.095-.343.25-.432l1.825-1.053a.499.499 0 1 1 .75.432v6.9a.497.497 0 0 1-.25.43l-1.825 1.055a.496.496 0 0 1-.25.067z" stroke="#33475C" stroke-width="5" stroke-linecap="round" stroke-linejoin="round"/>
        <path d="M162.36 25.358a1.927 1.927 0 0 0-.278-1.232s-7.06-11.307-15.07-14.686c-5.088-2.147-8.572-1.193-8.572-1.193-1.06.29-2.708.978-3.66 1.528l-4.103 2.368c-.953.55-1.732 1.562-1.732 2.248v2c0 .514.5.906 1.212 1.024.14.012.277.033.422.034.115 0 .233-.002.354-.014 0 0 .112-.01.302-.02l-.035.006c.014 0 .027 0 .04-.002 0 0 .29-.025.76-.025 1.028 0 3.04.12 4.97.936 7.137 3.01 13.63 11.703 13.694 11.79.974 1.32 2.56 2.11 4.245 2.11.915 0 1.81-.236 2.586-.685l3.923-2.264c.574-.337.915-.917.958-1.53V25.38l-.02-.02z" stroke="#33475C" stroke-width="5" stroke-linecap="round" stroke-linejoin="round"/>
        <path d="M132 16.893c1.066 0 3.155.127 5.165.975 7.278 3.07 13.836 11.867 13.9 11.956.882 1.194 2.318 1.907 3.844 1.907.826 0 1.635-.213 2.336-.617l3.923-2.266c.41-.24.676-.665.71-1.132l-.002-2.238a.445.445 0 0 1-.016-.173 1.426 1.426 0 0 0-.205-.914c-.07-.11-7.07-11.212-14.838-14.49-4.848-2.045-8.217-1.18-8.25-1.17-1.008.275-2.63.952-3.54 1.477l-4.103 2.37c-.848.49-1.482 1.36-1.482 1.813v2c0 .23.334.454.794.53l.105.01c.09.01.18.022.275.018.088 0 .175-.003.266-.012 0 0 .12-.01.32-.022.024-.004.05 0 .073 0 .147-.01.392-.02.72-.02zm22.91 15.838c-1.843 0-3.58-.864-4.648-2.313-.064-.086-6.473-8.67-13.486-11.628-2.657-1.123-5.456-.876-5.492-.874-.032.003-.063 0-.093 0a4.59 4.59 0 0 0-.208.016 3.945 3.945 0 0 1-.407.016 3.07 3.07 0 0 1-.336-.024l-.124-.012c-1.03-.17-1.67-.765-1.67-1.522v-2c0-.998 1.02-2.126 1.98-2.68l4.103-2.368c.987-.57 2.682-1.278 3.778-1.578.15-.04 3.71-.974 8.9 1.214 8.062 3.402 15.006 14.415 15.298 14.883.265.426.388.912.36 1.414a.446.446 0 0 1 .012.103v2.373a2.442 2.442 0 0 1-1.206 1.96l-3.926 2.268a5.673 5.673 0 0 1-2.837.753z" stroke="#33475C" stroke-width="5" stroke-linecap="round" stroke-linejoin="round"/>
        <path d="M155.746 29.514l5.413-3.125a1.43 1.43 0 0 0 .498-1.999c-.07-.11-7.07-11.21-14.84-14.49-4.87-2.055-8.21-1.18-8.246-1.17-1.012.276-2.634.953-3.543 1.478l-4.102 2.368c-.85.49-1.483 1.362-1.483 1.814 0 .033 0 .133.135.255.258.233.77.347 1.304.29.05-.004.468-.045 1.136-.045 1.39 0 3.853.177 6.31 1.214 8.045 3.393 14.863 12.55 15.15 12.937.498.678 1.535.895 2.266.474zM177.9 56.138a6.248 6.248 0 0 0-.001 0z" stroke="#33475C" stroke-width="5" stroke-linecap="round" stroke-linejoin="round"/>
        <path d="M177.752 57.185a.502.502 0 0 1-.49-.607c.03-.136.066-.27.105-.407.017-.06.034-.12.053-.18a.499.499 0 1 1 .955.295l-.044.15c-.033.12-.064.238-.09.357a.501.501 0 0 1-.488.393z" stroke="#33475C" stroke-width="5" stroke-linecap="round" stroke-linejoin="round"/>
        <path d="M177.703 56.92a5.393 5.393 0 0 0 0 .001z" stroke="#33475C" stroke-width="5" stroke-linecap="round" stroke-linejoin="round"/>
        <path d="M177.614 58.163h-.02a.5.5 0 0 1-.48-.5v-.02a5.75 5.75 0 0 1 .098-.81v-.002c.05-.27.31-.44.58-.4a.5.5 0 0 1 .404.58c-.04.227-.074.455-.083.674a.5.5 0 0 1-.5.48zm.952-3.579c-.04.07-.076.14-.113.21.037-.07.074-.14.113-.21z" stroke="#33475C" stroke-width="5" stroke-linecap="round" stroke-linejoin="round"/>
        <path d="M178.453 55.294a.5.5 0 0 1-.444-.729l.12-.225a.5.5 0 1 1 .875.483l-.108.202a.504.504 0 0 1-.444.27zM178.236 55.238z" stroke="#33475C" stroke-width="5" stroke-linecap="round" stroke-linejoin="round"/>
        <path d="M177.976 56.386a.503.503 0 0 1-.472-.664 8.848 8.848 0 0 1 .277-.69.493.493 0 0 1 .66-.25c.252.11.365.406.253.658l-.107.25c-.05.12-.096.24-.138.362a.501.501 0 0 1-.472.334zm-.363 1.28L101.15 13.593l-1.557 39.61 76.464 44.072z" stroke="#33475C" stroke-width="5" stroke-linecap="round" stroke-linejoin="round"/>
        <path d="M100.105 52.922L175.59 96.43l1.512-38.483-75.485-43.506-1.512 38.482zm75.952 44.854a.504.504 0 0 1-.25-.067L99.344 53.637a.504.504 0 0 1-.25-.453l1.556-39.61a.498.498 0 0 1 .748-.415l76.465 44.072c.16.092.257.267.25.453l-1.557 39.61a.498.498 0 0 1-.498.481z" stroke="#33475C" stroke-width="5" stroke-linecap="round" stroke-linejoin="round"/>
        <path d="M101.667 13.31l-.05 1.13-1.512 38.483L175.59 96.43l1.51-38.483s.045-.92.127-1.262l-75.56-43.374z" stroke="#33475C" stroke-width="5" stroke-linecap="round" stroke-linejoin="round"/>
        <path d="M103.412 20.223h-.02a.502.502 0 0 1-.48-.52l.08-2c.01-.275.268-.478.518-.48.276.013.49.245.48.52l-.08 2c-.01.27-.23.48-.498.48zm-.196 4.996h-.02a.503.503 0 0 1-.48-.52l.078-2c.01-.276.27-.466.52-.48.275.012.49.244.48.52l-.08 2a.498.498 0 0 1-.498.48zm-.197 4.995H103a.502.502 0 0 1-.48-.52l.078-1.998c.01-.277.27-.474.52-.48a.5.5 0 0 1 .48.52l-.08 1.998c-.01.27-.23.48-.5.48zm-.197 4.996h-.02a.5.5 0 0 1-.48-.518l.08-2c.01-.276.27-.48.518-.48a.5.5 0 0 1 .48.52l-.078 2a.5.5 0 0 1-.5.48zm-.196 4.997h-.02a.5.5 0 0 1-.48-.52l.078-1.998c.01-.278.272-.468.52-.482.275.012.49.244.48.52l-.08 2a.498.498 0 0 1-.498.48zm-.196 4.996h-.02a.501.501 0 0 1-.48-.52l.08-1.998c.01-.276.27-.474.518-.48a.5.5 0 0 1 .48.52l-.078 1.998a.499.499 0 0 1-.5.48zm-.196 4.997h-.02a.502.502 0 0 1-.48-.52l.08-2c.01-.275.272-.48.518-.48.276.012.49.245.48.52l-.08 2c-.01.27-.23.48-.498.48zm2.434 3.544a.507.507 0 0 1-.25-.067l-1.732-.998a.502.502 0 0 1-.184-.685.502.502 0 0 1 .683-.183l1.733.998a.5.5 0 0 1-.249.934zM109 56.24a.495.495 0 0 1-.25-.066l-1.732-1a.498.498 0 0 1-.184-.682.501.501 0 0 1 .683-.184l1.733 1a.498.498 0 0 1-.25.933zm4.33 2.498a.497.497 0 0 1-.248-.067l-1.733-.998a.5.5 0 1 1 .5-.868l1.732 1a.5.5 0 0 1-.251.933zm61.7 1.534h-.02a.499.499 0 0 1-.48-.52l.074-1.903.005-.106a.495.495 0 0 1 .528-.47.502.502 0 0 1 .47.53l-.5-.03.496.096-.076 1.92a.5.5 0 0 1-.5.482zm-57.367.962a.51.51 0 0 1-.25-.067l-1.73-.998a.502.502 0 0 1 .498-.868l1.733.998a.501.501 0 0 1-.25.934zm4.332 2.497a.498.498 0 0 1-.25-.066l-1.73-.998a.5.5 0 1 1 .498-.867l1.732.997a.5.5 0 0 1-.251.934zm52.838 1.538h-.02a.502.502 0 0 1-.48-.52l.08-1.998a.517.517 0 0 1 .518-.48c.276.012.49.244.48.52l-.078 1.997a.499.499 0 0 1-.5.48zm-48.505.96a.507.507 0 0 1-.25-.067l-1.732-.998a.5.5 0 1 1 .499-.868l1.733 1a.5.5 0 0 1-.249.933zm4.332 2.497a.517.517 0 0 1-.25-.066l-1.732-1a.501.501 0 0 1 .499-.868l1.733 1a.5.5 0 0 1-.25.933zm43.977 1.54h-.02a.503.503 0 0 1-.48-.52l.078-2c.01-.275.265-.47.52-.48.275.013.49.245.48.52l-.08 2a.498.498 0 0 1-.498.48zm-39.645.956a.505.505 0 0 1-.25-.065l-1.732-.998a.5.5 0 0 1 .499-.868l1.732.997a.501.501 0 0 1-.25.934zm4.332 2.498a.495.495 0 0 1-.25-.066l-1.732-.998a.5.5 0 0 1 .499-.868l1.734 1a.498.498 0 0 1-.25.932zm35.116 1.543h-.02a.5.5 0 0 1-.48-.518l.08-2c.01-.276.265-.478.518-.48.276.012.49.244.48.52l-.08 2a.498.498 0 0 1-.498.48zm-30.785.955a.495.495 0 0 1-.25-.066l-1.732-1a.5.5 0 1 1 .5-.867l1.733 1a.5.5 0 0 1-.252.932zm4.332 2.497a.495.495 0 0 1-.25-.066l-1.732-1a.5.5 0 0 1 .5-.866l1.733 1a.5.5 0 0 1-.25.932zm26.257 1.545h-.02a.502.502 0 0 1-.48-.52l.08-1.998c.01-.278.265-.466.518-.482.276.012.49.244.48.52l-.08 2a.498.498 0 0 1-.498.48zm-21.925.952a.507.507 0 0 1-.25-.067l-1.733-1a.5.5 0 0 1 .499-.866l1.733 1a.5.5 0 0 1-.251.932zm4.33 2.495a.488.488 0 0 1-.248-.066l-1.733-1a.499.499 0 1 1 .498-.866l1.733.998a.5.5 0 0 1-.249.933zm17.398 1.548h-.02a.5.5 0 0 1-.48-.52l.078-1.998c.01-.277.267-.472.52-.48a.5.5 0 0 1 .48.52l-.08 1.998c-.01.27-.23.48-.498.48zm-13.065.95a.51.51 0 0 1-.25-.067l-1.732-1a.5.5 0 0 1 .5-.866l1.733 1a.498.498 0 0 1-.25.932zm4.332 2.497a.51.51 0 0 1-.25-.067l-1.732-1a.499.499 0 1 1 .499-.865l1.733 1a.5.5 0 0 1-.251.933zm8.536 1.55h-.02a.504.504 0 0 1-.48-.52l.08-2c.01-.276.268-.478.52-.48.275.012.49.244.48.52l-.08 2a.499.499 0 0 1-.5.48zm-4.203.947a.507.507 0 0 1-.25-.067l-1.732-1a.499.499 0 1 1 .5-.866l1.732 1a.498.498 0 0 1-.25.933zm4.075 2.347a.503.503 0 0 1-.25-.066l-1.475-.85a.5.5 0 0 1 .499-.867l.973.562a.521.521 0 0 1 .283-.076c.276.012.49.245.48.52l-.012.298a.495.495 0 0 1-.497.48z" stroke="#33475C" stroke-width="5" stroke-linecap="round" stroke-linejoin="round"/>
        <path d="M177.613 57.666c.086-2.198 1.716-4.897 3.62-5.997l7.02-4.054c.917-.53 1.764-.585 2.41-.268v-.008l-76.38-44.108c-.655-.36-1.537-.31-2.49.24l-7.02 4.053c-.194.112-.383.25-.57.395-1.65 1.26-2.973 3.628-3.05 5.602l-.003.073 76.463 44.07" fill="#D29B6A"/>
        <path d="M101.667 13.315l75.535 43.536c.39-2.173 1.965-4.565 3.782-5.614l7.02-4.053c.26-.15.52-.268.775-.355L114.033 3.665c-.516-.284-1.226-.2-1.99.24l-7.02 4.052c-.176.102-.347.23-.517.36-1.492 1.14-2.68 3.25-2.84 4.998m75.946 44.85a.508.508 0 0 1-.25-.066L100.9 14.027a.504.504 0 0 1-.25-.453c.085-2.162 1.45-4.677 3.25-6.053.204-.156.412-.31.624-.43l7.02-4.053c1.077-.623 2.136-.71 2.98-.246l76.39 44.113c.145.083.24.234.25.4a.501.501 0 1 1-.72.488c-.524-.258-1.214-.167-1.94.252l-7.02 4.053c-1.748 1.01-3.292 3.57-3.37 5.585a.502.502 0 0 1-.5.481" fill="#33475C"/>
        <path d="M159.144 40.345c1.15.665 3.035.665 4.187 0l1.043-.6 1.04-.603c1.153-.665 1.153-1.752 0-2.417-1.857-1.073-4.47-2.412-4.47-2.412l-5.976 3.45 4.177 2.582z" fill="#D29B6A"/>
        <path d="M159.4 39.915c1 .574 2.684.57 3.68-.003l2.084-1.203c.39-.227.613-.51.613-.776 0-.268-.223-.55-.613-.777-1.5-.865-3.52-1.918-4.21-2.274l-5.012 2.894 3.458 2.138zm1.837 1.432c-.843 0-1.686-.19-2.343-.57l-.013-.008-4.176-2.582a.498.498 0 0 1 .013-.858l5.975-3.45a.503.503 0 0 1 .478-.012c.025.014 2.647 1.358 4.494 2.424.708.408 1.114 1.007 1.113 1.642 0 .634-.405 1.233-1.113 1.64l-2.083 1.203c-.656.38-1.5.57-2.343.57z" fill="#33475C"/>
        <path d="M161.238 36.193c-2.044 0-2.044 1.765-2.044 1.765 0 .303.2.606.597.836.797.46 2.1.46 2.895 0 .398-.23.597-.533.597-.836 0 0 0-1.765-2.044-1.765" fill="#F8C45B"/>
        <path d="M161.238 36.694c-1.5 0-1.544 1.135-1.544 1.265 0 .125.13.276.347.402.638.367 1.758.368 2.396 0 .216-.126.346-.276.346-.403-.004-.21-.096-1.266-1.544-1.266m0 2.945c-.61 0-1.222-.138-1.697-.412-.538-.312-.846-.774-.846-1.27 0-.783.53-2.264 2.544-2.264 2.012 0 2.544 1.48 2.544 2.265 0 .494-.31.956-.846 1.267-.477.275-1.088.412-1.698.412" fill="#33475C"/>
        <path d="M131.153 16.866c-1.15-.665-3.035-.665-4.187 0l-1.042.6-1.04.603c-1.153.664-1.153 1.75 0 2.416 1.857 1.073 4.47 2.412 4.47 2.412l5.976-3.45-4.177-2.582z" fill="#D29B6A"/>
        <path d="M129.06 16.867c-.672 0-1.344.145-1.844.433l-2.084 1.203c-.39.224-.613.508-.613.775 0 .268.223.55.613.777 1.5.865 3.52 1.917 4.21 2.274l5.012-2.896-3.458-2.137c-.5-.286-1.168-.43-1.837-.43m.295 6.53a.508.508 0 0 1-.228-.053c-.025-.014-2.647-1.358-4.494-2.424-.72-.414-1.114-.997-1.114-1.642 0-.644.394-1.227 1.113-1.64l2.083-1.204c1.315-.76 3.374-.76 4.687 0l.013.008 4.177 2.58a.5.5 0 0 1-.013.86l-5.975 3.45a.503.503 0 0 1-.25.066" fill="#33475C"/>
        <path d="M129.217 17.791c2.044.002 2.044 1.767 2.044 1.767 0 .303-.198.605-.596.835-.796.46-2.098.46-2.894 0-.398-.23-.597-.532-.597-.835 0 0 0-1.765 2.044-1.765" fill="#F8C45B"/>
        <path d="M129.217 18.29c-1.5 0-1.544 1.136-1.544 1.266 0 .127.13.277.347.402.636.368 1.755.368 2.394 0 .217-.125.347-.275.347-.402-.003-.208-.095-1.265-1.543-1.265m0 2.947c-.61 0-1.222-.137-1.697-.413-.538-.31-.847-.772-.847-1.268 0-.784.53-2.265 2.544-2.265 2.012 0 2.544 1.482 2.544 2.266 0 .496-.308.96-.846 1.27-.476.274-1.087.41-1.697.41" fill="#33475C"/>
        <path fill="#F8C45B" d="M156.955 29.716l-1.988 1.148v6.9l1.988-1.15"/>
        <path d="M155.467 31.153v5.744l.988-.57v-5.744l-.988.57zm-.5 7.11a.5.5 0 0 1-.5-.5v-6.9c0-.178.095-.343.25-.432l1.988-1.146a.5.5 0 1 1 .75.432v6.9c0 .18-.095.344-.25.433l-1.988 1.146a.496.496 0 0 1-.25.067z" fill="#33475C"/>
        <path fill="#F8C45B" d="M158.954 28.562v6.9l1.988-1.15v-6.898"/>
        <path d="M159.454 28.85v5.745l.988-.57V28.28l-.988.57zm-.5 7.11a.5.5 0 0 1-.5-.499v-6.898c0-.18.095-.344.25-.433l1.988-1.148a.5.5 0 1 1 .75.432v6.9c0 .18-.095.344-.25.433l-1.988 1.147a.496.496 0 0 1-.25.067z" fill="#33475C"/>
        <path fill="#EBBA56" d="M131.506 14.757L129.356 16v6.898l2.15-1.242"/>
        <path d="M129.856 16.288v5.743l1.15-.663v-5.744l-1.15.665zm-.5 7.11a.5.5 0 0 1-.5-.501V16c0-.18.095-.345.25-.434l2.15-1.242a.498.498 0 1 1 .75.433v6.9a.496.496 0 0 1-.25.432l-2.15 1.24a.499.499 0 0 1-.25.067z" fill="#33475C"/>
        <path fill="#EBBA56" d="M133.505 13.603v6.9l1.825-1.055v-6.9"/>
        <path d="M134.005 13.892v5.744l.825-.476v-5.745l-.825.477zm-.5 7.11a.5.5 0 0 1-.5-.5v-6.9c0-.178.095-.343.25-.432l1.825-1.053a.499.499 0 1 1 .75.432v6.9a.497.497 0 0 1-.25.43l-1.825 1.055a.496.496 0 0 1-.25.067z" fill="#33475C"/>
        <path d="M162.36 25.358a1.927 1.927 0 0 0-.278-1.232s-7.06-11.307-15.07-14.686c-5.088-2.147-8.572-1.193-8.572-1.193-1.06.29-2.708.978-3.66 1.528l-4.103 2.368c-.953.55-1.732 1.562-1.732 2.248v2c0 .514.5.906 1.212 1.024.14.012.277.033.422.034.115 0 .233-.002.354-.014 0 0 .112-.01.302-.02l-.035.006c.014 0 .027 0 .04-.002 0 0 .29-.025.76-.025 1.028 0 3.04.12 4.97.936 7.137 3.01 13.63 11.703 13.694 11.79.974 1.32 2.56 2.11 4.245 2.11.915 0 1.81-.236 2.586-.685l3.923-2.264c.574-.337.915-.917.958-1.53V25.38l-.02-.02z" fill="#C78244"/>
        <path d="M132 16.893c1.066 0 3.155.127 5.165.975 7.278 3.07 13.836 11.867 13.9 11.956.882 1.194 2.318 1.907 3.844 1.907.826 0 1.635-.213 2.336-.617l3.923-2.266c.41-.24.676-.665.71-1.132l-.002-2.238a.445.445 0 0 1-.016-.173 1.426 1.426 0 0 0-.205-.914c-.07-.11-7.07-11.212-14.838-14.49-4.848-2.045-8.217-1.18-8.25-1.17-1.008.275-2.63.952-3.54 1.477l-4.103 2.37c-.848.49-1.482 1.36-1.482 1.813v2c0 .23.334.454.794.53l.105.01c.09.01.18.022.275.018.088 0 .175-.003.266-.012 0 0 .12-.01.32-.022.024-.004.05 0 .073 0 .147-.01.392-.02.72-.02m22.91 15.837c-1.843 0-3.58-.864-4.648-2.313-.064-.086-6.473-8.67-13.486-11.628-2.657-1.123-5.456-.876-5.492-.874-.032.003-.063 0-.093 0a4.59 4.59 0 0 0-.208.016 3.945 3.945 0 0 1-.407.016 3.07 3.07 0 0 1-.336-.024l-.124-.012c-1.03-.17-1.67-.765-1.67-1.522v-2c0-.998 1.02-2.126 1.98-2.68l4.103-2.368c.987-.57 2.682-1.278 3.778-1.578.15-.04 3.71-.974 8.9 1.214 8.062 3.402 15.006 14.415 15.298 14.883.265.426.388.912.36 1.414a.446.446 0 0 1 .012.103v2.373a2.442 2.442 0 0 1-1.206 1.96l-3.926 2.268a5.673 5.673 0 0 1-2.837.753" fill="#33475C"/>
        <path d="M155.746 29.514l5.413-3.125a1.43 1.43 0 0 0 .498-1.999c-.07-.11-7.07-11.21-14.84-14.49-4.87-2.055-8.21-1.18-8.246-1.17-1.012.276-2.634.953-3.543 1.478l-4.102 2.368c-.85.49-1.483 1.362-1.483 1.814 0 .033 0 .133.135.255.258.233.77.347 1.304.29.05-.004.468-.045 1.136-.045 1.39 0 3.853.177 6.31 1.214 8.045 3.393 14.863 12.55 15.15 12.937.498.678 1.535.895 2.266.474" fill="#D29B6A"/>
        <path d="M177.9 56.138a6.248 6.248 0 0 0-.001 0" fill="#E6EFF7"/>
        <path d="M177.752 57.185a.502.502 0 0 1-.49-.607c.03-.136.066-.27.105-.407.017-.06.034-.12.053-.18a.499.499 0 1 1 .955.295l-.044.15c-.033.12-.064.238-.09.357a.501.501 0 0 1-.488.393" fill="#33475C"/>
        <path d="M177.703 56.92a5.393 5.393 0 0 0 0 .001" fill="#E6EFF7"/>
        <path d="M177.614 58.163h-.02a.5.5 0 0 1-.48-.5v-.02c.01-.264.048-.536.098-.81a.506.506 0 0 1 .58-.403.5.5 0 0 1 .404.58c-.04.228-.074.455-.083.674a.5.5 0 0 1-.5.48" fill="#33475C"/>
        <path d="M178.566 54.584c-.04.07-.076.14-.113.21.037-.07.074-.14.113-.21" fill="#E6EFF7"/>
        <path d="M178.453 55.294a.5.5 0 0 1-.444-.729l.12-.225a.5.5 0 1 1 .875.483l-.108.202a.504.504 0 0 1-.444.27" fill="#33475C"/>
        <path d="M178.236 55.238" fill="#E6EFF7"/>
        <path d="M177.976 56.386a.503.503 0 0 1-.472-.664 8.848 8.848 0 0 1 .277-.69.493.493 0 0 1 .66-.25c.252.11.365.406.253.658l-.107.25c-.05.12-.096.24-.138.362a.501.501 0 0 1-.472.334" fill="#33475C"/>
        <path fill="#E6EFF7" d="M177.613 57.666L101.15 13.593l-1.557 39.61 76.464 44.072"/>
        <path d="M100.105 52.922L175.59 96.43l1.512-38.483-75.485-43.506-1.512 38.482zm75.952 44.854a.504.504 0 0 1-.25-.067L99.344 53.637a.504.504 0 0 1-.25-.453l1.556-39.61a.498.498 0 0 1 .748-.415l76.465 44.072c.16.092.257.267.25.453l-1.557 39.61a.498.498 0 0 1-.498.481z" fill="#33475C"/>
        <path d="M101.667 13.31l-.05 1.13-1.512 38.483L175.59 96.43l1.51-38.483s.045-.92.127-1.262l-75.56-43.374z" fill="#C78244"/>
        <path d="M103.412 20.223h-.02a.502.502 0 0 1-.48-.52l.08-2c.01-.275.268-.478.518-.48.276.013.49.245.48.52l-.08 2c-.01.27-.23.48-.498.48m-.196 4.996h-.02a.503.503 0 0 1-.48-.52l.078-2c.01-.276.27-.466.52-.48.275.012.49.244.48.52l-.08 2a.498.498 0 0 1-.498.48m-.197 4.995H103a.502.502 0 0 1-.48-.52l.078-1.998c.01-.277.27-.474.52-.48a.5.5 0 0 1 .48.52l-.08 1.998c-.01.27-.23.48-.5.48m-.195 4.996h-.02a.5.5 0 0 1-.48-.518l.08-2c.01-.276.27-.48.518-.48a.5.5 0 0 1 .48.52l-.078 2a.5.5 0 0 1-.5.48m-.195 4.995h-.02a.5.5 0 0 1-.48-.52l.078-1.998c.01-.278.272-.468.52-.482.275.012.49.244.48.52l-.08 2a.498.498 0 0 1-.498.48m-.196 4.995h-.02a.501.501 0 0 1-.48-.52l.08-1.998c.01-.276.27-.474.518-.48a.5.5 0 0 1 .48.52l-.078 1.998a.499.499 0 0 1-.5.48m-.196 4.997h-.02a.502.502 0 0 1-.48-.52l.08-2c.01-.275.272-.48.518-.48.276.012.49.245.48.52l-.08 2c-.01.27-.23.48-.498.48m2.434 3.544a.507.507 0 0 1-.25-.067l-1.732-.998a.502.502 0 0 1-.184-.685.502.502 0 0 1 .683-.183l1.733.998a.5.5 0 0 1-.249.934M109 56.24a.495.495 0 0 1-.25-.066l-1.732-1a.498.498 0 0 1-.184-.682.501.501 0 0 1 .683-.184l1.733 1a.498.498 0 0 1-.25.933m4.33 2.498a.497.497 0 0 1-.248-.067l-1.733-.998a.5.5 0 1 1 .5-.868l1.732 1a.5.5 0 0 1-.251.933m61.7 1.534h-.02a.499.499 0 0 1-.48-.52l.074-1.903.005-.106a.495.495 0 0 1 .528-.47.502.502 0 0 1 .47.53l-.5-.03.496.096-.076 1.92a.5.5 0 0 1-.5.482m-57.365.962a.51.51 0 0 1-.25-.067l-1.73-.998a.502.502 0 0 1 .498-.868l1.733.998a.501.501 0 0 1-.25.934m4.332 2.497a.498.498 0 0 1-.25-.066l-1.73-.998a.5.5 0 1 1 .498-.867l1.732.997a.5.5 0 0 1-.251.934m52.838 1.538h-.02a.502.502 0 0 1-.48-.52l.08-1.998a.517.517 0 0 1 .518-.48c.276.012.49.244.48.52l-.078 1.997a.499.499 0 0 1-.5.48m-48.504.96a.495.495 0 0 1-.25-.066l-1.732-.998a.5.5 0 1 1 .499-.868l1.733 1a.5.5 0 0 1-.249.933m4.332 2.497a.517.517 0 0 1-.25-.066l-1.732-1a.501.501 0 0 1 .499-.868l1.733 1a.5.5 0 0 1-.25.933m43.977 1.54h-.02a.503.503 0 0 1-.48-.52l.078-2c.01-.275.265-.47.52-.48.275.013.49.245.48.52l-.08 2a.498.498 0 0 1-.498.48m-39.645.956a.505.505 0 0 1-.25-.065l-1.732-.998a.5.5 0 0 1 .499-.868l1.732.997a.501.501 0 0 1-.25.934m4.332 2.498a.495.495 0 0 1-.25-.066l-1.732-.998a.5.5 0 0 1 .499-.868l1.734 1a.498.498 0 0 1-.25.932m35.116 1.543h-.02a.5.5 0 0 1-.48-.518l.08-2c.01-.276.265-.478.518-.48.276.012.49.244.48.52l-.08 2a.498.498 0 0 1-.498.48m-30.785.953a.495.495 0 0 1-.25-.066l-1.732-1a.5.5 0 1 1 .5-.867l1.733 1a.5.5 0 0 1-.252.932m4.332 2.497a.495.495 0 0 1-.25-.066l-1.732-1a.5.5 0 0 1 .5-.866l1.733 1a.5.5 0 0 1-.25.932m26.257 1.545h-.02a.502.502 0 0 1-.48-.52l.08-1.998c.01-.278.265-.466.518-.482.276.012.49.244.48.52l-.08 2a.498.498 0 0 1-.498.48m-21.925.95a.505.505 0 0 1-.25-.065l-1.733-1a.5.5 0 0 1 .499-.866l1.733 1a.5.5 0 0 1-.251.932m4.33 2.495a.488.488 0 0 1-.248-.066l-1.733-1a.499.499 0 1 1 .498-.866l1.733.998a.5.5 0 0 1-.249.933m17.398 1.548h-.02a.5.5 0 0 1-.48-.52l.078-1.998c.01-.277.267-.472.52-.48a.5.5 0 0 1 .48.52l-.08 1.998c-.01.27-.23.48-.498.48m-13.065.95a.51.51 0 0 1-.25-.067l-1.732-1a.5.5 0 0 1 .5-.866l1.733 1a.498.498 0 0 1-.25.932m4.332 2.498a.51.51 0 0 1-.25-.067l-1.732-1a.499.499 0 1 1 .499-.865l1.733 1a.5.5 0 0 1-.251.933m8.536 1.55h-.02a.504.504 0 0 1-.48-.52l.08-2c.01-.276.268-.478.52-.48.275.012.49.244.48.52l-.08 2a.499.499 0 0 1-.5.48m-4.203.947a.507.507 0 0 1-.25-.067l-1.732-1a.499.499 0 1 1 .5-.866l1.732 1a.498.498 0 0 1-.25.933m4.075 2.347a.503.503 0 0 1-.25-.066l-1.475-.85a.5.5 0 0 1 .499-.867l.973.562a.521.521 0 0 1 .283-.076c.276.012.49.245.48.52l-.012.298a.495.495 0 0 1-.497.48" fill="#B2743D"/>
        <path d="M143.922 78.846v4.529c0 2.84-2.323 3.82-5.16 2.18l-2.592-1.494c-2.84-1.638-5.16-5.302-5.16-8.14V71.39l12.912 7.456z" fill="#EBBA56"/>
        <path d="M131.508 72.257v3.662c0 2.64 2.25 6.17 4.912 7.708l2.59 1.495c1.334.77 2.573.937 3.4.462.652-.377 1.01-1.16 1.01-2.21v-4.24l-11.912-6.878zm9.823 14.592c-.864 0-1.833-.29-2.82-.862l-2.59-1.495c-2.984-1.72-5.412-5.568-5.412-8.574v-4.53a.498.498 0 0 1 .75-.432l12.913 7.455c.156.09.25.254.25.433v4.53c0 1.42-.536 2.513-1.51 3.074-.46.267-.996.4-1.58.4z" fill="#33475C"/>
        <path d="M140.07 83.86c-.34 0-.683-.085-.998-.267l-5.215-3.01a2.001 2.001 0 0 1 2-3.465l5.215 3.01a2.001 2.001 0 0 1-1.002 3.733" fill="#F9D07E"/>
        <path d="M134.86 77.35c-.518 0-1.024.27-1.302.75a1.504 1.504 0 0 0 .55 2.05l5.214 3.01c.693.398 1.65.14 2.05-.55a1.504 1.504 0 0 0-.55-2.05l-5.214-3.01a1.5 1.5 0 0 0-.747-.2m5.21 7.01a2.5 2.5 0 0 1-1.247-.333l-5.215-3.012a2.503 2.503 0 0 1-.916-3.415 2.507 2.507 0 0 1 3.415-.916l5.215 3.012a2.503 2.503 0 0 1 .916 3.415 2.509 2.509 0 0 1-2.168 1.25" fill="#33475C"/>
        <path d="M133.59 61.488c-8.014-2.03-2.582 9.902-2.582 9.902l6.457 3.728 6.456 3.728s5.434-5.66-2.58-12.882c0 0-1.827-1.572-3.875-2.754-2.122-1.225-3.876-1.722-3.876-1.722" fill="#C78244"/>
        <path d="M131.398 71.038l12.406 7.163c.482-.638 1.497-2.258 1.41-4.465-.095-2.48-1.51-4.97-4.21-7.4-.007-.008-1.808-1.55-3.79-2.693-1.977-1.14-3.646-1.64-3.756-1.67-1.55-.393-2.625-.25-3.19.426-1.452 1.738.267 6.69 1.13 8.64m12.523 8.308a.498.498 0 0 1-.25-.068l-12.912-7.455a.497.497 0 0 1-.205-.225c-.335-.736-3.21-7.26-1.053-9.84.834-.997 2.25-1.25 4.21-.754l.015.003c.073.02 1.84.527 3.99 1.77 2.064 1.19 3.875 2.742 3.952 2.808 2.92 2.632 4.448 5.366 4.548 8.133.12 3.296-1.85 5.386-1.933 5.474a.503.503 0 0 1-.36.154" fill="#33475C"/>
        <path d="M143.827 78.79l-12.724-7.345c-.48-.277-.904-.297-1.19-.116l-.004-.007s-2.813 1.623 1.193 3.58l12.724 7.346c.852.49 1.548.196 1.548-.655v-.362c0-.85-.696-1.95-1.548-2.442" fill="#F8C45B"/>
        <path d="M130.11 71.788c-.165.11-.68.5-.66.964.012.3.27.92 1.87 1.7l12.756 7.364c.335.194.57.196.67.138.116-.066.13-.273.13-.36v-.36c0-.673-.608-1.61-1.3-2.01l-12.724-7.347c-.336-.193-.57-.19-.67-.126a.391.391 0 0 1-.073.038m14.49 11.198c-.323 0-.674-.102-1.024-.303l-12.724-7.348c-1.55-.756-2.37-1.62-2.402-2.552-.04-1.16 1.158-1.863 1.208-1.892a.523.523 0 0 1 .08-.037c.45-.234 1.032-.178 1.614.16l12.724 7.345c1.01.58 1.8 1.845 1.8 2.875v.362c0 .547-.23.995-.63 1.225-.192.112-.41.166-.647.166" fill="#33475C"/>
        <path d="M143.644 78.686c.953.55 2.01.71 2.35.354.34-.355.558-4.3-.005-4.982 0 0-4.377-2.667-9.073-5.33-4.9-2.776-7.698-3.908-7.698-3.908s-1.276.664-1.665 1.13c-1.954 2.35 2 4.872 2 4.872s3.333 2.24 6.842 4.07c3.678 1.92 7.247 3.794 7.247 3.794" fill="#E6EFF7"/>
        <path d="M129.245 65.373c-.465.257-1.102.652-1.305.896-.348.417-.48.852-.407 1.326.19 1.222 1.718 2.438 2.29 2.803.044.03 3.362 2.252 6.806 4.05 3.677 1.92 7.246 3.793 7.246 3.793l.018.01c.897.517 1.622.518 1.746.434.23-.492.307-3.638-.006-4.26a380.16 380.16 0 0 0-8.963-5.264c-4.055-2.3-6.685-3.473-7.425-3.79m16.138 14.354c-.616 0-1.356-.245-1.98-.603a3366.07 3366.07 0 0 0-7.237-3.788c-3.494-1.824-6.857-4.077-6.89-4.1-.09-.056-2.433-1.572-2.73-3.486-.12-.764.09-1.478.625-2.12.432-.518 1.59-1.136 1.818-1.254a.497.497 0 0 1 .418-.02c.116.046 2.885 1.175 7.758 3.938 4.65 2.635 9.04 5.31 9.085 5.337a.5.5 0 0 1 .124.11c.695.84.546 5.055-.02 5.645-.228.24-.573.342-.97.342" fill="#33475C"/>
        <path d="M145.64 78.687c.228-.49.306-3.638-.007-4.26-.664-.403-4.706-2.85-8.963-5.263-4.056-2.3-6.686-3.473-7.426-3.79-.465.256-1.1.652-1.304.896-.35.418-.482.853-.407 1.326.19 1.223 1.717 2.44 2.29 2.804.043.03 3.362 2.253 6.805 4.05 3.678 1.92 7.247 3.794 7.247 3.794l.018.008c.896.518 1.624.524 1.746.435" fill="#F8C45B"/>
        <path d="M143.465 76.257c-.032 1.654 1.29 2.328 1.44 2.398.384.09.664.082.734.03.23-.49.306-3.636-.007-4.258 0 0-2.134.075-2.168 1.83" fill="#EBBA56"/>
        <path stroke="#33475C" stroke-width="5" stroke-linecap="round" stroke-linejoin="round" d="M103.345 94.06L56.5 117.103v4l34.675 20.02 46.844-27.046v-4z"/>
        <path d="M57 120.815l34.174 19.73 46.344-26.756v-3.393l-34.166-15.784-46.35 22.803v3.4zm34.174 20.81a.487.487 0 0 1-.25-.07L56.25 121.538a.502.502 0 0 1-.25-.433v-4c0-.19.108-.364.28-.448l46.844-23.045a.51.51 0 0 1 .43-.005l34.674 16.02c.177.08.29.257.29.453v4a.496.496 0 0 1-.25.432l-46.843 27.046a.497.497 0 0 1-.25.068z" stroke="#33475C" stroke-width="5" stroke-linecap="round" stroke-linejoin="round"/>
        <path stroke="#33475C" stroke-width="5" stroke-linecap="round" stroke-linejoin="round" d="M103.345 90.06L56.5 117.103l34.675 20.02 46.844-27.046z"/>
        <path d="M57.5 117.104l33.674 19.442 45.844-26.468-33.673-19.442L57.5 117.104zm33.674 20.52a.495.495 0 0 1-.25-.068l-34.674-20.02a.498.498 0 0 1 0-.865l46.844-27.044a.497.497 0 0 1 .5 0l34.675 20.02a.498.498 0 0 1 0 .864l-46.846 27.046a.492.492 0 0 1-.25.068z" stroke="#33475C" stroke-width="5" stroke-linecap="round" stroke-linejoin="round"/>
        <path stroke="#33475C" stroke-width="5" stroke-linecap="round" stroke-linejoin="round" d="M128.258 104.442l-24.913-14.384L56.5 117.104l34.675 20.02 37.083-21.41z"/>
        <path d="M57.5 117.104l33.674 19.442 36.583-21.122V104.73l-24.413-14.094L57.5 117.104zm33.674 20.52a.495.495 0 0 1-.25-.068l-34.674-20.02a.498.498 0 0 1 0-.865l46.844-27.044a.497.497 0 0 1 .5 0l24.913 14.383c.155.088.25.253.25.432v11.27c0 .18-.095.345-.25.434l-37.083 21.41a.497.497 0 0 1-.25.068z" stroke="#33475C" stroke-width="5" stroke-linecap="round" stroke-linejoin="round"/>
        <path stroke="#33475C" stroke-width="5" stroke-linecap="round" stroke-linejoin="round" d="M128.258 104.463l-9.76 5.635 9.76 5.636z"/>
        <path d="M119.497 110.098l8.26 4.77v-9.54l-8.26 4.77zm8.76 6.136a.503.503 0 0 1-.25-.068l-9.76-5.635a.497.497 0 1 1 0-.865l9.76-5.634a.499.499 0 1 1 .75.433v11.27c0 .18-.094.344-.25.433a.49.49 0 0 1-.25.068zM103.21 93.973l-6.166 3.56 18.495 10.677 6.163-3.56z" stroke="#33475C" stroke-width="5" stroke-linecap="round" stroke-linejoin="round"/>
        <path d="M98.044 97.533l17.494 10.1 5.165-2.982-17.494-10.1-5.166 2.983zm17.494 11.178a.496.496 0 0 1-.25-.067L96.794 97.966a.5.5 0 0 1 0-.866l6.165-3.56a.497.497 0 0 1 .5 0l18.493 10.68a.499.499 0 0 1 0 .864l-6.165 3.56a.504.504 0 0 1-.25.067zm-16.02-3.098a.998.998 0 0 1-.5-.134l-7.044-4.07a1 1 0 0 1 1-1.732l7.045 4.07a1 1 0 0 1-.502 1.865z" stroke="#33475C" stroke-width="5" stroke-linecap="round" stroke-linejoin="round"/>
        <path d="M88.952 107.646a1 1 0 0 1-.501-1.866l7.046-4.068a1 1 0 1 1 1 1.732l-7.045 4.067c-.157.09-.33.134-.498.134zm30.678 9.394a.754.754 0 0 1-.376-.1l-16.86-9.735a.751.751 0 0 1 .751-1.298l16.86 9.735c.358.208.48.667.274 1.025a.753.753 0 0 1-.65.375zm-4.224 2.44a.746.746 0 0 1-.375-.102l-16.858-9.734a.75.75 0 1 1 .75-1.299l16.86 9.735a.751.751 0 0 1-.376 1.399zm-4.223 2.437a.753.753 0 0 1-.375-.1l-16.86-9.735a.75.75 0 1 1 .75-1.299l16.86 9.735a.749.749 0 0 1-.375 1.399zm-3.867 1.373L80.4 107.75l-16.18 9.34 26.918 15.542z" stroke="#33475C" stroke-width="5" stroke-linecap="round" stroke-linejoin="round"/>
        <path d="M65.22 117.092l25.918 14.963 15.178-8.764L80.4 108.33l-15.18 8.764zm25.918 16.04a.493.493 0 0 1-.25-.067l-26.917-15.54a.502.502 0 0 1 0-.866l16.18-9.34a.497.497 0 0 1 .5 0l26.916 15.54a.499.499 0 0 1 0 .864l-16.178 9.34a.49.49 0 0 1-.25.068z" stroke="#33475C" stroke-width="5" stroke-linecap="round" stroke-linejoin="round"/>
        <path d="M100.533 124.092a.753.753 0 0 1-.375-.1l-20.66-11.928a.752.752 0 0 1 .751-1.3l20.658 11.928a.749.749 0 0 1-.375 1.399zm-4.223 2.438a.734.734 0 0 1-.376-.1L75.23 114.477a.75.75 0 0 1 .751-1.299l20.704 11.954a.749.749 0 0 1-.375 1.399zm-8.3.087a.752.752 0 0 1-.374-.1l-16.628-9.602a.75.75 0 1 1 .75-1.298l16.628 9.602a.748.748 0 1 1-.375 1.397z" stroke="#33475C" stroke-width="5" stroke-linecap="round" stroke-linejoin="round"/>
        <path d="M91.174 139.623a.496.496 0 0 1-.25-.067l-32.79-18.932a.5.5 0 1 1 .501-.863l32.54 18.786 45.035-26a.498.498 0 1 1 .499.864l-45.286 26.146a.496.496 0 0 1-.25.067z" stroke="#33475C" stroke-width="5" stroke-linecap="round" stroke-linejoin="round"/>
        <path fill="#FFF" d="M103.345 94.06L56.5 117.103v4l34.675 20.02 46.844-27.046v-4"/>
        <path d="M57 120.815l34.174 19.73 46.344-26.756v-3.393l-34.166-15.784-46.35 22.803v3.4zm34.174 20.81a.487.487 0 0 1-.25-.07L56.25 121.538a.502.502 0 0 1-.25-.433v-4c0-.19.108-.364.28-.448l46.844-23.045a.51.51 0 0 1 .43-.005l34.674 16.02c.177.08.29.257.29.453v4a.496.496 0 0 1-.25.432l-46.843 27.046a.497.497 0 0 1-.25.068z" fill="#33475C"/>
        <path fill="#FFF" d="M103.345 90.06L56.5 117.103l34.675 20.02 46.844-27.046"/>
        <path d="M57.5 117.104l33.674 19.442 45.844-26.468-33.673-19.442L57.5 117.104zm33.674 20.52a.495.495 0 0 1-.25-.068l-34.674-20.02a.498.498 0 0 1 0-.865l46.844-27.044a.497.497 0 0 1 .5 0l34.675 20.02a.498.498 0 0 1 0 .864l-46.846 27.046a.492.492 0 0 1-.25.068z" fill="#33475C"/>
        <path fill="#FFF" d="M128.258 104.442l-24.913-14.384L56.5 117.104l34.675 20.02 37.083-21.41"/>
        <path d="M57.5 117.104l33.674 19.442 36.583-21.122V104.73l-24.413-14.094L57.5 117.104zm33.674 20.52a.495.495 0 0 1-.25-.068l-34.674-20.02a.498.498 0 0 1 0-.865l46.844-27.044a.497.497 0 0 1 .5 0l24.913 14.383c.155.088.25.253.25.432v11.27c0 .18-.095.345-.25.434l-37.083 21.41a.497.497 0 0 1-.25.068z" fill="#33475C"/>
        <path fill="#E6EFF7" d="M128.258 104.463l-9.76 5.635 9.76 5.636"/>
        <path d="M119.497 110.098l8.26 4.77v-9.54l-8.26 4.77zm8.76 6.136a.503.503 0 0 1-.25-.068l-9.76-5.635a.497.497 0 1 1 0-.865l9.76-5.634a.499.499 0 1 1 .75.433v11.27c0 .18-.094.344-.25.433a.49.49 0 0 1-.25.068z" fill="#33475C"/>
        <path fill="#6A78D1" d="M103.21 93.973l-6.166 3.56 18.495 10.677 6.163-3.56"/>
        <path d="M98.044 97.533l17.494 10.1 5.165-2.982-17.494-10.1-5.166 2.983zm17.494 11.178a.496.496 0 0 1-.25-.067L96.794 97.966a.5.5 0 0 1 0-.866l6.165-3.56a.497.497 0 0 1 .5 0l18.493 10.68a.499.499 0 0 1 0 .864l-6.165 3.56a.504.504 0 0 1-.25.067z" fill="#6A78D1"/>
        <path d="M99.518 105.613a.998.998 0 0 1-.5-.134l-7.044-4.07a1 1 0 0 1 1-1.732l7.045 4.07a1 1 0 0 1-.502 1.865" fill="#33475C"/>
        <path d="M88.952 107.646a1 1 0 0 1-.501-1.866l7.046-4.068a1 1 0 1 1 1 1.732l-7.045 4.067c-.157.09-.33.134-.498.134m30.676 9.395a.754.754 0 0 1-.376-.1l-16.86-9.735a.751.751 0 0 1 .751-1.298l16.86 9.735c.358.208.48.667.274 1.025a.753.753 0 0 1-.65.375m-4.223 2.438a.746.746 0 0 1-.375-.102l-16.858-9.734a.75.75 0 1 1 .75-1.299l16.86 9.735a.751.751 0 0 1-.376 1.399m-4.224 2.438a.753.753 0 0 1-.375-.1l-16.86-9.735a.75.75 0 1 1 .75-1.299l16.86 9.735a.749.749 0 0 1-.375 1.399" fill="#33475C"/>
        <path fill="#D5DAF1" d="M107.316 123.29L80.4 107.75l-16.18 9.34 26.918 15.542"/>
        <path d="M65.22 117.092l25.918 14.963 15.178-8.764L80.4 108.33l-15.18 8.764zm25.918 16.04a.493.493 0 0 1-.25-.067l-26.917-15.54a.502.502 0 0 1 0-.866l16.18-9.34a.497.497 0 0 1 .5 0l26.916 15.54a.499.499 0 0 1 0 .864l-16.178 9.34a.49.49 0 0 1-.25.068z" fill="#D5DAF1"/>
        <path d="M100.533 124.092a.753.753 0 0 1-.375-.1l-20.66-11.928a.752.752 0 0 1 .751-1.3l20.658 11.928a.749.749 0 0 1-.375 1.399m-4.222 2.439a.734.734 0 0 1-.376-.1L75.23 114.477a.75.75 0 0 1 .751-1.299l20.704 11.954a.749.749 0 0 1-.375 1.399m-8.3.086a.752.752 0 0 1-.374-.1l-16.628-9.602a.75.75 0 1 1 .75-1.298l16.628 9.602a.748.748 0 1 1-.375 1.397" fill="#33475C"/>
        <path d="M91.174 139.623a.496.496 0 0 1-.25-.067l-32.79-18.932a.5.5 0 1 1 .501-.863l32.54 18.786 45.035-26a.498.498 0 1 1 .499.864l-45.286 26.146a.496.496 0 0 1-.25.067" fill="#33475C"/>
        <path d="M118.398 137.77v1.837l-31.11-17.96a2.41 2.41 0 0 0-.425-.188c-.03-.012-.065-.018-.098-.028a3.106 3.106 0 0 0-.402-.096l-.072-.01a4.479 4.479 0 0 0-.486-.043h-.015a4.548 4.548 0 0 0-.562.02c-.596.056-1.19.22-1.672.498l-24.47 14.128v-1.368H55.69v4.012c0 .02.002.037.003.056.005.09.022.176.054.26l.03.08c.038.078.09.152.15.224.022.026.04.052.064.077.09.09.198.177.33.254h.002l33.15 19.14.003.002c.133.076.283.138.44.19.044.015.09.024.136.037.123.035.25.065.383.086l.14.017c.147.018.297.03.45.03l.1.002c.187-.002.377-.013.567-.038h.002c.54-.07 1.07-.23 1.51-.482l26.968-15.57c.634-.366.93-.84.896-1.285v-3.884H118.4z" stroke="#33475C" stroke-width="5" stroke-linecap="round" stroke-linejoin="round"/>
        <path d="M56.188 135.06v3.513c.003.07.01.107.025.144.03.07.055.108.09.15.108.12.183.176.266.225l33.15 19.14c.095.054.21.103.352.15l-.024.51.137-.48c.106.03.214.055.328.074l.12.015c.13.018.262.026.397.028.25.01.426-.01.596-.03.505-.067.964-.212 1.327-.42l26.967-15.57c.42-.243.668-.554.648-.814l-.002-3.423h-1.668v1.338c0 .18-.095.344-.25.432a.497.497 0 0 1-.5 0l-31.11-17.96a1.825 1.825 0 0 0-.336-.147 4 4 0 0 0-.425-.104 3.825 3.825 0 0 0-1.003-.029c-.554.054-1.075.207-1.468.434l-24.47 14.127a.498.498 0 1 1-.75-.432v-.867H56.19zm34.938 24.47l-.113-.002a4.651 4.651 0 0 1-.503-.034l-.16-.022a3.665 3.665 0 0 1-.438-.098c-.07-.017-.115-.03-.16-.043a2.763 2.763 0 0 1-.53-.232l-33.153-19.14c-.16-.092-.302-.2-.435-.334a1.815 1.815 0 0 1-.09-.104 1.55 1.55 0 0 1-.22-.334c-.008-.015-.04-.097-.047-.112a1.425 1.425 0 0 1-.087-.424l-.002-4.09a.5.5 0 0 1 .5-.5h3.4c.275 0 .5.225.5.5v.502l23.718-13.693c.522-.303 1.17-.497 1.874-.565a5.131 5.131 0 0 1 1.187.028c.242.04.395.077.543.122l.116.032c.182.06.355.136.51.225l30.362 17.53v-.97a.5.5 0 0 1 .5-.5h2.668c.277 0 .5.223.5.5v3.884c.05.628-.367 1.267-1.146 1.718l-26.968 15.57c-.476.273-1.062.462-1.696.545a5.856 5.856 0 0 1-.63.04z" stroke="#33475C" stroke-width="5" stroke-linecap="round" stroke-linejoin="round"/>
        <path d="M89.47 154.665l-33.15-19.14c-.953-.55-.832-1.52.268-2.154l26.967-15.57c1.1-.634 2.78-.703 3.732-.153l33.15 19.14c.953.55.833 1.518-.267 2.154l-26.968 15.57c-1.1.635-2.78.705-3.732.155z" stroke="#33475C" stroke-width="5" stroke-linecap="round" stroke-linejoin="round"/>
        <path d="M89.72 154.232c.803.464 2.283.393 3.232-.154l26.968-15.57c.407-.236.66-.538.66-.788 0-.24-.246-.417-.392-.502l-33.15-19.14c-.804-.46-2.284-.39-3.233.156l-26.967 15.57c-.407.236-.66.536-.66.786 0 .24.246.418.393.503l33.15 19.14zm1.375 1.306c-.695 0-1.364-.146-1.875-.44l-33.15-19.14c-.576-.33-.892-.818-.892-1.368 0-.624.422-1.226 1.16-1.652l26.967-15.57c1.262-.73 3.12-.798 4.232-.155l33.15 19.14c.576.332.893.817.893 1.367 0 .625-.423 1.228-1.16 1.653l-26.968 15.57c-.682.393-1.538.595-2.357.595z" stroke="#33475C" stroke-width="5" stroke-linecap="round" stroke-linejoin="round"/>
        <path d="M120.438 136.786l-33.15-19.14c-.535-.308-1.3-.415-2.06-.342l-2.58 20.746c-.105.84.997 1.475 2.45 1.415l35.934-1.49c.125-.44-.06-.88-.594-1.19z" stroke="#33475C" stroke-width="5" stroke-linecap="round" stroke-linejoin="round"/>
        <path d="M85.67 117.782l-2.527 20.33c-.006.044-.022.18.132.347.238.257.842.55 1.8.506l35.428-1.47a.85.85 0 0 0-.315-.277l-33.15-19.14c-.334-.193-.825-.298-1.362-.298h-.005zm-.76 22.187c-1.01 0-1.884-.306-2.37-.834-.307-.333-.44-.73-.39-1.147l2.63-21.146.4-.04c.917-.086 1.752.06 2.357.41l33.15 19.14c.713.41 1.022 1.068.826 1.758l-.1.348-.36.015-35.936 1.49c-.07.003-.14.004-.208.004z" stroke="#33475C" stroke-width="5" stroke-linecap="round" stroke-linejoin="round"/>
        <path d="M93.667 139.11l-8.57.355c-1.452.06-2.554-.576-2.45-1.415l.616-4.947-27.51 1.14c-.183.47-.005.952.567 1.283l33.15 19.138c.573.332 1.408.434 2.222.33l1.975-15.884z" stroke="#33475C" stroke-width="5" stroke-linecap="round" stroke-linejoin="round"/>
        <path d="M56.209 134.724c.047.134.166.257.36.37l33.15 19.138c.376.217.93.32 1.526.298l1.853-14.896-7.982.33c-1.088.032-2.058-.264-2.577-.828-.306-.333-.44-.73-.39-1.147l.544-4.363-26.486 1.097zm34.87 20.81c-.712 0-1.367-.152-1.86-.437l-33.15-19.14c-.764-.44-1.066-1.168-.784-1.895l.118-.306 28.427-1.178-.686 5.534c-.006.044-.022.178.132.346.238.258.845.558 1.8.507l9.16-.38-2.095 16.854-.384.05c-.23.028-.456.043-.677.043z" stroke="#33475C" stroke-width="5" stroke-linecap="round" stroke-linejoin="round"/>
        <path d="M91.126 157.53l-.114-.002a4.65 4.65 0 0 1-.502-.034l-.16-.022a3.918 3.918 0 0 1-.438-.097 2.848 2.848 0 0 1-.69-.276l-32-18.474a.5.5 0 0 1-.183-.683.496.496 0 0 1 .682-.18L89.72 156.23c.094.054.21.104.352.15l-.023.51.135-.48c.105.03.213.056.328.074l.12.016c.13.016.263.024.397.026.25-.025.427-.01.596-.03.504-.067.963-.21 1.326-.42l25.954-14.985a.499.499 0 1 1 .499.866L93.45 156.94c-.475.275-1.063.463-1.697.546-.212.025-.42.038-.63.04z" stroke="#33475C" stroke-width="5" stroke-linecap="round" stroke-linejoin="round"/>
        <path d="M118.398 137.77v1.837l-31.11-17.96a2.41 2.41 0 0 0-.425-.188c-.03-.012-.065-.018-.098-.028a3.106 3.106 0 0 0-.402-.096l-.072-.01a4.479 4.479 0 0 0-.486-.043h-.015a4.548 4.548 0 0 0-.562.02c-.596.056-1.19.22-1.672.498l-24.47 14.128v-1.368H55.69v4.012c0 .02.002.037.003.056.005.09.022.176.054.26l.03.08c.038.078.09.152.15.224.022.026.04.052.064.077.09.09.198.177.33.254h.002l33.15 19.14.003.002c.133.076.283.138.44.19.044.015.09.024.136.037.123.035.25.065.383.086l.14.017c.147.018.297.03.45.03l.1.002c.187-.002.377-.013.567-.038h.002c.54-.07 1.07-.23 1.51-.482l26.968-15.57c.634-.366.93-.84.896-1.285v-3.884H118.4z" fill="#FFF"/>
        <path d="M56.188 135.06v3.513c.003.07.01.107.025.144.03.07.055.108.09.15.108.12.183.176.266.225l33.15 19.14c.095.054.21.103.352.15l-.024.51.137-.48c.106.03.214.055.328.074l.12.015c.13.018.262.026.397.028.25.01.426-.01.596-.03.505-.067.964-.212 1.327-.42l26.967-15.57c.42-.243.668-.554.648-.814l-.002-3.423h-1.668v1.338c0 .18-.095.344-.25.432a.497.497 0 0 1-.5 0l-31.11-17.96a1.825 1.825 0 0 0-.336-.147 4 4 0 0 0-.425-.104 3.825 3.825 0 0 0-1.003-.029c-.554.054-1.075.207-1.468.434l-24.47 14.127a.498.498 0 1 1-.75-.432v-.867H56.19zm34.938 24.47l-.113-.002a4.651 4.651 0 0 1-.503-.034l-.16-.022a3.665 3.665 0 0 1-.438-.098c-.07-.017-.115-.03-.16-.043a2.763 2.763 0 0 1-.53-.232l-33.153-19.14c-.16-.092-.302-.2-.435-.334a1.815 1.815 0 0 1-.09-.104 1.55 1.55 0 0 1-.22-.334c-.008-.015-.04-.097-.047-.112a1.425 1.425 0 0 1-.087-.424l-.002-4.09a.5.5 0 0 1 .5-.5h3.4c.275 0 .5.225.5.5v.502l23.718-13.693c.522-.303 1.17-.497 1.874-.565a5.131 5.131 0 0 1 1.187.028c.242.04.395.077.543.122l.116.032c.182.06.355.136.51.225l30.362 17.53v-.97a.5.5 0 0 1 .5-.5h2.668c.277 0 .5.223.5.5v3.884c.05.628-.367 1.267-1.146 1.718l-26.968 15.57c-.476.273-1.062.462-1.696.545a5.856 5.856 0 0 1-.63.04z" fill="#33475C"/>
        <path d="M89.47 154.665l-33.15-19.14c-.953-.55-.832-1.52.268-2.154l26.967-15.57c1.1-.634 2.78-.703 3.732-.153l33.15 19.14c.953.55.833 1.518-.267 2.154l-26.968 15.57c-1.1.635-2.78.705-3.732.155" fill="#E6EFF7"/>
        <path d="M89.72 154.232c.803.464 2.283.393 3.232-.154l26.968-15.57c.407-.236.66-.538.66-.788 0-.24-.246-.417-.392-.502l-33.15-19.14c-.804-.46-2.284-.39-3.233.156l-26.967 15.57c-.407.236-.66.536-.66.786 0 .24.246.418.393.503l33.15 19.14zm1.375 1.306c-.695 0-1.364-.146-1.875-.44l-33.15-19.14c-.576-.33-.892-.818-.892-1.368 0-.624.422-1.226 1.16-1.652l26.967-15.57c1.262-.73 3.12-.798 4.232-.155l33.15 19.14c.576.332.893.817.893 1.367 0 .625-.423 1.228-1.16 1.653l-26.968 15.57c-.682.393-1.538.595-2.357.595z" fill="#33475C"/>
        <path d="M120.438 136.786l-33.15-19.14c-.535-.308-1.3-.415-2.06-.342l-2.58 20.746c-.105.84.997 1.475 2.45 1.415l35.934-1.49c.125-.44-.06-.88-.594-1.19" fill="#FFF"/>
        <path d="M85.67 117.782l-2.527 20.33c-.006.044-.022.18.132.347.238.257.842.55 1.8.506l35.428-1.47a.85.85 0 0 0-.315-.277l-33.15-19.14c-.334-.193-.825-.298-1.362-.298h-.005zm-.76 22.187c-1.01 0-1.884-.306-2.37-.834-.307-.333-.44-.73-.39-1.147l2.63-21.146.4-.04c.917-.086 1.752.06 2.357.41l33.15 19.14c.713.41 1.022 1.068.826 1.758l-.1.348-.36.015-35.936 1.49c-.07.003-.14.004-.208.004z" fill="#33475C"/>
        <path d="M93.667 139.11l-8.57.355c-1.452.06-2.554-.576-2.45-1.415l.616-4.947-27.51 1.14c-.183.47-.005.952.567 1.283l33.15 19.138c.573.332 1.408.434 2.222.33l1.975-15.884z" fill="#D4E7F8"/>
        <path d="M56.209 134.724c.047.134.166.257.36.37l33.15 19.138c.376.217.93.32 1.526.298l1.853-14.896-7.982.33c-1.088.032-2.058-.264-2.577-.828-.306-.333-.44-.73-.39-1.147l.544-4.363-26.486 1.097zm34.87 20.81c-.712 0-1.367-.152-1.86-.437l-33.15-19.14c-.764-.44-1.066-1.168-.784-1.895l.118-.306 28.427-1.178-.686 5.534c-.006.044-.022.178.132.346.238.258.845.558 1.8.507l9.16-.38-2.095 16.854-.384.05c-.23.028-.456.043-.677.043z" fill="#33475C"/>
        <path d="M91.126 157.53l-.114-.002a4.65 4.65 0 0 1-.502-.034l-.16-.022a3.918 3.918 0 0 1-.438-.097 2.848 2.848 0 0 1-.69-.276l-32-18.474a.5.5 0 0 1-.183-.683.496.496 0 0 1 .682-.18L89.72 156.23c.094.054.21.104.352.15l-.023.51.135-.48c.105.03.213.056.328.074l.12.016c.13.016.263.024.397.026.25-.025.427-.01.596-.03.504-.067.963-.21 1.326-.42l25.954-14.985a.499.499 0 1 1 .499.866L93.45 156.94c-.475.275-1.063.463-1.697.546-.212.025-.42.038-.63.04z" fill="#33475C"/>
        <path d="M145.917 139.415a2 2 0 0 1-1.002-3.732l16.482-9.517a2 2 0 1 1 2 3.464l-16.482 9.516c-.314.183-.66.27-.998.27z" stroke="#33475C" stroke-width="5" stroke-linecap="round" stroke-linejoin="round"/>
        <path d="M162.394 126.397c-.26 0-.516.068-.746.202l-16.483 9.515a1.505 1.505 0 0 0-.55 2.05c.4.69 1.36.95 2.048.548l16.483-9.515a1.502 1.502 0 0 0-.751-2.8zm-16.478 13.518c-.89 0-1.72-.48-2.167-1.25a2.501 2.501 0 0 1 .914-3.415l16.482-9.516a2.466 2.466 0 0 1 1.894-.252 2.485 2.485 0 0 1 1.522 1.166 2.504 2.504 0 0 1-.916 3.415l-16.482 9.516c-.377.218-.81.335-1.248.335z" stroke="#33475C" stroke-width="5" stroke-linecap="round" stroke-linejoin="round"/>
        <path stroke="#33475C" stroke-width="5" stroke-linecap="round" stroke-linejoin="round" d="M169.887 132.043l-.296-2.007-1.49-2.237-1.148-.627-3.865 2.265-2.492 1.355.054.036-32.102 18.47 1.42.926.934 1.592.748 2.512 32.114-18.48-.014-.057 2.44-1.326z"/>
        <path d="M127.683 150.487l-3.277 4.598 5.596-.666a.54.54 0 0 1 .097-.02.923.923 0 0 1 .127-.06h.002l39.006-22.304a.91.91 0 0 1 .134-.088c.11-.06.222-.3.222-.704 0-1.19-.904-2.754-1.933-3.348-.28-.16-.536-.223-.688-.164-.026.01-.052.02-.078.026l.004.006-38.565 22.265a.933.933 0 0 1-.457.284.18.18 0 0 0-.108.072.759.759 0 0 1-.085.1zm-5.404 6.857a1 1 0 0 1-.815-1.58l4.678-6.562c.044-.06.093-.115.147-.164.19-.215.42-.387.676-.51a.869.869 0 0 1 .136-.098l38.796-22.398c.015-.01.067-.04.12-.07l.088-.05c.125-.07.26-.113.4-.127.67-.172 1.425-.04 2.153.38 1.643.948 2.932 3.18 2.932 5.08 0 1.05-.4 1.898-1.106 2.363a1.046 1.046 0 0 1-.137.096L131.2 156.087a1.192 1.192 0 0 1-.14.066 2.265 2.265 0 0 1-.485.188c-.067.024-.137.04-.208.05l-7.972.948c-.04.004-.08.006-.12.006z" stroke="#33475C" stroke-width="5" stroke-linecap="round" stroke-linejoin="round"/>
        <path d="M131.36 153.722c0-1.505-1.066-3.352-2.37-4.104-.862-.498-1.618-.397-2.033.164 0 0-1.277.97-2.64 2.737-1.374 1.778-2.038 3.824-2.038 3.824s2.7.046 4.54-.145c1.73-.182 3.425-.812 3.425-.812.667-.1 1.115-.694 1.115-1.666z" stroke="#33475C" stroke-width="5" stroke-linecap="round" stroke-linejoin="round"/>
        <path d="M127.937 149.795a.686.686 0 0 0-.578.283.474.474 0 0 1-.1.1c-.012.01-1.246.96-2.548 2.646-.84 1.09-1.41 2.3-1.71 3.025.92 0 2.547-.022 3.766-.15 1.647-.17 3.287-.775 3.304-.78a.474.474 0 0 1 .1-.026c.62-.094.688-.85.688-1.172 0-1.326-.97-3.008-2.12-3.672-.17-.1-.49-.255-.803-.255zm-4.91 7.054c-.434 0-.72-.005-.756-.006a.5.5 0 0 1-.467-.654c.03-.087.708-2.15 2.117-3.977 1.246-1.614 2.415-2.577 2.68-2.787.592-.735 1.62-.83 2.64-.24 1.47.847 2.62 2.84 2.62 4.536 0 1.167-.568 1.986-1.486 2.15-.294.107-1.87.653-3.502.823-1.266.132-2.902.154-3.844.154z" stroke="#33475C" stroke-width="5" stroke-linecap="round" stroke-linejoin="round"/>
        <path d="M124.774 153.838c-.234-.135-.446-.15-.607-.075l-.272.373-1.616 2.208 2.74-.316.41-.048c.153-.098.25-.295.25-.573 0-.576-.408-1.28-.906-1.57z" stroke="#33475C" stroke-width="5" stroke-linecap="round" stroke-linejoin="round"/>
        <path d="M124.444 154.232l-1.085 1.484 1.812-.21a.59.59 0 0 0 .008-.1c0-.396-.312-.937-.656-1.136a.663.663 0 0 0-.08-.038zm-2.165 2.612a.501.501 0 0 1-.433-.248.495.495 0 0 1 .03-.547l1.887-2.583a.523.523 0 0 1 .19-.156c.322-.15.7-.118 1.07.094.65.376 1.156 1.255 1.156 2.003 0 .436-.175.8-.48.994a.507.507 0 0 1-.214.077l-3.15.364a.356.356 0 0 1-.057.004zm48.311-25.6c0-1.545-1.094-3.44-2.432-4.214-.59-.34-1.123-.394-1.546-.232l-.01-.018-.11.064a1.46 1.46 0 0 0-.095.054l-13.5 7.795c.392-.078.86.01 1.366.302 1.358.784 2.47 2.708 2.47 4.275 0 .58-.167 1.012-.428 1.31l13.546-7.744-.003-.01c.457-.247.744-.793.744-1.582z" stroke="#33475C" stroke-width="5" stroke-linecap="round" stroke-linejoin="round"/>
        <path d="M155.276 134.474c1.242.957 2.2 2.61 2.41 4.164l11.55-6.602a.794.794 0 0 1 .134-.088c.11-.06.22-.3.22-.704 0-1.19-.902-2.754-1.932-3.348-.278-.16-.536-.224-.687-.164a.97.97 0 0 1-.076.026l.003.006-11.62 6.71zm1.03 7.106a.999.999 0 0 1-.753-1.658c.148-.17.18-.448.18-.652 0-1.21-.92-2.804-1.97-3.41-.26-.15-.505-.218-.67-.187-.48.1-.96-.17-1.13-.628a.996.996 0 0 1 .435-1.218l13.5-7.795c.015-.01.067-.04.122-.07l.086-.05c.124-.07.26-.114.4-.127.67-.172 1.425-.04 2.152.378 1.645.95 2.933 3.18 2.933 5.08 0 1.05-.4 1.9-1.104 2.365a.963.963 0 0 1-.138.095l-13.546 7.746c-.156.087-.327.13-.496.13z" stroke="#33475C" stroke-width="5" stroke-linecap="round" stroke-linejoin="round"/>
        <path d="M145.917 139.415a2 2 0 0 1-1.002-3.732l16.482-9.517a2 2 0 1 1 2 3.464l-16.482 9.516c-.314.183-.66.27-.998.27" fill="#FEF9F0"/>
        <path d="M162.394 126.397c-.26 0-.516.068-.746.202l-16.483 9.515a1.505 1.505 0 0 0-.55 2.05c.4.69 1.36.95 2.048.548l16.483-9.515a1.502 1.502 0 0 0-.751-2.8m-16.48 13.517a2.501 2.501 0 0 1-1.252-4.665l16.482-9.516a2.466 2.466 0 0 1 1.894-.252 2.485 2.485 0 0 1 1.522 1.166 2.504 2.504 0 0 1-.916 3.415l-16.482 9.516c-.377.218-.81.335-1.248.335" fill="#33475C"/>
        <path fill="#98ACC3" d="M169.887 132.043l-.296-2.007-1.49-2.237-1.148-.627-3.865 2.265-2.492 1.355.054.036-32.102 18.47 1.42.926.934 1.592.748 2.512 32.114-18.48-.014-.057 2.44-1.326"/>
        <path d="M127.683 150.487l-3.277 4.598 5.596-.666a.54.54 0 0 1 .097-.02.923.923 0 0 1 .127-.06h.002l39.006-22.304a.91.91 0 0 1 .134-.088c.11-.06.222-.3.222-.704 0-1.19-.904-2.754-1.933-3.348-.28-.16-.536-.223-.688-.164-.026.01-.052.02-.078.026l.004.006-38.565 22.265a.933.933 0 0 1-.457.284.18.18 0 0 0-.108.072.759.759 0 0 1-.085.1m-5.404 6.858a1 1 0 0 1-.815-1.58l4.678-6.562c.044-.06.093-.115.147-.164.19-.215.42-.387.676-.51a.869.869 0 0 1 .136-.098l38.796-22.398c.015-.01.067-.04.12-.07l.088-.05c.125-.07.26-.113.4-.127.67-.172 1.425-.04 2.153.38 1.643.948 2.932 3.18 2.932 5.08 0 1.05-.4 1.898-1.106 2.363a1.046 1.046 0 0 1-.137.096L131.2 156.087a1.192 1.192 0 0 1-.14.066 2.265 2.265 0 0 1-.485.188c-.067.024-.137.04-.208.05l-7.972.948c-.04.004-.08.006-.12.006" fill="#33475C"/>
        <path d="M131.36 153.722c0-1.505-1.066-3.352-2.37-4.104-.862-.498-1.618-.397-2.033.164 0 0-1.277.97-2.64 2.737-1.374 1.778-2.038 3.824-2.038 3.824s2.7.046 4.54-.145c1.73-.182 3.425-.812 3.425-.812.667-.1 1.115-.694 1.115-1.666" fill="#FEF9F0"/>
        <path d="M127.937 149.795a.686.686 0 0 0-.578.283.474.474 0 0 1-.1.1c-.012.01-1.246.96-2.548 2.646-.84 1.09-1.41 2.3-1.71 3.025.92 0 2.547-.022 3.766-.15 1.647-.17 3.287-.775 3.304-.78a.474.474 0 0 1 .1-.026c.62-.094.688-.85.688-1.172 0-1.326-.97-3.008-2.12-3.672-.17-.1-.49-.255-.803-.255m-4.91 7.054c-.434 0-.72-.005-.756-.006a.5.5 0 0 1-.467-.654c.03-.087.708-2.15 2.117-3.977 1.246-1.614 2.415-2.577 2.68-2.787.592-.735 1.62-.83 2.64-.24 1.47.847 2.62 2.84 2.62 4.536 0 1.167-.568 1.986-1.486 2.15-.294.107-1.87.653-3.502.823-1.266.132-2.902.154-3.844.154" fill="#33475C"/>
        <path d="M124.774 153.838c-.234-.135-.446-.15-.607-.075l-.272.373-1.616 2.208 2.74-.316.41-.048c.153-.098.25-.295.25-.573 0-.576-.408-1.28-.906-1.57" fill="#FEF9F0"/>
        <path d="M124.444 154.232l-1.085 1.484 1.812-.21a.59.59 0 0 0 .008-.1c0-.396-.312-.937-.656-1.136a.663.663 0 0 0-.08-.038m-2.165 2.612a.501.501 0 0 1-.433-.248.495.495 0 0 1 .03-.547l1.887-2.583a.523.523 0 0 1 .19-.156c.322-.15.7-.118 1.07.094.65.376 1.156 1.255 1.156 2.003 0 .436-.175.8-.48.994a.507.507 0 0 1-.214.077l-3.15.364a.356.356 0 0 1-.057.004" fill="#33475C"/>
        <path d="M170.59 131.244c0-1.545-1.094-3.44-2.432-4.214-.59-.34-1.123-.394-1.546-.232l-.01-.018-.11.064a1.46 1.46 0 0 0-.095.054l-13.5 7.795c.392-.078.86.01 1.366.302 1.358.784 2.47 2.708 2.47 4.275 0 .58-.167 1.012-.428 1.31l13.546-7.744-.003-.01c.457-.247.744-.793.744-1.582" fill="#506E91"/>
        <path d="M155.276 134.474c1.242.957 2.2 2.61 2.41 4.164l11.55-6.602a.794.794 0 0 1 .134-.088c.11-.06.22-.3.22-.704 0-1.19-.902-2.754-1.932-3.348-.278-.16-.536-.224-.687-.164a.97.97 0 0 1-.076.026l.003.006-11.62 6.71zm1.03 7.106a.999.999 0 0 1-.753-1.658c.148-.17.18-.448.18-.652 0-1.21-.92-2.804-1.97-3.41-.26-.15-.505-.218-.67-.187-.48.1-.96-.17-1.13-.628a.996.996 0 0 1 .435-1.218l13.5-7.795c.015-.01.067-.04.122-.07l.086-.05c.124-.07.26-.114.4-.127.67-.172 1.425-.04 2.152.378 1.645.95 2.933 3.18 2.933 5.08 0 1.05-.4 1.9-1.104 2.365a.963.963 0 0 1-.138.095l-13.546 7.746c-.156.087-.327.13-.496.13z" fill="#33475C"/>
    </g>
</svg>
