<?xml version="1.0" encoding="UTF-8"?>
<svg width="160px" height="183px" viewBox="0 0 160 183" version="1.1" xmlns="http://www.w3.org/2000/svg" xmlns:xlink="http://www.w3.org/1999/xlink">
    <!-- Generator: Sketch 49.3 (51167) - http://www.bohemiancoding.com/sketch -->
    <title>Page 1</title>
    <desc>Created with Sketch.</desc>
    <defs>
        <polygon id="path-1" points="3.79064887e-05 0.7864 160 0.7864 160 91.9999 3.79064887e-05 91.9999"></polygon>
    </defs>
    <g id="Page-1" stroke="none" stroke-width="1" fill="none" fill-rule="evenodd">
        <g id="Service-Hub-Professional" transform="translate(-86.000000, -74.000000)">
            <g id="Page-1" transform="translate(86.000000, 76.000000)">
                <g id="Group-3" transform="translate(0.000000, 88.462000)">
                    <mask id="mask-2" fill="white">
                        <use xlink:href="#path-1"></use>
                    </mask>
                    <g id="Clip-2"></g>
                    <path d="M85.0597,1.9909 C82.2767,0.3849 77.7227,0.3849 74.9397,1.9909 L2.0777,44.0579 C-0.7053,45.6649 -0.6903,48.2689 2.1097,49.8449 L74.9087,90.8179 C77.7087,92.3939 82.2907,92.3939 85.0917,90.8179 L157.8907,49.8449 C160.6907,48.2689 160.7057,45.6649 157.9217,44.0579 L85.0597,1.9909 Z" id="Fill-1" fill-opacity="0.25" fill="#F9D28C" mask="url(#mask-2)"></path>
                </g>
                <polygon id="Stroke-4" stroke="#33475C" stroke-width="5" stroke-linecap="round" stroke-linejoin="round" points="144.5465 117.2352 139.2745 120.2792 144.5465 123.3232 149.8185 120.2792"></polygon>
                <polygon id="Stroke-5" stroke="#33475C" stroke-width="5" stroke-linecap="round" stroke-linejoin="round" points="149.8185 69.8406 144.5465 72.8846 144.5465 123.3226 149.8185 120.2786"></polygon>
                <polygon id="Stroke-6" stroke="#33475C" stroke-width="5" stroke-linecap="round" stroke-linejoin="round" points="144.5465 133.3231 139.2745 130.2791 139.2745 89.3211 144.5465 86.2771"></polygon>
                <polygon id="Stroke-7" stroke="#33475C" stroke-width="5" stroke-linecap="round" stroke-linejoin="round" points="80.0001 35.619 10.1821 75.929 80.0001 116.238 149.8181 75.929"></polygon>
                <polygon id="Stroke-8" stroke="#33475C" stroke-width="5" stroke-linecap="round" stroke-linejoin="round" points="80.0001 154.5008 74.7281 157.5448 80.0001 160.5888 85.2711 157.5448"></polygon>
                <polygon id="Stroke-9" stroke="#33475C" stroke-width="5" stroke-linecap="round" stroke-linejoin="round" points="15.4537 117.2352 10.1817 120.2792 15.4537 123.3232 20.7257 120.2792"></polygon>
                <polygon id="Stroke-10" stroke="#33475C" stroke-width="5" stroke-linecap="round" stroke-linejoin="round" points="10.1817 69.8406 15.4537 72.8846 15.4537 123.3226 10.1817 120.2786"></polygon>
                <polygon id="Stroke-11" stroke="#33475C" stroke-width="5" stroke-linecap="round" stroke-linejoin="round" points="85.2721 107.1072 85.2721 157.5452 80.0001 160.5882 80.0001 110.1502"></polygon>
                <polygon id="Stroke-12" stroke="#33475C" stroke-width="5" stroke-linecap="round" stroke-linejoin="round" points="74.7281 107.1072 80.0001 110.1502 80.0001 160.5882 74.7281 157.5452"></polygon>
                <polygon id="Stroke-13" stroke="#33475C" stroke-width="5" stroke-linecap="round" stroke-linejoin="round" points="10.1817 75.9285 79.9997 116.2385 79.9997 170.5885 74.7277 167.5445 74.7277 130.4995 15.4537 96.2775 15.4537 133.3235 10.1817 130.2795"></polygon>
                <polygon id="Stroke-15" stroke="#33475C" stroke-width="5" stroke-linecap="round" stroke-linejoin="round" points="20.7257 130.2791 15.4537 133.3231 15.4537 76.2771 20.7257 79.3211"></polygon>
                <polygon id="Stroke-16" stroke="#33475C" stroke-width="5" stroke-linecap="round" stroke-linejoin="round" points="80.0001 170.5887 80.0001 116.2377 149.8181 75.9287 149.8181 130.2787 144.5461 133.3227 144.5461 86.2767 85.2721 120.4997 85.2711 167.5447"></polygon>
                <polygon id="Stroke-18" stroke="#33475C" stroke-width="5" stroke-linecap="round" stroke-linejoin="round" points="10.1817 69.8406 79.9997 110.1506 79.9997 116.2376 10.1817 75.9286"></polygon>
                <polygon id="Stroke-19" stroke="#33475C" stroke-width="5" stroke-linecap="round" stroke-linejoin="round" points="149.8185 69.8406 149.8185 75.9286 80.0005 116.2376 80.0005 110.1506"></polygon>
                <polygon id="Stroke-20" stroke="#33475C" stroke-width="5" stroke-linecap="round" stroke-linejoin="round" points="80.0001 29.5311 10.1821 69.8421 80.0001 110.1501 149.8181 69.8421"></polygon>
                <g id="Group-359" transform="translate(4.000000, 0.462000)">
                    <path d="M148.3321,74.5788 C148.2561,72.9408 148.1141,71.1428 146.9621,69.9768 C146.2131,69.2208 144.2781,68.4898 143.0451,67.7778 L76.0001,29.0688 L6.8351,69.0018 C4.6151,69.8968 3.7951,73.1258 3.5861,75.6668 C2.5991,87.7158 1.6111,99.7648 0.6241,111.8118 C7.0361,113.1838 12.6631,116.8988 18.0861,120.5848 C36.0381,132.7818 53.7301,142.5238 73.0941,152.3268 C74.2731,152.9238 75.5141,153.5218 76.8351,153.5088 C78.1231,153.4928 79.3241,152.8968 80.4651,152.2998 C104.8021,139.5578 125.4361,123.4868 150.0271,111.2408 L148.3321,74.5788 Z" id="Stroke-21" stroke="#33475C" stroke-width="5" stroke-linecap="round" stroke-linejoin="round"></path>
                    <path d="M71.6774,146.5388 L74.7314,111.2598" id="Stroke-23" stroke="#33475C" stroke-width="5" stroke-linecap="round" stroke-linejoin="round"></path>
                    <path d="M78.6358,108.1667 L143.1818,70.9007" id="Stroke-25" stroke="#33475C" stroke-width="5" stroke-linecap="round" stroke-linejoin="round"></path>
                    <path d="M8.818,70.9011 L73.364,108.1671" id="Stroke-27" stroke="#33475C" stroke-width="5" stroke-linecap="round" stroke-linejoin="round"></path>
                    <path d="M6.1817,75.4665 L11.4537,110.4225" id="Stroke-29" stroke="#33475C" stroke-width="5" stroke-linecap="round" stroke-linejoin="round"></path>
                    <path d="M145.8185,75.4665 L142.6045,110.1465" id="Stroke-31" stroke="#33475C" stroke-width="5" stroke-linecap="round" stroke-linejoin="round"></path>
                    <path d="M77.4303,114.4362 L81.7513,146.5392" id="Stroke-33" stroke="#33475C" stroke-width="5" stroke-linecap="round" stroke-linejoin="round"></path>
                    <path d="M145.8185,69.3796 L83.1875,33.2196 L76.0005,29.0686 L6.8355,69.0016 C6.8335,69.0026 6.8315,69.0046 6.8295,69.0046 L6.1815,69.3796 L76.0005,109.6886 L145.8185,69.3796 Z" id="Stroke-35" stroke="#33475C" stroke-width="5" stroke-linecap="round" stroke-linejoin="round"></path>
                    <path d="M35.2584,121.8884 L35.2584,120.4094 C35.2594,119.1334 36.2944,118.6974 37.5704,119.4314 L40.2384,120.9724 C40.8714,121.3354 41.4774,121.9474 41.9114,122.6594 L42.1544,122.7994 C44.2954,124.0164 46.1234,123.5394 46.5164,121.6614 C46.2404,121.1844 46.0314,120.6934 45.9024,120.2174 C45.7714,119.7304 45.7014,119.2624 45.6964,118.8274 L45.6964,115.6284 C45.7014,115.2134 45.7674,114.8384 45.8934,114.5134 C46.0914,113.9494 46.5274,113.6164 47.1214,113.5764 C47.1094,113.3474 47.0844,113.1124 47.0484,112.8714 C46.2814,107.8904 42.0254,102.3414 37.4714,100.3884 C35.7084,99.5944 34.0644,99.4314 32.7834,99.9234 C32.4834,100.0494 31.9974,99.7684 31.6984,99.2954 C31.3984,98.8234 31.3994,98.3364 31.6994,98.2104 C31.7034,98.2084 31.7074,98.2064 31.7124,98.2054 C33.2204,97.6174 35.1584,97.8034 37.2384,98.7344 C42.6194,101.0394 47.6514,107.5994 48.5524,113.4854 C48.6174,113.9514 48.6564,114.4074 48.6694,114.8484 L48.6694,114.8944 C48.6854,115.2394 48.4814,115.4284 48.1654,115.3624 C47.7584,115.2844 47.4514,115.4494 47.3394,115.8064 C47.2654,116.0154 47.2294,116.2564 47.2324,116.5214 L47.2324,119.6804 C47.2324,119.9624 47.2764,120.2684 47.3614,120.5864 C47.4444,120.9064 47.6034,121.2394 47.8184,121.5474 C48.0154,121.8244 48.1194,122.1334 48.0944,122.3734 C47.7734,125.2344 45.2164,126.0774 42.1544,124.3344 L41.5404,123.9804 C41.2794,123.8284 41.0364,123.5554 40.8954,123.2544 C40.7544,122.9524 40.5124,122.6774 40.2504,122.5234 L37.5824,120.9834 C37.1534,120.7284 36.8004,120.8674 36.7934,121.2914 L36.7934,121.2944 L36.7934,122.7754 C36.7934,123.2034 37.1414,123.7524 37.5704,123.9994 L40.2384,125.5404 C40.4994,125.6884 40.7424,125.6934 40.8834,125.5534 C41.0244,125.4144 41.2664,125.4224 41.5274,125.5734 L42.1414,125.9274 C46.1234,128.2154 49.4194,127.0314 49.6884,123.2134 C49.7094,122.9654 49.8614,122.8224 50.0904,122.8314 C50.1854,122.8354 50.2774,122.8304 50.3634,122.8174 C50.7734,122.7914 51.0284,122.4914 51.0454,122.0134 C51.0604,120.9594 51.0634,119.8384 51.0454,118.6734 C51.0424,118.2404 50.8444,117.7184 50.5084,117.2544 C50.3264,116.9984 50.2244,116.7134 50.2314,116.4814 C50.3234,113.5394 49.2414,110.0024 47.2164,106.6254 C45.6254,103.8824 43.4694,101.3994 41.0914,99.5714 C36.5934,96.1174 32.8024,95.2244 29.8114,96.9094 C29.4874,97.0924 29.1884,97.3114 28.9154,97.5644 C28.6794,97.7814 28.2024,97.6004 27.8494,97.1604 C27.4974,96.7214 27.4024,96.1894 27.6374,95.9734 C27.9474,95.6864 28.2874,95.4374 28.6544,95.2274 C32.0284,93.3134 36.3084,94.3344 41.3744,98.2264 C44.0834,100.3034 46.5424,103.1274 48.3594,106.2504 C50.5754,109.9384 51.7994,113.8024 51.7824,117.0664 C52.2964,117.9054 52.5864,118.7884 52.5924,119.5384 L52.5924,122.9154 C52.5674,123.8684 52.0794,124.4834 51.2814,124.5694 L51.1964,124.5804 C50.6754,128.8844 46.7874,130.1214 42.1544,127.4594 L41.9114,127.3204 C41.4794,127.5264 40.8784,127.4364 40.2504,127.0734 L37.5824,125.5334 C36.3054,124.8004 35.2654,123.1694 35.2584,121.8884 Z M28.3014,110.4264 C27.4874,109.9564 26.8274,108.9154 26.8274,108.1024 L26.8274,101.1294 C26.8274,100.3164 27.4874,100.0364 28.3014,100.5064 L40.8894,107.7744 C41.7024,108.2434 42.3624,109.2844 42.3624,110.0994 L42.3624,117.0864 C42.3624,117.9004 41.7024,118.1794 40.8894,117.7094 L34.6844,114.1264 C34.4804,114.0094 34.2844,113.9774 34.1404,114.0374 L32.0804,114.8964 C32.0514,114.9134 32.0014,114.8954 31.9614,114.8514 C31.9194,114.8114 31.8924,114.7554 31.8934,114.7104 L31.8934,113.2684 C31.8934,112.8444 31.5504,112.3024 31.1254,112.0574 L28.3014,110.4264 Z M31.3714,115.9294 C31.9864,116.5394 32.6944,116.8084 33.1644,116.6084 L35.0064,115.8294 L40.8734,119.2174 C42.5344,120.1744 43.8814,119.6064 43.8824,117.9464 L43.8824,110.9764 C43.8814,109.3144 42.5344,107.1914 40.8734,106.2304 L28.2854,98.9624 C26.6244,98.0054 25.2794,98.5754 25.2774,100.2344 L25.2774,107.2224 C25.2794,108.8844 26.6244,111.0074 28.2854,111.9684 L30.3454,113.1584 L30.3454,113.8294 C30.3524,114.4964 30.7564,115.3254 31.3714,115.9294 Z" id="Stroke-37" stroke="#33475C" stroke-width="5" stroke-linecap="round" stroke-linejoin="round"></path>
                    <path d="M33.0387,109.4255 C33.4627,109.6695 33.8067,109.5255 33.8067,109.1015 C33.8067,108.6765 33.4627,108.1345 33.0387,107.8905 C32.6147,107.6455 32.2707,107.7905 32.2707,108.2145 C32.2707,108.6385 32.6147,109.1805 33.0387,109.4255 Z" id="Stroke-39" stroke="#33475C" stroke-width="5" stroke-linecap="round" stroke-linejoin="round"></path>
                    <path d="M35.3566,109.9958 C35.3566,110.4138 35.6906,110.9478 36.1086,111.1978 C36.5326,111.4428 36.8766,111.2978 36.8766,110.8738 C36.8766,110.4498 36.5326,109.9078 36.1086,109.6628 C35.6846,109.4178 35.3416,109.5628 35.3416,109.9868 L35.3566,109.9958 Z" id="Stroke-41" stroke="#33475C" stroke-width="5" stroke-linecap="round" stroke-linejoin="round"></path>
                    <path d="M38.4449,111.779 C38.4449,112.197 38.7789,112.731 39.1969,112.981 C39.6209,113.226 39.9649,113.081 39.9649,112.657 C39.9649,112.233 39.6209,111.691 39.1969,111.446 C38.7739,111.201 38.4299,111.346 38.4299,111.77 L38.4449,111.779 Z" id="Stroke-43" stroke="#33475C" stroke-width="5" stroke-linecap="round" stroke-linejoin="round"></path>
                    <path d="M30.7174,107.3181 L30.7174,107.3021 C30.7084,106.8741 30.3584,106.3351 29.9344,106.0981 C29.5104,105.8531 29.1674,105.9991 29.1674,106.4221 C29.1674,106.8461 29.5104,107.3881 29.9344,107.6331 C30.3584,107.8781 30.7024,107.7331 30.7024,107.3081 L30.7174,107.3181 Z" id="Stroke-45" stroke="#33475C" stroke-width="5" stroke-linecap="round" stroke-linejoin="round"></path>
                    <path d="M112.6124,99.362 C107.9884,103.247 105.0834,111.245 106.1354,117.191 C107.1874,123.137 111.8054,124.815 116.4284,120.93 C121.0524,117.047 123.9574,109.048 122.9054,103.102 C121.8534,97.156 117.2364,95.478 112.6124,99.362 Z M116.7774,122.9 C111.3094,127.494 105.8484,125.51 104.6044,118.478 C103.3594,111.446 106.7964,101.987 112.2634,97.393 C117.7324,92.8 123.1934,94.784 124.4374,101.816 C125.6814,108.848 122.2454,118.306 116.7774,122.9 Z" id="Stroke-47" stroke="#33475C" stroke-width="5" stroke-linecap="round" stroke-linejoin="round"></path>
                    <path d="M115.9093,116.1667 C113.2413,118.4077 110.7893,117.5467 110.7543,117.5337 C110.5723,117.4657 110.5183,117.1527 110.6343,116.8357 C110.7493,116.5187 110.9923,116.3167 111.1763,116.3837 C111.3533,116.4487 115.5553,117.8967 118.6073,111.0437 C118.7433,110.7367 118.9913,110.5717 119.1593,110.6767 C119.3273,110.7807 119.3533,111.1147 119.2163,111.4227 C118.1833,113.7417 117.0273,115.2277 115.9093,116.1667 Z" id="Stroke-49" stroke="#33475C" stroke-width="5" stroke-linecap="round" stroke-linejoin="round"></path>
                    <path d="M112.2413,110.1804 C112.0413,110.3494 111.8373,110.2894 111.7783,110.0394 C111.6863,109.6494 111.5483,109.1634 111.2973,108.8734 C111.0723,108.6154 110.7743,108.5524 110.4983,108.7084 C110.2423,108.8514 110.0093,109.1734 109.8573,109.4174 C109.3583,110.2204 109.0663,111.2614 109.0943,112.1324 C109.1033,112.4324 108.9373,112.7754 108.7193,112.9044 C108.5023,113.0294 108.3193,112.8894 108.3093,112.5904 C108.2703,111.3714 108.6793,109.9174 109.3773,108.7964 C109.7273,108.2344 110.1063,107.8284 110.4723,107.6184 C110.9873,107.3284 111.5203,107.4154 111.8983,107.8524 C112.2433,108.2494 112.4183,108.8534 112.5313,109.3354 C112.5923,109.5964 112.4733,109.9644 112.2653,110.1594 C112.2573,110.1664 112.2493,110.1734 112.2413,110.1804 Z" id="Stroke-51" stroke="#33475C" stroke-width="5" stroke-linecap="round" stroke-linejoin="round"></path>
                    <path d="M119.7198,104.7097 C119.5198,104.8777 119.3158,104.8187 119.2568,104.5687 C119.1648,104.1787 119.0268,103.6927 118.7758,103.4037 C118.5508,103.1457 118.2518,103.0817 117.9758,103.2387 C117.7208,103.3807 117.4878,103.7037 117.3358,103.9477 C116.8368,104.7517 116.5438,105.7917 116.5728,106.6627 C116.5818,106.9627 116.4128,107.2997 116.1978,107.4337 C115.9808,107.5597 115.7978,107.4197 115.7878,107.1207 C115.7478,105.9017 116.1568,104.4477 116.8558,103.3257 C117.2048,102.7657 117.5848,102.3557 117.9498,102.1487 C118.4658,101.8577 118.9988,101.9447 119.3768,102.3817 C119.7218,102.7787 119.8958,103.3827 120.0098,103.8647 C120.0708,104.1257 119.9518,104.4937 119.7438,104.6887 C119.7358,104.6957 119.7278,104.7027 119.7198,104.7097 Z" id="Stroke-53" stroke="#33475C" stroke-width="5" stroke-linecap="round" stroke-linejoin="round"></path>
                    <path d="M78.6358,108.1667 L143.1818,70.9007" id="Stroke-55" stroke="#33475C" stroke-width="5" stroke-linecap="round" stroke-linejoin="round"></path>
                    <path d="M8.818,70.9011 L73.364,108.1671" id="Stroke-57" stroke="#33475C" stroke-width="5" stroke-linecap="round" stroke-linejoin="round"></path>
                    <path d="M148.3321,74.5788 C148.2561,72.9408 148.1141,71.1428 146.9621,69.9768 C146.2131,69.2208 144.2781,68.4898 143.0451,67.7778 L76.0001,29.0688 L6.8351,69.0018 C4.6151,69.8968 3.7951,73.1258 3.5861,75.6668 C2.5991,87.7158 1.6111,99.7648 0.6241,111.8118 C7.0361,113.1838 12.6631,116.8988 18.0861,120.5848 C36.0381,132.7818 53.7301,142.5238 73.0941,152.3268 C74.2731,152.9238 75.5141,153.5218 76.8351,153.5088 C78.1231,153.4928 79.3241,152.8968 80.4651,152.2998 C104.8021,139.5578 125.4361,123.4868 150.0271,111.2408 L148.3321,74.5788 Z" id="Stroke-59" stroke="#33475C" stroke-width="5" stroke-linecap="round" stroke-linejoin="round"></path>
                    <path d="M27.7633,50.5886 C27.7633,44.6886 31.9433,42.2756 37.0523,45.2256 C42.1613,48.1746 46.3423,55.4146 46.3423,61.3146 C46.3423,67.2146 42.1613,69.6276 37.0523,66.6776 C31.9433,63.7286 27.7633,56.4876 27.7633,50.5886 Z" id="Stroke-61" stroke="#33475C" stroke-width="5" stroke-linecap="round" stroke-linejoin="round"></path>
                    <path d="M33.3985,46.3542 C30.5995,44.7382 28.0575,44.6032 26.2245,45.6892 L22.9035,47.6562 L24.0945,48.1322 C23.5865,49.2272 23.3055,50.5862 23.3055,52.1812 C23.3055,58.5912 27.8475,66.4582 33.3985,69.6632 C34.8725,70.5132 36.2725,70.9502 37.5375,71.0172 L37.2525,72.2942 L40.5735,70.3282 C42.3755,69.2602 43.4915,67.0132 43.4915,63.8352 C43.4915,57.4252 38.9495,49.5592 33.3985,46.3542 Z" id="Stroke-63" stroke="#33475C" stroke-width="5" stroke-linecap="round" stroke-linejoin="round"></path>
                    <path d="M19.9855,54.1482 C19.9855,50.9702 21.1015,48.7232 22.9035,47.6562 C24.7365,46.5712 27.2785,46.7052 30.0785,48.3212 C35.6295,51.5262 40.1715,59.3922 40.1715,65.8022 C40.1715,68.9802 39.0555,71.2272 37.2535,72.2942 C35.4205,73.3802 32.8775,73.2462 30.0785,71.6292 C24.5275,68.4242 19.9855,60.5582 19.9855,54.1482 Z" id="Stroke-65" stroke="#33475C" stroke-width="5" stroke-linecap="round" stroke-linejoin="round"></path>
                    <path d="M29.69,52.7243 C27.719,51.5863 25.943,51.5693 24.728,52.4593 L21.821,54.5913 L22.259,59.0573 L25.704,65.9473 L31.745,70.3983 L34.652,68.2673 C35.68,67.5133 36.306,66.1093 36.306,64.1833 C36.306,59.9813 33.329,54.8253 29.69,52.7243 Z" id="Stroke-67" stroke="#33475C" stroke-width="5" stroke-linecap="round" stroke-linejoin="round"></path>
                    <path d="M20.1676,58.6755 C20.1676,56.7495 20.7926,55.3455 21.8206,54.5915 C23.0356,53.7005 24.8126,53.7185 26.7836,54.8565 C30.4216,56.9565 33.3986,62.1135 33.3986,66.3155 C33.3986,68.2405 32.7726,69.6455 31.7456,70.3985 C30.5306,71.2895 28.7536,71.2725 26.7836,70.1345 C23.1446,68.0335 20.1676,62.8765 20.1676,58.6755 Z" id="Stroke-69" stroke="#33475C" stroke-width="5" stroke-linecap="round" stroke-linejoin="round"></path>
                    <path d="M54.3551,36.4558 C54.3551,33.9958 55.2191,32.2558 56.6151,31.4298 C58.0341,30.5888 60.0021,30.6928 62.1701,31.9438 C66.4681,34.4258 69.9851,40.5178 69.9851,45.4798 C69.9851,47.9408 69.1211,49.6808 67.7261,50.5078 C66.3061,51.3488 64.3371,51.2438 62.1701,49.9918 C57.8721,47.5108 54.3551,41.4198 54.3551,36.4558 Z" id="Stroke-71" stroke="#33475C" stroke-width="5" stroke-linecap="round" stroke-linejoin="round"></path>
                    <path d="M55.0055,78.3542 C54.6115,78.3542 54.2275,78.1552 54.0085,77.7932 C53.6745,77.2442 53.8505,76.5282 54.4005,76.1942 C59.2205,73.2712 62.5505,70.1022 64.5815,66.5062 C67.0155,62.1992 67.3655,57.1772 65.4955,53.4012 C65.2105,52.8252 65.4455,52.1262 66.0225,51.8402 C66.5995,51.5552 67.2975,51.7922 67.5825,52.3682 C69.7905,56.8262 69.4175,62.6812 66.6095,67.6522 C64.3775,71.6042 60.7785,75.0502 55.6085,78.1862 C55.4195,78.3002 55.2115,78.3542 55.0055,78.3542 Z" id="Stroke-73" stroke="#33475C" stroke-width="5" stroke-linecap="round" stroke-linejoin="round"></path>
                    <path d="M56.2032,73.0359 C55.0362,73.0639 54.0262,73.8129 53.1042,74.5299 C52.2852,75.1659 51.4652,75.8029 50.6462,76.4379 C49.9412,76.9859 49.2122,77.5619 48.8182,78.3639 C48.3002,79.4169 48.4852,80.7649 49.2332,81.6689 C49.9822,82.5719 51.2452,83.0039 52.3982,82.7909 C53.4902,82.5899 54.4102,81.8849 55.2852,81.2009 C56.1722,80.5079 57.0592,79.8139 57.9472,79.1199 C58.7532,78.4899 59.6232,77.7499 59.7392,76.7319 C59.9342,75.0229 57.8662,72.9949 56.2032,73.0359 Z" id="Stroke-75" stroke="#33475C" stroke-width="5" stroke-linecap="round" stroke-linejoin="round"></path>
                    <path d="M25.3614,47.7966 C24.8774,46.2716 24.6164,44.5036 24.6164,42.5156 C24.6164,31.8596 32.0974,18.9016 41.3254,13.5736 C45.9394,10.9106 50.1164,10.6576 53.1404,12.4036 C56.1644,14.1506 58.0344,17.8936 58.0344,23.2216 C58.0344,25.2096 57.7734,27.2786 57.2894,29.3626 L63.6484,33.0336 C64.1324,30.9496 64.3934,28.8806 64.3934,26.8926 C64.3934,21.5646 62.5234,17.8206 59.4994,16.0746 C56.4754,14.3286 52.2984,14.5816 47.6844,17.2456 C38.4554,22.5726 30.9744,35.5306 30.9744,46.1866 C30.9744,48.1746 31.2364,49.9426 31.7194,51.4676 L25.3614,47.7966 Z" id="Stroke-77" stroke="#33475C" stroke-width="5" stroke-linecap="round" stroke-linejoin="round"></path>
                    <path d="M30.5533,53.0212 C30.1573,53.0212 29.7573,52.9202 29.3903,52.7092 L23.0323,49.0382 C21.9183,48.3942 21.5363,46.9702 22.1793,45.8562 C22.8233,44.7422 24.2473,44.3592 25.3613,45.0032 L31.7203,48.6742 C32.8333,49.3182 33.2153,50.7422 32.5723,51.8562 C32.1413,52.6032 31.3583,53.0212 30.5533,53.0212 Z" id="Stroke-79" stroke="#33475C" stroke-width="5" stroke-linecap="round" stroke-linejoin="round"></path>
                    <path d="M63.6461,35.364 C63.2511,35.364 62.8511,35.263 62.4841,35.052 L56.1251,31.381 C55.0111,30.737 54.6291,29.312 55.2721,28.198 C55.9161,27.085 57.3401,26.702 58.4541,27.345 L64.8131,31.017 C65.9271,31.66 66.3091,33.085 65.6661,34.199 C65.2341,34.946 64.4511,35.364 63.6461,35.364 Z" id="Stroke-81" stroke="#33475C" stroke-width="5" stroke-linecap="round" stroke-linejoin="round"></path>
                    <path d="M60.6637,14.0583 L54.3057,10.3863 C50.3977,8.1313 45.3747,8.5473 40.1607,11.5573 C33.3367,15.4963 27.2147,23.3673 24.1837,32.0953 C23.8167,33.1513 24.2517,34.3183 25.2197,34.8763 L31.5777,38.5473 C31.9357,38.7543 32.3387,38.8603 32.7427,38.8603 C33.0167,38.8603 33.2917,38.8113 33.5557,38.7133 C34.2057,38.4713 34.7147,37.9513 34.9427,37.2943 C37.5817,29.6943 43.0397,22.6163 48.8487,19.2623 C51.3117,17.8403 53.6847,17.1683 55.7097,17.3193 C56.6887,17.3913 57.5717,17.6523 58.3347,18.0923 C59.4497,18.7363 60.8737,18.3543 61.5167,17.2393 C62.1597,16.1253 61.7777,14.7013 60.6637,14.0583 Z" id="Stroke-83" stroke="#33475C" stroke-width="5" stroke-linecap="round" stroke-linejoin="round"></path>
                    <path d="M49.0519,37.1648 C49.0519,33.9248 50.1899,31.6328 52.0279,30.5448 C53.8969,29.4368 56.4899,29.5738 59.3449,31.2228 C65.0059,34.4908 69.6379,42.5138 69.6379,49.0508 C69.6379,52.2908 68.4999,54.5828 66.6619,55.6708 C64.7929,56.7778 62.1989,56.6418 59.3449,54.9928 C53.6839,51.7248 49.0519,43.7018 49.0519,37.1648 Z" id="Stroke-85" stroke="#33475C" stroke-width="5" stroke-linecap="round" stroke-linejoin="round"></path>
                    <path d="M55.6988,33.5701 C52.8998,31.9541 50.3568,31.8191 48.5238,32.9051 C48.1028,33.1551 47.7188,33.4681 47.3778,33.8441 L44.9218,36.5491 L45.7018,37.9001 C45.6418,38.3751 45.6058,38.8711 45.6058,39.3971 C45.6058,45.8071 50.1478,53.6741 55.6988,56.8791 C56.1538,57.1401 56.5988,57.3561 57.0378,57.5421 L57.8178,58.8931 L61.3898,58.1211 C61.9238,58.0061 62.4198,57.8121 62.8738,57.5441 C64.6758,56.4761 65.7918,54.2291 65.7918,51.0511 C65.7918,44.6411 61.2498,36.7751 55.6988,33.5701 Z" id="Stroke-87" stroke="#33475C" stroke-width="5" stroke-linecap="round" stroke-linejoin="round"></path>
                    <path d="M43.2906,41.6599 C43.2906,39.4189 43.8936,37.6809 44.9216,36.5499 C46.6006,34.7009 49.4116,34.4679 52.5806,36.2969 C57.6886,39.2469 61.8696,46.4869 61.8696,52.3869 C61.8696,56.0469 60.2596,58.3649 57.8176,58.8929 C56.3246,59.2159 54.5196,58.8689 52.5806,57.7499 C47.4706,54.7999 43.2906,47.5589 43.2906,41.6599 Z" id="Stroke-89" stroke="#33475C" stroke-width="5" stroke-linecap="round" stroke-linejoin="round"></path>
                    <path d="M47.9488,44.4968 C47.9488,41.5438 50.0408,40.3358 52.5978,41.8118 C55.1558,43.2888 57.2478,46.9128 57.2478,49.8648 C57.2478,52.8178 55.1558,54.0258 52.5978,52.5498 C50.0408,51.0728 47.9488,47.4488 47.9488,44.4968 Z" id="Stroke-91" stroke="#33475C" stroke-width="5" stroke-linecap="round" stroke-linejoin="round"></path>
                    <path d="M125.8282,26.3816 L81.0002,0.5006 C80.0602,-0.0424 79.2062,-0.0914 78.5862,0.2666 L75.3322,2.1456 C74.7122,2.5026 74.3282,3.2676 74.3282,4.3536 L74.3282,37.6076 C74.3282,39.7776 75.8662,42.4426 77.7462,43.5276 L81.2622,45.5576 L81.2612,45.5576 L85.0572,54.0106 L88.8532,49.9406 L122.5742,69.4086 C123.5142,69.9516 124.3692,70.0016 124.9882,69.6436 L128.2422,67.7656 C128.8622,67.4066 129.2462,66.6426 129.2462,65.5576 L129.2462,32.3026 C129.2462,30.1316 127.7082,27.4676 125.8282,26.3816 Z" id="Stroke-93" stroke="#33475C" stroke-width="5" stroke-linecap="round" stroke-linejoin="round"></path>
                    <path d="M129.2467,32.3025 C129.2467,30.1315 127.7087,27.4675 125.8287,26.3815 L81.0007,0.5005 C80.0607,-0.0425 79.2057,-0.0915 78.5867,0.2665 L75.3317,2.1455 C75.9517,1.7865 76.8067,1.8365 77.7467,2.3795 L122.5747,28.2605 C124.4547,29.3465 125.9927,32.0105 125.9927,34.1815 L125.9927,67.4365 C125.9927,68.5215 125.6077,69.2855 124.9887,69.6435 L128.2427,67.7655 C128.8617,67.4065 129.2467,66.6425 129.2467,65.5575 L129.2467,32.3025 Z" id="Stroke-95" stroke="#33475C" stroke-width="5" stroke-linecap="round" stroke-linejoin="round"></path>
                    <path d="M125.8282,26.3816 L81.0002,0.5006 C80.0602,-0.0424 79.2062,-0.0914 78.5862,0.2666 L75.3322,2.1456 C74.7122,2.5026 74.3282,3.2676 74.3282,4.3536 L74.3282,37.6076 C74.3282,39.7776 75.8662,42.4426 77.7462,43.5276 L81.2622,45.5576 L81.2612,45.5576 L85.0572,54.0106 L88.8532,49.9406 L122.5742,69.4086 C123.5142,69.9516 124.3692,70.0016 124.9882,69.6436 L128.2422,67.7656 C128.8622,67.4066 129.2462,66.6426 129.2462,65.5576 L129.2462,32.3026 C129.2462,30.1316 127.7082,27.4676 125.8282,26.3816 Z" id="Stroke-97" stroke="#33475C" stroke-width="5" stroke-linecap="round" stroke-linejoin="round"></path>
                    <path d="M118.4435,34.9304 L81.7785,13.7614" id="Stroke-99" stroke="#33475C" stroke-width="5" stroke-linecap="round" stroke-linejoin="round"></path>
                    <path d="M105.4342,34.9392 L81.7792,21.2822" id="Stroke-101" stroke="#33475C" stroke-width="5" stroke-linecap="round" stroke-linejoin="round"></path>
                    <path d="M91.6979,42.0486 L81.7789,36.3216" id="Stroke-103" stroke="#33475C" stroke-width="5" stroke-linecap="round" stroke-linejoin="round"></path>
                    <path d="M95.7159,36.8484 L81.7789,28.8014" id="Stroke-105" stroke="#33475C" stroke-width="5" stroke-linecap="round" stroke-linejoin="round"></path>
                    <path d="M94.1998,48.3796 C94.6408,47.0826 95.4178,45.9116 96.3798,44.9366 C96.3978,44.9176 96.4168,44.8996 96.4358,44.8806 L98.6158,42.7006 C101.7828,39.5326 106.5898,38.4606 111.1088,38.9876 C114.8898,39.4306 117.9248,40.1796 121.4708,42.3006 C125.3178,44.6036 129.0118,47.5486 131.3738,51.3426 C133.0318,54.0056 133.8528,57.2506 133.7948,59.5646 C133.6988,63.4186 132.5768,65.9466 130.9428,67.5816 L128.7628,69.7616 C126.5428,71.9826 123.3758,72.5526 120.5518,72.5516 C119.1598,72.5516 116.1328,71.9796 113.9758,71.2846 C113.2928,73.8316 112.5458,76.3626 111.7048,78.8626 C111.4178,79.7186 110.6738,80.7736 109.8698,80.3626 C109.4918,80.1686 109.3348,79.7206 109.2128,79.3136 C108.1248,75.6666 107.1878,71.9756 106.3878,68.2556 C104.5498,67.3316 102.7898,66.2696 101.1768,64.9896 C97.4388,62.0286 94.4948,57.8326 93.8528,53.1076 C93.6378,51.5266 93.6858,49.8886 94.1998,48.3796 Z" id="Stroke-107" stroke="#33475C" stroke-width="5" stroke-linecap="round" stroke-linejoin="round"></path>
                    <path d="M94.1998,48.3796 C94.6408,47.0826 95.4178,45.9116 96.3798,44.9366 C96.3978,44.9176 96.4168,44.8996 96.4358,44.8806 C99.6028,41.7126 104.4108,40.6406 108.9288,41.1676 C112.7098,41.6096 115.7448,42.3586 119.2908,44.4806 C123.1378,46.7826 126.8318,49.7286 129.1948,53.5226 C130.8528,56.1856 131.6728,59.4306 131.6158,61.7436 C131.5198,65.5986 130.3978,68.1266 128.7628,69.7616 C126.5428,71.9826 123.3758,72.5526 120.5518,72.5516 C119.1598,72.5516 116.1328,71.9796 113.9758,71.2846 C113.2928,73.8316 112.5458,76.3626 111.7048,78.8626 C111.4178,79.7186 110.6738,80.7736 109.8698,80.3626 C109.4918,80.1686 109.3348,79.7206 109.2128,79.3136 C108.1248,75.6666 107.1878,71.9756 106.3878,68.2556 C104.5498,67.3316 102.7898,66.2696 101.1768,64.9896 C97.4388,62.0286 94.4948,57.8326 93.8528,53.1076 C93.6378,51.5266 93.6858,49.8886 94.1998,48.3796 Z" id="Stroke-109" stroke="#33475C" stroke-width="5" stroke-linecap="round" stroke-linejoin="round"></path>
                    <path d="M124.3834,62.2068 C124.7624,62.5118 124.3494,63.1898 123.8634,63.1978 C123.3764,63.2058 122.9794,62.8308 122.6414,62.4808 L120.1174,59.8768 C119.6154,59.3588 118.6914,58.8598 118.2904,59.4598 C118.1514,59.6688 118.1444,59.9548 117.9704,60.1358 C117.6314,60.4878 117.0504,60.1518 116.6934,59.8178 C115.9854,59.1578 115.2784,58.4968 114.5704,57.8368 C114.1514,57.4458 113.7114,57.0428 113.1614,56.8818 C112.6114,56.7218 111.9194,56.8878 111.6684,57.4018 C111.5944,57.5538 111.5504,57.7388 111.4044,57.8208 C111.2594,57.9018 111.0784,57.8468 110.9304,57.7728 C110.1544,57.3938 109.6564,56.6248 109.2174,55.8808 C108.7794,55.1368 108.3324,54.3508 107.6034,53.8878 C106.8734,53.4248 105.7654,53.4288 105.2714,54.1368 C105.1594,54.2968 105.0664,54.4978 104.8794,54.5518 C104.6984,54.6028 104.5144,54.4918 104.3644,54.3788 C103.4094,53.6568 102.6724,52.6488 102.2734,51.5198" id="Stroke-111" stroke="#33475C" stroke-width="5" stroke-linecap="round" stroke-linejoin="round"></path>
                    <path d="M122.2569,54.907 C122.3809,55.196 122.4629,55.504 122.4999,55.815 C122.1639,56.03 121.7309,55.787 121.4159,55.542 C120.4379,54.782 119.5279,53.933 118.7019,53.011 C118.1659,52.413 117.3879,51.719 116.6759,52.091 C116.6779,52.559 116.6789,53.028 116.6809,53.498 C115.2289,53.453 114.3069,52.005 113.3039,50.954 C112.9709,50.603 112.5509,50.265 112.0689,50.286 C111.5859,50.306 111.1509,50.901 111.4449,51.285 C109.7849,50.217 108.3539,48.795 107.2739,47.142" id="Stroke-113" stroke="#33475C" stroke-width="5" stroke-linecap="round" stroke-linejoin="round"></path>
                    <path d="M104.173,59.8269 C104.046,59.5399 103.959,59.2339 103.918,58.9229 C104.251,58.7039 104.688,58.9409 105.006,59.1809 C105.994,59.9289 106.914,60.7639 107.753,61.6759 C108.297,62.2659 109.084,62.9509 109.791,62.5689 C109.783,62.0999 109.775,61.6319 109.767,61.1629 C111.22,61.1869 112.161,62.6239 113.178,63.6619 C113.516,64.0069 113.94,64.3399 114.422,64.3129 C114.905,64.2859 115.332,63.6849 115.032,63.3059 C116.707,64.3509 118.157,65.7539 119.258,67.3919" id="Stroke-115" stroke="#33475C" stroke-width="5" stroke-linecap="round" stroke-linejoin="round"></path>
                    <path d="M129.1944,53.5222 C126.8314,49.7282 123.1384,46.7832 119.2914,44.4802 C115.7454,42.3582 112.7104,41.6102 108.9284,41.1682 C104.4104,40.6402 99.6034,41.7122 96.4354,44.8802 L98.6154,42.7012 C101.7824,39.5332 106.5904,38.4602 111.1084,38.9882 C114.8894,39.4302 117.9244,40.1792 121.4704,42.3002 C125.3174,44.6032 129.0114,47.5482 131.3744,51.3422 C133.0314,54.0052 133.8524,57.2512 133.7954,59.5642 C133.6984,63.4182 132.5774,65.9472 130.9424,67.5822 L128.7624,69.7612 C130.3974,68.1262 131.5194,65.5982 131.6154,61.7442 C131.6734,59.4302 130.8524,56.1852 129.1944,53.5222 Z" id="Stroke-117" stroke="#33475C" stroke-width="5" stroke-linecap="round" stroke-linejoin="round"></path>
                    <path d="M94.1998,48.3796 C94.6408,47.0826 95.4178,45.9116 96.3798,44.9366 C96.3978,44.9176 96.4168,44.8996 96.4358,44.8806 L98.6158,42.7006 C101.7828,39.5326 106.5898,38.4606 111.1088,38.9876 C114.8898,39.4306 117.9248,40.1796 121.4708,42.3006 C125.3178,44.6036 129.0118,47.5486 131.3738,51.3426 C133.0318,54.0056 133.8528,57.2506 133.7948,59.5646 C133.6988,63.4186 132.5768,65.9466 130.9428,67.5816 L128.7628,69.7616 C126.5428,71.9826 123.3758,72.5526 120.5518,72.5516 C119.1598,72.5516 116.1328,71.9796 113.9758,71.2846 C113.2928,73.8316 112.5458,76.3626 111.7048,78.8626 C111.4178,79.7186 110.6738,80.7736 109.8698,80.3626 C109.4918,80.1686 109.3348,79.7206 109.2128,79.3136 C108.1248,75.6666 107.1878,71.9756 106.3878,68.2556 C104.5498,67.3316 102.7898,66.2696 101.1768,64.9896 C97.4388,62.0286 94.4948,57.8326 93.8528,53.1076 C93.6378,51.5266 93.6858,49.8886 94.1998,48.3796 Z" id="Stroke-119" stroke="#33475C" stroke-width="5" stroke-linecap="round" stroke-linejoin="round"></path>
                    <path d="M100.8507,61.1589 C100.7157,60.9819 100.5657,60.8049 100.3867,60.6789 C100.3427,60.6469 100.2967,60.6199 100.2497,60.5969 L97.0917,59.0169 C97.0397,58.9909 96.9857,58.9709 96.9287,58.9539 C96.5507,58.8499 96.1567,59.0199 95.8017,59.1869 C91.8457,61.0489 87.9397,63.0139 84.0887,65.0829 C80.7427,66.8809 77.4377,68.7559 74.1777,70.7059 C71.9537,72.0359 68.5727,73.3019 67.4337,75.7689 C65.9767,78.9259 65.2917,82.8089 65.2907,86.2519 C65.2897,88.5539 66.0607,93.5189 66.6237,95.7989 C66.7197,96.0919 66.8967,96.4669 67.2147,96.6899 C67.2577,96.7209 67.3027,96.7469 67.3507,96.7709 L70.5087,98.3499 C70.7727,98.4819 71.1177,98.5129 71.5657,98.3499 C71.7627,98.2529 71.9597,98.1559 72.1557,98.0589 L72.1567,98.0589 C74.6797,96.8129 77.1507,95.5949 79.6097,94.3819 C79.7917,96.4709 79.7137,98.5829 79.3337,100.6459 C79.2937,100.8599 79.2537,101.0929 79.3527,101.2869 C79.3927,101.3659 79.4457,101.4269 79.5077,101.4699 C79.8477,101.7089 80.4677,101.4459 80.8417,101.1309 C84.2487,98.2539 86.7327,94.3889 88.1697,90.1579 C90.3047,89.1049 92.4577,88.0429 94.6577,86.9579 C96.1517,86.2209 97.9707,84.6019 98.8627,83.5059 C100.2117,81.8499 101.0587,80.3739 101.7317,78.5809 C102.7997,75.7359 103.5587,72.7369 103.5447,69.6989 C103.5317,66.6609 102.7017,63.5689 100.8507,61.1589 Z" id="Stroke-121" stroke="#33475C" stroke-width="5" stroke-linecap="round" stroke-linejoin="round"></path>
                    <path d="M97.0914,59.0173 C97.0394,58.9913 96.9854,58.9703 96.9284,58.9543 C96.5504,58.8503 96.1564,59.0203 95.8014,59.1873 C91.8454,61.0483 87.9404,63.0143 84.0894,65.0823 C80.7424,66.8803 77.4374,68.7553 74.1774,70.7053 C71.9534,72.0363 68.5724,73.3013 67.4334,75.7693 C65.9764,78.9253 65.2924,82.8093 65.2904,86.2513 C65.2894,88.5533 66.0614,93.5193 66.6244,95.7983 C66.7194,96.0913 66.8974,96.4663 67.2154,96.6903 C67.2574,96.7203 67.3024,96.7463 67.3504,96.7713 L70.5084,98.3503 C70.4614,98.3263 70.4164,98.2993 70.3734,98.2693 C70.0554,98.0453 69.8774,97.6703 69.7824,97.3773 C69.7004,97.0443 69.6134,96.6503 69.5254,96.2193 C69.0104,93.7003 68.4484,89.7963 68.4484,87.8303 C68.4504,84.3883 69.1344,80.5043 70.5924,77.3483 C71.7314,74.8803 75.1124,73.6153 77.3364,72.2853 C80.5954,70.3343 83.9014,68.4593 87.2474,66.6623 C90.9754,64.6603 94.7574,62.7573 98.5824,60.9503 C98.7094,60.8903 98.8334,60.8263 98.9594,60.7663 C99.3144,60.5993 99.7084,60.4293 100.0874,60.5333 C100.1444,60.5493 100.1974,60.5703 100.2494,60.5963 L97.0914,59.0173 Z" id="Stroke-123" stroke="#33475C" stroke-width="5" stroke-linecap="round" stroke-linejoin="round"></path>
                    <path d="M81.1461,76.0612 C86.4751,72.9592 91.9791,70.1592 97.6241,67.6782" id="Stroke-125" stroke="#33475C" stroke-width="5" stroke-linecap="round" stroke-linejoin="round"></path>
                    <path d="M73.9972,80.4724 C75.3942,79.5594 76.8062,78.6684 78.2312,77.7984" id="Stroke-127" stroke="#33475C" stroke-width="5" stroke-linecap="round" stroke-linejoin="round"></path>
                    <path d="M93.6212,75.029 C95.1532,74.306 96.6972,73.607 98.2512,72.931" id="Stroke-129" stroke="#33475C" stroke-width="5" stroke-linecap="round" stroke-linejoin="round"></path>
                    <path d="M73.3395,86.4314 C78.5505,82.9924 83.9585,79.8524 89.5285,77.0314" id="Stroke-131" stroke="#33475C" stroke-width="5" stroke-linecap="round" stroke-linejoin="round"></path>
                    <path d="M84.0216,85.4802 C88.0556,83.2402 92.1856,81.1702 96.3956,79.2792" id="Stroke-133" stroke="#33475C" stroke-width="5" stroke-linecap="round" stroke-linejoin="round"></path>
                    <path d="M73.7765,91.6706 C76.1415,90.1206 78.5475,88.6316 80.9895,87.2066" id="Stroke-135" stroke="#33475C" stroke-width="5" stroke-linecap="round" stroke-linejoin="round"></path>
                    <path d="M100.8507,61.1589 C100.7157,60.9819 100.5657,60.8049 100.3867,60.6789 C100.3427,60.6469 100.2967,60.6199 100.2497,60.5969 L97.0917,59.0169 C97.0397,58.9909 96.9857,58.9709 96.9287,58.9539 C96.5507,58.8499 96.1567,59.0199 95.8017,59.1869 C91.8457,61.0489 87.9397,63.0139 84.0887,65.0829 C80.7427,66.8809 77.4377,68.7559 74.1777,70.7059 C71.9537,72.0359 68.5727,73.3019 67.4337,75.7689 C65.9767,78.9259 65.2917,82.8089 65.2907,86.2519 C65.2897,88.5539 66.0607,93.5189 66.6237,95.7989 C66.7197,96.0919 66.8967,96.4669 67.2147,96.6899 C67.2577,96.7209 67.3027,96.7469 67.3507,96.7709 L70.5087,98.3499 C70.7727,98.4819 71.1177,98.5129 71.5657,98.3499 C71.7627,98.2529 71.9597,98.1559 72.1557,98.0589 L72.1567,98.0589 C74.6797,96.8129 77.1507,95.5949 79.6097,94.3819 C79.7917,96.4709 79.7137,98.5829 79.3337,100.6459 C79.2937,100.8599 79.2537,101.0929 79.3527,101.2869 C79.3927,101.3659 79.4457,101.4269 79.5077,101.4699 C79.8477,101.7089 80.4677,101.4459 80.8417,101.1309 C84.2487,98.2539 86.7327,94.3889 88.1697,90.1579 C90.3047,89.1049 92.4577,88.0429 94.6577,86.9579 C96.1517,86.2209 97.9707,84.6019 98.8627,83.5059 C100.2117,81.8499 101.0587,80.3739 101.7317,78.5809 C102.7997,75.7359 103.5587,72.7369 103.5447,69.6989 C103.5317,66.6609 102.7017,63.5689 100.8507,61.1589 Z" id="Stroke-137" stroke="#33475C" stroke-width="5" stroke-linecap="round" stroke-linejoin="round"></path>
                    <polygon id="Stroke-139" stroke="#33475C" stroke-linecap="round" stroke-linejoin="round" points="140.5465 116.7732 135.2745 119.8172 140.5465 122.8612 145.8185 119.8172"></polygon>
                    <polygon id="Stroke-141" stroke="#33475C" stroke-linecap="round" stroke-linejoin="round" points="145.8185 69.3786 140.5465 72.4226 140.5465 122.8606 145.8185 119.8166"></polygon>
                    <polygon id="Fill-143" fill="#D29B6A" points="140.5465 132.8611 135.2745 129.8171 135.2745 88.8591 140.5465 85.8151"></polygon>
                    <polygon id="Stroke-145" stroke="#33475C" stroke-linecap="round" stroke-linejoin="round" points="140.5465 132.8611 135.2745 129.8171 135.2745 88.8591 140.5465 85.8151"></polygon>
                    <polygon id="Fill-147" fill="#C78244" points="76.0001 35.157 6.1821 75.467 76.0001 115.776 145.8181 75.467"></polygon>
                    <polygon id="Stroke-149" stroke="#33475C" stroke-linecap="round" stroke-linejoin="round" points="76.0001 35.157 6.1821 75.467 76.0001 115.776 145.8181 75.467"></polygon>
                    <polygon id="Stroke-151" stroke="#33475C" stroke-linecap="round" stroke-linejoin="round" points="76.0001 154.0388 70.7281 157.0828 76.0001 160.1268 81.2711 157.0828"></polygon>
                    <polygon id="Stroke-153" stroke="#33475C" stroke-linecap="round" stroke-linejoin="round" points="11.4537 116.7732 6.1817 119.8172 11.4537 122.8612 16.7257 119.8172"></polygon>
                    <polygon id="Stroke-155" stroke="#33475C" stroke-linecap="round" stroke-linejoin="round" points="6.1817 69.3786 11.4537 72.4226 11.4537 122.8606 6.1817 119.8166"></polygon>
                    <polygon id="Stroke-157" stroke="#33475C" stroke-linecap="round" stroke-linejoin="round" points="81.2721 106.6452 81.2721 157.0832 76.0001 160.1262 76.0001 109.6882"></polygon>
                    <polygon id="Stroke-159" stroke="#33475C" stroke-linecap="round" stroke-linejoin="round" points="70.7281 106.6452 76.0001 109.6882 76.0001 160.1262 70.7281 157.0832"></polygon>
                    <polygon id="Fill-161" fill="#D29B6A" points="6.1817 75.4665 75.9997 115.7765 75.9997 170.1265 70.7277 167.0825 70.7277 130.0375 11.4537 95.8155 11.4537 132.8615 6.1817 129.8175"></polygon>
                    <polygon id="Stroke-163" stroke="#33475C" stroke-linecap="round" stroke-linejoin="round" points="6.1817 75.4665 75.9997 115.7765 75.9997 170.1265 70.7277 167.0825 70.7277 130.0375 11.4537 95.8155 11.4537 132.8615 6.1817 129.8175"></polygon>
                    <polygon id="Fill-165" fill="#C78244" points="16.7257 129.8171 11.4537 132.8611 11.4537 75.8151 16.7257 78.8591"></polygon>
                    <polygon id="Stroke-167" stroke="#33475C" stroke-linecap="round" stroke-linejoin="round" points="16.7257 129.8171 11.4537 132.8611 11.4537 75.8151 16.7257 78.8591"></polygon>
                    <polygon id="Fill-169" fill="#C78244" points="76.0001 170.1267 76.0001 115.7757 145.8181 75.4667 145.8181 129.8167 140.5461 132.8607 140.5461 85.8147 81.2721 120.0377 81.2711 167.0827"></polygon>
                    <polygon id="Stroke-171" stroke="#33475C" stroke-linecap="round" stroke-linejoin="round" points="76.0001 170.1267 76.0001 115.7757 145.8181 75.4667 145.8181 129.8167 140.5461 132.8607 140.5461 85.8147 81.2721 120.0377 81.2711 167.0827"></polygon>
                    <polygon id="Fill-173" fill="#C78244" points="6.1817 69.3786 75.9997 109.6886 75.9997 115.7756 6.1817 75.4666"></polygon>
                    <polygon id="Stroke-175" stroke="#33475C" stroke-linecap="round" stroke-linejoin="round" points="6.1817 69.3786 75.9997 109.6886 75.9997 115.7756 6.1817 75.4666"></polygon>
                    <polygon id="Fill-177" fill="#C78244" points="145.8185 69.3786 145.8185 75.4666 76.0005 115.7756 76.0005 109.6886"></polygon>
                    <polygon id="Stroke-179" stroke="#33475C" stroke-linecap="round" stroke-linejoin="round" points="145.8185 69.3786 145.8185 75.4666 76.0005 115.7756 76.0005 109.6886"></polygon>
                    <polygon id="Fill-181" fill="#D29B6A" points="76.0001 29.0691 6.1821 69.3801 76.0001 109.6881 145.8181 69.3801"></polygon>
                    <polygon id="Stroke-183" stroke="#33475C" stroke-linecap="round" stroke-linejoin="round" points="76.0001 29.0691 6.1821 69.3801 76.0001 109.6881 145.8181 69.3801"></polygon>
                    <path d="M148.3321,74.5788 C148.2561,72.9408 148.1141,71.1428 146.9621,69.9768 C146.2131,69.2208 144.2781,68.4898 143.0451,67.7778 L76.0001,29.0688 L6.8351,69.0018 C4.6151,69.8968 3.7951,73.1258 3.5861,75.6668 C2.5991,87.7158 1.6111,99.7648 0.6241,111.8118 C7.0361,113.1838 12.6631,116.8988 18.0861,120.5848 C36.0381,132.7818 53.7301,142.5238 73.0941,152.3268 C74.2731,152.9238 75.5141,153.5218 76.8351,153.5088 C78.1231,153.4928 79.3241,152.8968 80.4651,152.2998 C104.8021,139.5578 125.4361,123.4868 150.0271,111.2408 L148.3321,74.5788 Z" id="Fill-185" fill="#7BDED2"></path>
                    <path d="M148.3321,74.5788 C148.2561,72.9408 148.1141,71.1428 146.9621,69.9768 C146.2131,69.2208 144.2781,68.4898 143.0451,67.7778 L76.0001,29.0688 L6.8351,69.0018 C4.6151,69.8968 3.7951,73.1258 3.5861,75.6668 C2.5991,87.7158 1.6111,99.7648 0.6241,111.8118 C7.0361,113.1838 12.6631,116.8988 18.0861,120.5848 C36.0381,132.7818 53.7301,142.5238 73.0941,152.3268 C74.2731,152.9238 75.5141,153.5218 76.8351,153.5088 C78.1231,153.4928 79.3241,152.8968 80.4651,152.2998 C104.8021,139.5578 125.4361,123.4868 150.0271,111.2408 L148.3321,74.5788 Z" id="Stroke-187" stroke="#33475C" stroke-linecap="round" stroke-linejoin="round"></path>
                    <g id="Group-192" transform="translate(71.000000, 111.000000)">
                        <path d="M0.6774,35.5388 L3.7314,0.2598" id="Fill-189" fill="#CBD6E3"></path>
                        <path d="M0.6774,35.5388 L3.7314,0.2598" id="Stroke-191" stroke="#00BEA5" stroke-linecap="round" stroke-linejoin="round"></path>
                    </g>
                    <g id="Group-196" transform="translate(78.000000, 70.000000)">
                        <path d="M0.6358,38.1667 L65.1818,0.9007" id="Fill-193" fill="#D29B6A"></path>
                        <path d="M0.6358,38.1667 L65.1818,0.9007" id="Stroke-195" stroke="#33475C" stroke-linecap="round" stroke-linejoin="round"></path>
                    </g>
                    <g id="Group-200" transform="translate(8.000000, 70.000000)">
                        <path d="M0.818,0.9011 L65.364,38.1671" id="Fill-197" fill="#D29B6A"></path>
                        <path d="M0.818,0.9011 L65.364,38.1671" id="Stroke-199" stroke="#33475C" stroke-linecap="round" stroke-linejoin="round"></path>
                    </g>
                    <g id="Group-204" transform="translate(6.000000, 75.000000)">
                        <path d="M0.1817,0.4665 L5.4537,35.4225" id="Fill-201" fill="#D29B6A"></path>
                        <path d="M0.1817,0.4665 L5.4537,35.4225" id="Stroke-203" stroke="#00BEA5" stroke-linecap="round" stroke-linejoin="round"></path>
                    </g>
                    <g id="Group-208" transform="translate(142.000000, 75.000000)">
                        <path d="M3.8185,0.4665 L0.6045,35.1465" id="Fill-205" fill="#D29B6A"></path>
                        <path d="M3.8185,0.4665 L0.6045,35.1465" id="Stroke-207" stroke="#00BEA5" stroke-linecap="round" stroke-linejoin="round"></path>
                    </g>
                    <g id="Group-212" transform="translate(77.000000, 114.000000)">
                        <path d="M0.4303,0.4362 L4.7513,32.5392" id="Fill-209" fill="#CBD6E3"></path>
                        <path d="M0.4303,0.4362 L4.7513,32.5392" id="Stroke-211" stroke="#00BEA5" stroke-linecap="round" stroke-linejoin="round"></path>
                    </g>
                    <path d="M145.8185,69.3796 L83.1875,33.2196 L76.0005,29.0686 L6.8355,69.0016 C6.8335,69.0026 6.8315,69.0046 6.8295,69.0046 L6.1815,69.3796 L76.0005,109.6886 L145.8185,69.3796 Z" id="Fill-213" fill="#BFEDE8"></path>
                    <path d="M35.2584,121.8884 L35.2584,120.4094 C35.2594,119.1334 36.2944,118.6974 37.5704,119.4314 L40.2384,120.9724 C40.8714,121.3354 41.4774,121.9474 41.9114,122.6594 L42.1544,122.7994 C44.2954,124.0164 46.1234,123.5394 46.5164,121.6614 C46.2404,121.1844 46.0314,120.6934 45.9024,120.2174 C45.7714,119.7304 45.7014,119.2624 45.6964,118.8274 L45.6964,115.6284 C45.7014,115.2134 45.7674,114.8384 45.8934,114.5134 C46.0914,113.9494 46.5274,113.6164 47.1214,113.5764 C47.1094,113.3474 47.0844,113.1124 47.0484,112.8714 C46.2814,107.8904 42.0254,102.3414 37.4714,100.3884 C35.7084,99.5944 34.0644,99.4314 32.7834,99.9234 C32.4834,100.0494 31.9974,99.7684 31.6984,99.2954 C31.3984,98.8234 31.3994,98.3364 31.6994,98.2104 C31.7034,98.2084 31.7074,98.2064 31.7124,98.2054 C33.2204,97.6174 35.1584,97.8034 37.2384,98.7344 C42.6194,101.0394 47.6514,107.5994 48.5524,113.4854 C48.6174,113.9514 48.6564,114.4074 48.6694,114.8484 L48.6694,114.8944 C48.6854,115.2394 48.4814,115.4284 48.1654,115.3624 C47.7584,115.2844 47.4514,115.4494 47.3394,115.8064 C47.2654,116.0154 47.2294,116.2564 47.2324,116.5214 L47.2324,119.6804 C47.2324,119.9624 47.2764,120.2684 47.3614,120.5864 C47.4444,120.9064 47.6034,121.2394 47.8184,121.5474 C48.0154,121.8244 48.1194,122.1334 48.0944,122.3734 C47.7734,125.2344 45.2164,126.0774 42.1544,124.3344 L41.5404,123.9804 C41.2794,123.8284 41.0364,123.5554 40.8954,123.2544 C40.7544,122.9524 40.5124,122.6774 40.2504,122.5234 L37.5824,120.9834 C37.1534,120.7284 36.8004,120.8674 36.7934,121.2914 L36.7934,121.2944 L36.7934,122.7754 C36.7934,123.2034 37.1414,123.7524 37.5704,123.9994 L40.2384,125.5404 C40.4994,125.6884 40.7424,125.6934 40.8834,125.5534 C41.0244,125.4144 41.2664,125.4224 41.5274,125.5734 L42.1414,125.9274 C46.1234,128.2154 49.4194,127.0314 49.6884,123.2134 C49.7094,122.9654 49.8614,122.8224 50.0904,122.8314 C50.1854,122.8354 50.2774,122.8304 50.3634,122.8174 C50.7734,122.7914 51.0284,122.4914 51.0454,122.0134 C51.0604,120.9594 51.0634,119.8384 51.0454,118.6734 C51.0424,118.2404 50.8444,117.7184 50.5084,117.2544 C50.3264,116.9984 50.2244,116.7134 50.2314,116.4814 C50.3234,113.5394 49.2414,110.0024 47.2164,106.6254 C45.6254,103.8824 43.4694,101.3994 41.0914,99.5714 C36.5934,96.1174 32.8024,95.2244 29.8114,96.9094 C29.4874,97.0924 29.1884,97.3114 28.9154,97.5644 C28.6794,97.7814 28.2024,97.6004 27.8494,97.1604 C27.4974,96.7214 27.4024,96.1894 27.6374,95.9734 C27.9474,95.6864 28.2874,95.4374 28.6544,95.2274 C32.0284,93.3134 36.3084,94.3344 41.3744,98.2264 C44.0834,100.3034 46.5424,103.1274 48.3594,106.2504 C50.5754,109.9384 51.7994,113.8024 51.7824,117.0664 C52.2964,117.9054 52.5864,118.7884 52.5924,119.5384 L52.5924,122.9154 C52.5674,123.8684 52.0794,124.4834 51.2814,124.5694 L51.1964,124.5804 C50.6754,128.8844 46.7874,130.1214 42.1544,127.4594 L41.9114,127.3204 C41.4794,127.5264 40.8784,127.4364 40.2504,127.0734 L37.5824,125.5334 C36.3054,124.8004 35.2654,123.1694 35.2584,121.8884 Z M28.3014,110.4264 C27.4874,109.9564 26.8274,108.9154 26.8274,108.1024 L26.8274,101.1294 C26.8274,100.3164 27.4874,100.0364 28.3014,100.5064 L40.8894,107.7744 C41.7024,108.2434 42.3624,109.2844 42.3624,110.0994 L42.3624,117.0864 C42.3624,117.9004 41.7024,118.1794 40.8894,117.7094 L34.6844,114.1264 C34.4804,114.0094 34.2844,113.9774 34.1404,114.0374 L32.0804,114.8964 C32.0514,114.9134 32.0014,114.8954 31.9614,114.8514 C31.9194,114.8114 31.8924,114.7554 31.8934,114.7104 L31.8934,113.2684 C31.8934,112.8444 31.5504,112.3024 31.1254,112.0574 L28.3014,110.4264 Z M31.3714,115.9294 C31.9864,116.5394 32.6944,116.8084 33.1644,116.6084 L35.0064,115.8294 L40.8734,119.2174 C42.5344,120.1744 43.8814,119.6064 43.8824,117.9464 L43.8824,110.9764 C43.8814,109.3144 42.5344,107.1914 40.8734,106.2304 L28.2854,98.9624 C26.6244,98.0054 25.2794,98.5754 25.2774,100.2344 L25.2774,107.2224 C25.2794,108.8844 26.6244,111.0074 28.2854,111.9684 L30.3454,113.1584 L30.3454,113.8294 C30.3524,114.4964 30.7564,115.3254 31.3714,115.9294 Z" id="Fill-215" fill="#FFFFFF"></path>
                    <path d="M33.0387,109.4255 C33.4627,109.6695 33.8067,109.5255 33.8067,109.1015 C33.8067,108.6765 33.4627,108.1345 33.0387,107.8905 C32.6147,107.6455 32.2707,107.7905 32.2707,108.2145 C32.2707,108.6385 32.6147,109.1805 33.0387,109.4255" id="Fill-217" fill="#FFFFFF"></path>
                    <path d="M35.3566,109.9958 C35.3566,110.4138 35.6906,110.9478 36.1086,111.1978 C36.5326,111.4428 36.8766,111.2978 36.8766,110.8738 C36.8766,110.4498 36.5326,109.9078 36.1086,109.6628 C35.6846,109.4178 35.3416,109.5628 35.3416,109.9868 L35.3566,109.9958 Z" id="Fill-219" fill="#FFFFFF"></path>
                    <path d="M38.4449,111.779 C38.4449,112.197 38.7789,112.731 39.1969,112.981 C39.6209,113.226 39.9649,113.081 39.9649,112.657 C39.9649,112.233 39.6209,111.691 39.1969,111.446 C38.7739,111.201 38.4299,111.346 38.4299,111.77 L38.4449,111.779 Z" id="Fill-221" fill="#FFFFFF"></path>
                    <path d="M30.7174,107.3181 L30.7174,107.3021 C30.7084,106.8741 30.3584,106.3351 29.9344,106.0981 C29.5104,105.8531 29.1674,105.9991 29.1674,106.4221 C29.1674,106.8461 29.5104,107.3881 29.9344,107.6331 C30.3584,107.8781 30.7024,107.7331 30.7024,107.3081 L30.7174,107.3181 Z" id="Fill-223" fill="#FFFFFF"></path>
                    <path d="M112.6124,99.362 C107.9884,103.247 105.0834,111.245 106.1354,117.191 C107.1874,123.137 111.8054,124.815 116.4284,120.93 C121.0524,117.047 123.9574,109.048 122.9054,103.102 C121.8534,97.156 117.2364,95.478 112.6124,99.362 M116.7774,122.9 C111.3094,127.494 105.8484,125.51 104.6044,118.478 C103.3594,111.446 106.7964,101.987 112.2634,97.393 C117.7324,92.8 123.1934,94.784 124.4374,101.816 C125.6814,108.848 122.2454,118.306 116.7774,122.9" id="Fill-225" fill="#FFFFFF"></path>
                    <path d="M115.9093,116.1667 C113.2413,118.4077 110.7893,117.5467 110.7543,117.5337 C110.5723,117.4657 110.5183,117.1527 110.6343,116.8357 C110.7493,116.5187 110.9923,116.3167 111.1763,116.3837 C111.3533,116.4487 115.5553,117.8967 118.6073,111.0437 C118.7433,110.7367 118.9913,110.5717 119.1593,110.6767 C119.3273,110.7807 119.3533,111.1147 119.2163,111.4227 C118.1833,113.7417 117.0273,115.2277 115.9093,116.1667" id="Fill-227" fill="#FFFFFF"></path>
                    <path d="M112.2413,110.1804 C112.0413,110.3494 111.8373,110.2894 111.7783,110.0394 C111.6863,109.6494 111.5483,109.1634 111.2973,108.8734 C111.0723,108.6154 110.7743,108.5524 110.4983,108.7084 C110.2423,108.8514 110.0093,109.1734 109.8573,109.4174 C109.3583,110.2204 109.0663,111.2614 109.0943,112.1324 C109.1033,112.4324 108.9373,112.7754 108.7193,112.9044 C108.5023,113.0294 108.3193,112.8894 108.3093,112.5904 C108.2703,111.3714 108.6793,109.9174 109.3773,108.7964 C109.7273,108.2344 110.1063,107.8284 110.4723,107.6184 C110.9873,107.3284 111.5203,107.4154 111.8983,107.8524 C112.2433,108.2494 112.4183,108.8534 112.5313,109.3354 C112.5923,109.5964 112.4733,109.9644 112.2653,110.1594 C112.2573,110.1664 112.2493,110.1734 112.2413,110.1804" id="Fill-229" fill="#FFFFFF"></path>
                    <path d="M119.7198,104.7097 C119.5198,104.8777 119.3158,104.8187 119.2568,104.5687 C119.1648,104.1787 119.0268,103.6927 118.7758,103.4037 C118.5508,103.1457 118.2518,103.0817 117.9758,103.2387 C117.7208,103.3807 117.4878,103.7037 117.3358,103.9477 C116.8368,104.7517 116.5438,105.7917 116.5728,106.6627 C116.5818,106.9627 116.4128,107.2997 116.1978,107.4337 C115.9808,107.5597 115.7978,107.4197 115.7878,107.1207 C115.7478,105.9017 116.1568,104.4477 116.8558,103.3257 C117.2048,102.7657 117.5848,102.3557 117.9498,102.1487 C118.4658,101.8577 118.9988,101.9447 119.3768,102.3817 C119.7218,102.7787 119.8958,103.3827 120.0098,103.8647 C120.0708,104.1257 119.9518,104.4937 119.7438,104.6887 C119.7358,104.6957 119.7278,104.7027 119.7198,104.7097" id="Fill-231" fill="#FFFFFF"></path>
                    <g id="Group-236" transform="translate(78.000000, 70.000000)">
                        <path d="M0.6358,38.1667 L65.1818,0.9007" id="Fill-233" fill="#D29B6A"></path>
                        <path d="M0.6358,38.1667 L65.1818,0.9007" id="Stroke-235" stroke="#00BEA5" stroke-linecap="round" stroke-linejoin="round"></path>
                    </g>
                    <g id="Group-240" transform="translate(8.000000, 70.000000)">
                        <path d="M0.818,0.9011 L65.364,38.1671" id="Fill-237" fill="#D29B6A"></path>
                        <path d="M0.818,0.9011 L65.364,38.1671" id="Stroke-239" stroke="#00BEA5" stroke-linecap="round" stroke-linejoin="round"></path>
                    </g>
                    <path d="M148.3321,74.5788 C148.2561,72.9408 148.1141,71.1428 146.9621,69.9768 C146.2131,69.2208 144.2781,68.4898 143.0451,67.7778 L76.0001,29.0688 L6.8351,69.0018 C4.6151,69.8968 3.7951,73.1258 3.5861,75.6668 C2.5991,87.7158 1.6111,99.7648 0.6241,111.8118 C7.0361,113.1838 12.6631,116.8988 18.0861,120.5848 C36.0381,132.7818 53.7301,142.5238 73.0941,152.3268 C74.2731,152.9238 75.5141,153.5218 76.8351,153.5088 C78.1231,153.4928 79.3241,152.8968 80.4651,152.2998 C104.8021,139.5578 125.4361,123.4868 150.0271,111.2408 L148.3321,74.5788 Z" id="Stroke-241" stroke="#33475C" stroke-linecap="round" stroke-linejoin="round"></path>
                    <path d="M27.7633,50.5886 C27.7633,44.6886 31.9433,42.2756 37.0523,45.2256 C42.1613,48.1746 46.3423,55.4146 46.3423,61.3146 C46.3423,67.2146 42.1613,69.6276 37.0523,66.6776 C31.9433,63.7286 27.7633,56.4876 27.7633,50.5886" id="Fill-243" fill="#506E91"></path>
                    <path d="M27.7633,50.5886 C27.7633,44.6886 31.9433,42.2756 37.0523,45.2256 C42.1613,48.1746 46.3423,55.4146 46.3423,61.3146 C46.3423,67.2146 42.1613,69.6276 37.0523,66.6776 C31.9433,63.7286 27.7633,56.4876 27.7633,50.5886 Z" id="Stroke-245" stroke="#33475C" stroke-linecap="round" stroke-linejoin="round"></path>
                    <path d="M33.3985,46.3542 C30.5995,44.7382 28.0575,44.6032 26.2245,45.6892 L22.9035,47.6562 L24.0945,48.1322 C23.5865,49.2272 23.3055,50.5862 23.3055,52.1812 C23.3055,58.5912 27.8475,66.4582 33.3985,69.6632 C34.8725,70.5132 36.2725,70.9502 37.5375,71.0172 L37.2525,72.2942 L40.5735,70.3282 C42.3755,69.2602 43.4915,67.0132 43.4915,63.8352 C43.4915,57.4252 38.9495,49.5592 33.3985,46.3542" id="Fill-247" fill="#40BBCE"></path>
                    <path d="M33.3985,46.3542 C30.5995,44.7382 28.0575,44.6032 26.2245,45.6892 L22.9035,47.6562 L24.0945,48.1322 C23.5865,49.2272 23.3055,50.5862 23.3055,52.1812 C23.3055,58.5912 27.8475,66.4582 33.3985,69.6632 C34.8725,70.5132 36.2725,70.9502 37.5375,71.0172 L37.2525,72.2942 L40.5735,70.3282 C42.3755,69.2602 43.4915,67.0132 43.4915,63.8352 C43.4915,57.4252 38.9495,49.5592 33.3985,46.3542 Z" id="Stroke-249" stroke="#33475C" stroke-linecap="round" stroke-linejoin="round"></path>
                    <path d="M19.9855,54.1482 C19.9855,50.9702 21.1015,48.7232 22.9035,47.6562 C24.7365,46.5712 27.2785,46.7052 30.0785,48.3212 C35.6295,51.5262 40.1715,59.3922 40.1715,65.8022 C40.1715,68.9802 39.0555,71.2272 37.2535,72.2942 C35.4205,73.3802 32.8775,73.2462 30.0785,71.6292 C24.5275,68.4242 19.9855,60.5582 19.9855,54.1482" id="Fill-251" fill="#7CD1DF"></path>
                    <path d="M19.9855,54.1482 C19.9855,50.9702 21.1015,48.7232 22.9035,47.6562 C24.7365,46.5712 27.2785,46.7052 30.0785,48.3212 C35.6295,51.5262 40.1715,59.3922 40.1715,65.8022 C40.1715,68.9802 39.0555,71.2272 37.2535,72.2942 C35.4205,73.3802 32.8775,73.2462 30.0785,71.6292 C24.5275,68.4242 19.9855,60.5582 19.9855,54.1482 Z" id="Stroke-253" stroke="#33475C" stroke-linecap="round" stroke-linejoin="round"></path>
                    <path d="M29.69,52.7243 C27.719,51.5863 25.943,51.5693 24.728,52.4593 L21.821,54.5913 L22.259,59.0573 L25.704,65.9473 L31.745,70.3983 L34.652,68.2673 C35.68,67.5133 36.306,66.1093 36.306,64.1833 C36.306,59.9813 33.329,54.8253 29.69,52.7243" id="Fill-255" fill="#506E91"></path>
                    <path d="M29.69,52.7243 C27.719,51.5863 25.943,51.5693 24.728,52.4593 L21.821,54.5913 L22.259,59.0573 L25.704,65.9473 L31.745,70.3983 L34.652,68.2673 C35.68,67.5133 36.306,66.1093 36.306,64.1833 C36.306,59.9813 33.329,54.8253 29.69,52.7243 Z" id="Stroke-257" stroke="#33475C" stroke-linecap="round" stroke-linejoin="round"></path>
                    <path d="M20.1676,58.6755 C20.1676,56.7495 20.7926,55.3455 21.8206,54.5915 C23.0356,53.7005 24.8126,53.7185 26.7836,54.8565 C30.4216,56.9565 33.3986,62.1135 33.3986,66.3155 C33.3986,68.2405 32.7726,69.6455 31.7456,70.3985 C30.5306,71.2895 28.7536,71.2725 26.7836,70.1345 C23.1446,68.0335 20.1676,62.8765 20.1676,58.6755" id="Fill-259" fill="#40BBCE"></path>
                    <path d="M20.1676,58.6755 C20.1676,56.7495 20.7926,55.3455 21.8206,54.5915 C23.0356,53.7005 24.8126,53.7185 26.7836,54.8565 C30.4216,56.9565 33.3986,62.1135 33.3986,66.3155 C33.3986,68.2405 32.7726,69.6455 31.7456,70.3985 C30.5306,71.2895 28.7536,71.2725 26.7836,70.1345 C23.1446,68.0335 20.1676,62.8765 20.1676,58.6755 Z" id="Stroke-261" stroke="#33475C" stroke-linecap="round" stroke-linejoin="round"></path>
                    <path d="M54.3551,36.4558 C54.3551,33.9958 55.2191,32.2558 56.6151,31.4298 C58.0341,30.5888 60.0021,30.6928 62.1701,31.9438 C66.4681,34.4258 69.9851,40.5178 69.9851,45.4798 C69.9851,47.9408 69.1211,49.6808 67.7261,50.5078 C66.3061,51.3488 64.3371,51.2438 62.1701,49.9918 C57.8721,47.5108 54.3551,41.4198 54.3551,36.4558" id="Fill-263" fill="#7CD1DF"></path>
                    <path d="M54.3551,36.4558 C54.3551,33.9958 55.2191,32.2558 56.6151,31.4298 C58.0341,30.5888 60.0021,30.6928 62.1701,31.9438 C66.4681,34.4258 69.9851,40.5178 69.9851,45.4798 C69.9851,47.9408 69.1211,49.6808 67.7261,50.5078 C66.3061,51.3488 64.3371,51.2438 62.1701,49.9918 C57.8721,47.5108 54.3551,41.4198 54.3551,36.4558 Z" id="Stroke-265" stroke="#33475C" stroke-linecap="round" stroke-linejoin="round"></path>
                    <path d="M55.0055,78.3542 C54.6115,78.3542 54.2275,78.1552 54.0085,77.7932 C53.6745,77.2442 53.8505,76.5282 54.4005,76.1942 C59.2205,73.2712 62.5505,70.1022 64.5815,66.5062 C67.0155,62.1992 67.3655,57.1772 65.4955,53.4012 C65.2105,52.8252 65.4455,52.1262 66.0225,51.8402 C66.5995,51.5552 67.2975,51.7922 67.5825,52.3682 C69.7905,56.8262 69.4175,62.6812 66.6095,67.6522 C64.3775,71.6042 60.7785,75.0502 55.6085,78.1862 C55.4195,78.3002 55.2115,78.3542 55.0055,78.3542" id="Fill-267" fill="#506E91"></path>
                    <path d="M55.0055,78.3542 C54.6115,78.3542 54.2275,78.1552 54.0085,77.7932 C53.6745,77.2442 53.8505,76.5282 54.4005,76.1942 C59.2205,73.2712 62.5505,70.1022 64.5815,66.5062 C67.0155,62.1992 67.3655,57.1772 65.4955,53.4012 C65.2105,52.8252 65.4455,52.1262 66.0225,51.8402 C66.5995,51.5552 67.2975,51.7922 67.5825,52.3682 C69.7905,56.8262 69.4175,62.6812 66.6095,67.6522 C64.3775,71.6042 60.7785,75.0502 55.6085,78.1862 C55.4195,78.3002 55.2115,78.3542 55.0055,78.3542 Z" id="Stroke-269" stroke="#33475C" stroke-linecap="round" stroke-linejoin="round"></path>
                    <path d="M56.2032,73.0359 C55.0362,73.0639 54.0262,73.8129 53.1042,74.5299 C52.2852,75.1659 51.4652,75.8029 50.6462,76.4379 C49.9412,76.9859 49.2122,77.5619 48.8182,78.3639 C48.3002,79.4169 48.4852,80.7649 49.2332,81.6689 C49.9822,82.5719 51.2452,83.0039 52.3982,82.7909 C53.4902,82.5899 54.4102,81.8849 55.2852,81.2009 C56.1722,80.5079 57.0592,79.8139 57.9472,79.1199 C58.7532,78.4899 59.6232,77.7499 59.7392,76.7319 C59.9342,75.0229 57.8662,72.9949 56.2032,73.0359" id="Fill-271" fill="#506E91"></path>
                    <path d="M56.2032,73.0359 C55.0362,73.0639 54.0262,73.8129 53.1042,74.5299 C52.2852,75.1659 51.4652,75.8029 50.6462,76.4379 C49.9412,76.9859 49.2122,77.5619 48.8182,78.3639 C48.3002,79.4169 48.4852,80.7649 49.2332,81.6689 C49.9822,82.5719 51.2452,83.0039 52.3982,82.7909 C53.4902,82.5899 54.4102,81.8849 55.2852,81.2009 C56.1722,80.5079 57.0592,79.8139 57.9472,79.1199 C58.7532,78.4899 59.6232,77.7499 59.7392,76.7319 C59.9342,75.0229 57.8662,72.9949 56.2032,73.0359 Z" id="Stroke-273" stroke="#33475C" stroke-linecap="round" stroke-linejoin="round"></path>
                    <path d="M25.3614,47.7966 C24.8774,46.2716 24.6164,44.5036 24.6164,42.5156 C24.6164,31.8596 32.0974,18.9016 41.3254,13.5736 C45.9394,10.9106 50.1164,10.6576 53.1404,12.4036 C56.1644,14.1506 58.0344,17.8936 58.0344,23.2216 C58.0344,25.2096 57.7734,27.2786 57.2894,29.3626 L63.6484,33.0336 C64.1324,30.9496 64.3934,28.8806 64.3934,26.8926 C64.3934,21.5646 62.5234,17.8206 59.4994,16.0746 C56.4754,14.3286 52.2984,14.5816 47.6844,17.2456 C38.4554,22.5726 30.9744,35.5306 30.9744,46.1866 C30.9744,48.1746 31.2364,49.9426 31.7194,51.4676 L25.3614,47.7966 Z" id="Fill-275" fill="#506E91"></path>
                    <path d="M25.3614,47.7966 C24.8774,46.2716 24.6164,44.5036 24.6164,42.5156 C24.6164,31.8596 32.0974,18.9016 41.3254,13.5736 C45.9394,10.9106 50.1164,10.6576 53.1404,12.4036 C56.1644,14.1506 58.0344,17.8936 58.0344,23.2216 C58.0344,25.2096 57.7734,27.2786 57.2894,29.3626 L63.6484,33.0336 C64.1324,30.9496 64.3934,28.8806 64.3934,26.8926 C64.3934,21.5646 62.5234,17.8206 59.4994,16.0746 C56.4754,14.3286 52.2984,14.5816 47.6844,17.2456 C38.4554,22.5726 30.9744,35.5306 30.9744,46.1866 C30.9744,48.1746 31.2364,49.9426 31.7194,51.4676 L25.3614,47.7966 Z" id="Stroke-277" stroke="#33475C" stroke-linecap="round" stroke-linejoin="round"></path>
                    <path d="M30.5533,53.0212 C30.1573,53.0212 29.7573,52.9202 29.3903,52.7092 L23.0323,49.0382 C21.9183,48.3942 21.5363,46.9702 22.1793,45.8562 C22.8233,44.7422 24.2473,44.3592 25.3613,45.0032 L31.7203,48.6742 C32.8333,49.3182 33.2153,50.7422 32.5723,51.8562 C32.1413,52.6032 31.3583,53.0212 30.5533,53.0212" id="Fill-279" fill="#40BBCE"></path>
                    <path d="M30.5533,53.0212 C30.1573,53.0212 29.7573,52.9202 29.3903,52.7092 L23.0323,49.0382 C21.9183,48.3942 21.5363,46.9702 22.1793,45.8562 C22.8233,44.7422 24.2473,44.3592 25.3613,45.0032 L31.7203,48.6742 C32.8333,49.3182 33.2153,50.7422 32.5723,51.8562 C32.1413,52.6032 31.3583,53.0212 30.5533,53.0212 Z" id="Stroke-281" stroke="#33475C" stroke-linecap="round" stroke-linejoin="round"></path>
                    <path d="M63.6461,35.364 C63.2511,35.364 62.8511,35.263 62.4841,35.052 L56.1251,31.381 C55.0111,30.737 54.6291,29.312 55.2721,28.198 C55.9161,27.085 57.3401,26.702 58.4541,27.345 L64.8131,31.017 C65.9271,31.66 66.3091,33.085 65.6661,34.199 C65.2341,34.946 64.4511,35.364 63.6461,35.364" id="Fill-283" fill="#40BBCE"></path>
                    <path d="M63.6461,35.364 C63.2511,35.364 62.8511,35.263 62.4841,35.052 L56.1251,31.381 C55.0111,30.737 54.6291,29.312 55.2721,28.198 C55.9161,27.085 57.3401,26.702 58.4541,27.345 L64.8131,31.017 C65.9271,31.66 66.3091,33.085 65.6661,34.199 C65.2341,34.946 64.4511,35.364 63.6461,35.364 Z" id="Stroke-285" stroke="#33475C" stroke-linecap="round" stroke-linejoin="round"></path>
                    <path d="M60.6637,14.0583 L54.3057,10.3863 C50.3977,8.1313 45.3747,8.5473 40.1607,11.5573 C33.3367,15.4963 27.2147,23.3673 24.1837,32.0953 C23.8167,33.1513 24.2517,34.3183 25.2197,34.8763 L31.5777,38.5473 C31.9357,38.7543 32.3387,38.8603 32.7427,38.8603 C33.0167,38.8603 33.2917,38.8113 33.5557,38.7133 C34.2057,38.4713 34.7147,37.9513 34.9427,37.2943 C37.5817,29.6943 43.0397,22.6163 48.8487,19.2623 C51.3117,17.8403 53.6847,17.1683 55.7097,17.3193 C56.6887,17.3913 57.5717,17.6523 58.3347,18.0923 C59.4497,18.7363 60.8737,18.3543 61.5167,17.2393 C62.1597,16.1253 61.7777,14.7013 60.6637,14.0583" id="Fill-287" fill="#40BBCE"></path>
                    <path d="M60.6637,14.0583 L54.3057,10.3863 C50.3977,8.1313 45.3747,8.5473 40.1607,11.5573 C33.3367,15.4963 27.2147,23.3673 24.1837,32.0953 C23.8167,33.1513 24.2517,34.3183 25.2197,34.8763 L31.5777,38.5473 C31.9357,38.7543 32.3387,38.8603 32.7427,38.8603 C33.0167,38.8603 33.2917,38.8113 33.5557,38.7133 C34.2057,38.4713 34.7147,37.9513 34.9427,37.2943 C37.5817,29.6943 43.0397,22.6163 48.8487,19.2623 C51.3117,17.8403 53.6847,17.1683 55.7097,17.3193 C56.6887,17.3913 57.5717,17.6523 58.3347,18.0923 C59.4497,18.7363 60.8737,18.3543 61.5167,17.2393 C62.1597,16.1253 61.7777,14.7013 60.6637,14.0583 Z" id="Stroke-289" stroke="#33475C" stroke-linecap="round" stroke-linejoin="round"></path>
                    <path d="M49.0519,37.1648 C49.0519,33.9248 50.1899,31.6328 52.0279,30.5448 C53.8969,29.4368 56.4899,29.5738 59.3449,31.2228 C65.0059,34.4908 69.6379,42.5138 69.6379,49.0508 C69.6379,52.2908 68.4999,54.5828 66.6619,55.6708 C64.7929,56.7778 62.1989,56.6418 59.3449,54.9928 C53.6839,51.7248 49.0519,43.7018 49.0519,37.1648" id="Fill-291" fill="#40BBCE"></path>
                    <path d="M49.0519,37.1648 C49.0519,33.9248 50.1899,31.6328 52.0279,30.5448 C53.8969,29.4368 56.4899,29.5738 59.3449,31.2228 C65.0059,34.4908 69.6379,42.5138 69.6379,49.0508 C69.6379,52.2908 68.4999,54.5828 66.6619,55.6708 C64.7929,56.7778 62.1989,56.6418 59.3449,54.9928 C53.6839,51.7248 49.0519,43.7018 49.0519,37.1648 Z" id="Stroke-293" stroke="#33475C" stroke-linecap="round" stroke-linejoin="round"></path>
                    <path d="M55.6988,33.5701 C52.8998,31.9541 50.3568,31.8191 48.5238,32.9051 C48.1028,33.1551 47.7188,33.4681 47.3778,33.8441 L44.9218,36.5491 L45.7018,37.9001 C45.6418,38.3751 45.6058,38.8711 45.6058,39.3971 C45.6058,45.8071 50.1478,53.6741 55.6988,56.8791 C56.1538,57.1401 56.5988,57.3561 57.0378,57.5421 L57.8178,58.8931 L61.3898,58.1211 C61.9238,58.0061 62.4198,57.8121 62.8738,57.5441 C64.6758,56.4761 65.7918,54.2291 65.7918,51.0511 C65.7918,44.6411 61.2498,36.7751 55.6988,33.5701" id="Fill-295" fill="#506E91"></path>
                    <path d="M55.6988,33.5701 C52.8998,31.9541 50.3568,31.8191 48.5238,32.9051 C48.1028,33.1551 47.7188,33.4681 47.3778,33.8441 L44.9218,36.5491 L45.7018,37.9001 C45.6418,38.3751 45.6058,38.8711 45.6058,39.3971 C45.6058,45.8071 50.1478,53.6741 55.6988,56.8791 C56.1538,57.1401 56.5988,57.3561 57.0378,57.5421 L57.8178,58.8931 L61.3898,58.1211 C61.9238,58.0061 62.4198,57.8121 62.8738,57.5441 C64.6758,56.4761 65.7918,54.2291 65.7918,51.0511 C65.7918,44.6411 61.2498,36.7751 55.6988,33.5701 Z" id="Stroke-297" stroke="#33475C" stroke-linecap="round" stroke-linejoin="round"></path>
                    <path d="M43.2906,41.6599 C43.2906,39.4189 43.8936,37.6809 44.9216,36.5499 C46.6006,34.7009 49.4116,34.4679 52.5806,36.2969 C57.6886,39.2469 61.8696,46.4869 61.8696,52.3869 C61.8696,56.0469 60.2596,58.3649 57.8176,58.8929 C56.3246,59.2159 54.5196,58.8689 52.5806,57.7499 C47.4706,54.7999 43.2906,47.5589 43.2906,41.6599" id="Fill-299" fill="#7B97B7"></path>
                    <path d="M43.2906,41.6599 C43.2906,39.4189 43.8936,37.6809 44.9216,36.5499 C46.6006,34.7009 49.4116,34.4679 52.5806,36.2969 C57.6886,39.2469 61.8696,46.4869 61.8696,52.3869 C61.8696,56.0469 60.2596,58.3649 57.8176,58.8929 C56.3246,59.2159 54.5196,58.8689 52.5806,57.7499 C47.4706,54.7999 43.2906,47.5589 43.2906,41.6599 Z" id="Stroke-301" stroke="#33475C" stroke-linecap="round" stroke-linejoin="round"></path>
                    <path d="M47.9488,44.4968 C47.9488,41.5438 50.0408,40.3358 52.5978,41.8118 C55.1558,43.2888 57.2478,46.9128 57.2478,49.8648 C57.2478,52.8178 55.1558,54.0258 52.5978,52.5498 C50.0408,51.0728 47.9488,47.4488 47.9488,44.4968" id="Fill-303" fill="#506E91"></path>
                    <path d="M47.9488,44.4968 C47.9488,41.5438 50.0408,40.3358 52.5978,41.8118 C55.1558,43.2888 57.2478,46.9128 57.2478,49.8648 C57.2478,52.8178 55.1558,54.0258 52.5978,52.5498 C50.0408,51.0728 47.9488,47.4488 47.9488,44.4968 Z" id="Stroke-305" stroke="#33475C" stroke-linecap="round" stroke-linejoin="round"></path>
                    <path d="M125.8282,26.3816 L81.0002,0.5006 C80.0602,-0.0424 79.2062,-0.0914 78.5862,0.2666 L75.3322,2.1456 C74.7122,2.5026 74.3282,3.2676 74.3282,4.3536 L74.3282,37.6076 C74.3282,39.7776 75.8662,42.4426 77.7462,43.5276 L81.2622,45.5576 L81.2612,45.5576 L85.0572,54.0106 L88.8532,49.9406 L122.5742,69.4086 C123.5142,69.9516 124.3692,70.0016 124.9882,69.6436 L128.2422,67.7656 C128.8622,67.4066 129.2462,66.6426 129.2462,65.5576 L129.2462,32.3026 C129.2462,30.1316 127.7082,27.4676 125.8282,26.3816" id="Fill-307" fill="#FDEDF2"></path>
                    <path d="M125.8282,26.3816 L81.0002,0.5006 C80.0602,-0.0424 79.2062,-0.0914 78.5862,0.2666 L75.3322,2.1456 C74.7122,2.5026 74.3282,3.2676 74.3282,4.3536 L74.3282,37.6076 C74.3282,39.7776 75.8662,42.4426 77.7462,43.5276 L81.2622,45.5576 L81.2612,45.5576 L85.0572,54.0106 L88.8532,49.9406 L122.5742,69.4086 C123.5142,69.9516 124.3692,70.0016 124.9882,69.6436 L128.2422,67.7656 C128.8622,67.4066 129.2462,66.6426 129.2462,65.5576 L129.2462,32.3026 C129.2462,30.1316 127.7082,27.4676 125.8282,26.3816 Z" id="Stroke-309" stroke="#33475C" stroke-linecap="round" stroke-linejoin="round"></path>
                    <path d="M129.2467,32.3025 C129.2467,30.1315 127.7087,27.4675 125.8287,26.3815 L81.0007,0.5005 C80.0607,-0.0425 79.2057,-0.0915 78.5867,0.2665 L75.3317,2.1455 C75.9517,1.7865 76.8067,1.8365 77.7467,2.3795 L122.5747,28.2605 C124.4547,29.3465 125.9927,32.0105 125.9927,34.1815 L125.9927,67.4365 C125.9927,68.5215 125.6077,69.2855 124.9887,69.6435 L128.2427,67.7655 C128.8617,67.4065 129.2467,66.6425 129.2467,65.5575 L129.2467,32.3025 Z" id="Fill-311" fill="#FBA9BE"></path>
                    <path d="M125.8282,26.3816 L81.0002,0.5006 C80.0602,-0.0424 79.2062,-0.0914 78.5862,0.2666 L75.3322,2.1456 C74.7122,2.5026 74.3282,3.2676 74.3282,4.3536 L74.3282,37.6076 C74.3282,39.7776 75.8662,42.4426 77.7462,43.5276 L81.2622,45.5576 L81.2612,45.5576 L85.0572,54.0106 L88.8532,49.9406 L122.5742,69.4086 C123.5142,69.9516 124.3692,70.0016 124.9882,69.6436 L128.2422,67.7656 C128.8622,67.4066 129.2462,66.6426 129.2462,65.5576 L129.2462,32.3026 C129.2462,30.1316 127.7082,27.4676 125.8282,26.3816 Z" id="Stroke-313" stroke="#33475C" stroke-linecap="round" stroke-linejoin="round"></path>
                    <path d="M118.4435,34.9304 L81.7785,13.7614" id="Stroke-315" stroke="#FBA9BE" stroke-width="2" stroke-linecap="round"></path>
                    <path d="M105.4342,34.9392 L81.7792,21.2822" id="Stroke-317" stroke="#FBA9BE" stroke-width="2" stroke-linecap="round"></path>
                    <path d="M91.6979,42.0486 L81.7789,36.3216" id="Stroke-319" stroke="#FBA9BE" stroke-width="2" stroke-linecap="round"></path>
                    <path d="M95.7159,36.8484 L81.7789,28.8014" id="Stroke-321" stroke="#FBA9BE" stroke-width="2" stroke-linecap="round"></path>
                    <path d="M94.1998,48.3796 C94.6408,47.0826 95.4178,45.9116 96.3798,44.9366 C96.3978,44.9176 96.4168,44.8996 96.4358,44.8806 L98.6158,42.7006 C101.7828,39.5326 106.5898,38.4606 111.1088,38.9876 C114.8898,39.4306 117.9248,40.1796 121.4708,42.3006 C125.3178,44.6036 129.0118,47.5486 131.3738,51.3426 C133.0318,54.0056 133.8528,57.2506 133.7948,59.5646 C133.6988,63.4186 132.5768,65.9466 130.9428,67.5816 L128.7628,69.7616 C126.5428,71.9826 123.3758,72.5526 120.5518,72.5516 C119.1598,72.5516 116.1328,71.9796 113.9758,71.2846 C113.2928,73.8316 112.5458,76.3626 111.7048,78.8626 C111.4178,79.7186 110.6738,80.7736 109.8698,80.3626 C109.4918,80.1686 109.3348,79.7206 109.2128,79.3136 C108.1248,75.6666 107.1878,71.9756 106.3878,68.2556 C104.5498,67.3316 102.7898,66.2696 101.1768,64.9896 C97.4388,62.0286 94.4948,57.8326 93.8528,53.1076 C93.6378,51.5266 93.6858,49.8886 94.1998,48.3796" id="Fill-323" fill="#FFE2D4"></path>
                    <path d="M94.1998,48.3796 C94.6408,47.0826 95.4178,45.9116 96.3798,44.9366 C96.3978,44.9176 96.4168,44.8996 96.4358,44.8806 L98.6158,42.7006 C101.7828,39.5326 106.5898,38.4606 111.1088,38.9876 C114.8898,39.4306 117.9248,40.1796 121.4708,42.3006 C125.3178,44.6036 129.0118,47.5486 131.3738,51.3426 C133.0318,54.0056 133.8528,57.2506 133.7948,59.5646 C133.6988,63.4186 132.5768,65.9466 130.9428,67.5816 L128.7628,69.7616 C126.5428,71.9826 123.3758,72.5526 120.5518,72.5516 C119.1598,72.5516 116.1328,71.9796 113.9758,71.2846 C113.2928,73.8316 112.5458,76.3626 111.7048,78.8626 C111.4178,79.7186 110.6738,80.7736 109.8698,80.3626 C109.4918,80.1686 109.3348,79.7206 109.2128,79.3136 C108.1248,75.6666 107.1878,71.9756 106.3878,68.2556 C104.5498,67.3316 102.7898,66.2696 101.1768,64.9896 C97.4388,62.0286 94.4948,57.8326 93.8528,53.1076 C93.6378,51.5266 93.6858,49.8886 94.1998,48.3796 Z" id="Stroke-325" stroke="#33475C" stroke-linecap="round" stroke-linejoin="round"></path>
                    <path d="M94.1998,48.3796 C94.6408,47.0826 95.4178,45.9116 96.3798,44.9366 C96.3978,44.9176 96.4168,44.8996 96.4358,44.8806 C99.6028,41.7126 104.4108,40.6406 108.9288,41.1676 C112.7098,41.6096 115.7448,42.3586 119.2908,44.4806 C123.1378,46.7826 126.8318,49.7286 129.1948,53.5226 C130.8528,56.1856 131.6728,59.4306 131.6158,61.7436 C131.5198,65.5986 130.3978,68.1266 128.7628,69.7616 C126.5428,71.9826 123.3758,72.5526 120.5518,72.5516 C119.1598,72.5516 116.1328,71.9796 113.9758,71.2846 C113.2928,73.8316 112.5458,76.3626 111.7048,78.8626 C111.4178,79.7186 110.6738,80.7736 109.8698,80.3626 C109.4918,80.1686 109.3348,79.7206 109.2128,79.3136 C108.1248,75.6666 107.1878,71.9756 106.3878,68.2556 C104.5498,67.3316 102.7898,66.2696 101.1768,64.9896 C97.4388,62.0286 94.4948,57.8326 93.8528,53.1076 C93.6378,51.5266 93.6858,49.8886 94.1998,48.3796" id="Fill-327" fill="#FFE2D4"></path>
                    <path d="M124.3834,62.2068 C124.7624,62.5118 124.3494,63.1898 123.8634,63.1978 C123.3764,63.2058 122.9794,62.8308 122.6414,62.4808 L120.1174,59.8768 C119.6154,59.3588 118.6914,58.8598 118.2904,59.4598 C118.1514,59.6688 118.1444,59.9548 117.9704,60.1358 C117.6314,60.4878 117.0504,60.1518 116.6934,59.8178 C115.9854,59.1578 115.2784,58.4968 114.5704,57.8368 C114.1514,57.4458 113.7114,57.0428 113.1614,56.8818 C112.6114,56.7218 111.9194,56.8878 111.6684,57.4018 C111.5944,57.5538 111.5504,57.7388 111.4044,57.8208 C111.2594,57.9018 111.0784,57.8468 110.9304,57.7728 C110.1544,57.3938 109.6564,56.6248 109.2174,55.8808 C108.7794,55.1368 108.3324,54.3508 107.6034,53.8878 C106.8734,53.4248 105.7654,53.4288 105.2714,54.1368 C105.1594,54.2968 105.0664,54.4978 104.8794,54.5518 C104.6984,54.6028 104.5144,54.4918 104.3644,54.3788 C103.4094,53.6568 102.6724,52.6488 102.2734,51.5198" id="Stroke-329" stroke="#FFA472" stroke-width="2" stroke-linecap="round" stroke-linejoin="round"></path>
                    <path d="M122.2569,54.907 C122.3809,55.196 122.4629,55.504 122.4999,55.815 C122.1639,56.03 121.7309,55.787 121.4159,55.542 C120.4379,54.782 119.5279,53.933 118.7019,53.011 C118.1659,52.413 117.3879,51.719 116.6759,52.091 C116.6779,52.559 116.6789,53.028 116.6809,53.498 C115.2289,53.453 114.3069,52.005 113.3039,50.954 C112.9709,50.603 112.5509,50.265 112.0689,50.286 C111.5859,50.306 111.1509,50.901 111.4449,51.285 C109.7849,50.217 108.3539,48.795 107.2739,47.142" id="Stroke-331" stroke="#FFA472" stroke-width="2" stroke-linecap="round" stroke-linejoin="round"></path>
                    <path d="M104.173,59.8269 C104.046,59.5399 103.959,59.2339 103.918,58.9229 C104.251,58.7039 104.688,58.9409 105.006,59.1809 C105.994,59.9289 106.914,60.7639 107.753,61.6759 C108.297,62.2659 109.084,62.9509 109.791,62.5689 C109.783,62.0999 109.775,61.6319 109.767,61.1629 C111.22,61.1869 112.161,62.6239 113.178,63.6619 C113.516,64.0069 113.94,64.3399 114.422,64.3129 C114.905,64.2859 115.332,63.6849 115.032,63.3059 C116.707,64.3509 118.157,65.7539 119.258,67.3919" id="Stroke-333" stroke="#FFA472" stroke-width="2" stroke-linecap="round" stroke-linejoin="round"></path>
                    <path d="M129.1944,53.5222 C126.8314,49.7282 123.1384,46.7832 119.2914,44.4802 C115.7454,42.3582 112.7104,41.6102 108.9284,41.1682 C104.4104,40.6402 99.6034,41.7122 96.4354,44.8802 L98.6154,42.7012 C101.7824,39.5332 106.5904,38.4602 111.1084,38.9882 C114.8894,39.4302 117.9244,40.1792 121.4704,42.3002 C125.3174,44.6032 129.0114,47.5482 131.3744,51.3422 C133.0314,54.0052 133.8524,57.2512 133.7954,59.5642 C133.6984,63.4182 132.5774,65.9472 130.9424,67.5822 L128.7624,69.7612 C130.3974,68.1262 131.5194,65.5982 131.6154,61.7442 C131.6734,59.4302 130.8524,56.1852 129.1944,53.5222" id="Fill-335" fill="#FFA472"></path>
                    <path d="M94.1998,48.3796 C94.6408,47.0826 95.4178,45.9116 96.3798,44.9366 C96.3978,44.9176 96.4168,44.8996 96.4358,44.8806 L98.6158,42.7006 C101.7828,39.5326 106.5898,38.4606 111.1088,38.9876 C114.8898,39.4306 117.9248,40.1796 121.4708,42.3006 C125.3178,44.6036 129.0118,47.5486 131.3738,51.3426 C133.0318,54.0056 133.8528,57.2506 133.7948,59.5646 C133.6988,63.4186 132.5768,65.9466 130.9428,67.5816 L128.7628,69.7616 C126.5428,71.9826 123.3758,72.5526 120.5518,72.5516 C119.1598,72.5516 116.1328,71.9796 113.9758,71.2846 C113.2928,73.8316 112.5458,76.3626 111.7048,78.8626 C111.4178,79.7186 110.6738,80.7736 109.8698,80.3626 C109.4918,80.1686 109.3348,79.7206 109.2128,79.3136 C108.1248,75.6666 107.1878,71.9756 106.3878,68.2556 C104.5498,67.3316 102.7898,66.2696 101.1768,64.9896 C97.4388,62.0286 94.4948,57.8326 93.8528,53.1076 C93.6378,51.5266 93.6858,49.8886 94.1998,48.3796 Z" id="Stroke-337" stroke="#33475C" stroke-linecap="round" stroke-linejoin="round"></path>
                    <path d="M100.8507,61.1589 C100.7157,60.9819 100.5657,60.8049 100.3867,60.6789 C100.3427,60.6469 100.2967,60.6199 100.2497,60.5969 L97.0917,59.0169 C97.0397,58.9909 96.9857,58.9709 96.9287,58.9539 C96.5507,58.8499 96.1567,59.0199 95.8017,59.1869 C91.8457,61.0489 87.9397,63.0139 84.0887,65.0829 C80.7427,66.8809 77.4377,68.7559 74.1777,70.7059 C71.9537,72.0359 68.5727,73.3019 67.4337,75.7689 C65.9767,78.9259 65.2917,82.8089 65.2907,86.2519 C65.2897,88.5539 66.0607,93.5189 66.6237,95.7989 C66.7197,96.0919 66.8967,96.4669 67.2147,96.6899 C67.2577,96.7209 67.3027,96.7469 67.3507,96.7709 L70.5087,98.3499 C70.7727,98.4819 71.1177,98.5129 71.5657,98.3499 C71.7627,98.2529 71.9597,98.1559 72.1557,98.0589 L72.1567,98.0589 C74.6797,96.8129 77.1507,95.5949 79.6097,94.3819 C79.7917,96.4709 79.7137,98.5829 79.3337,100.6459 C79.2937,100.8599 79.2537,101.0929 79.3527,101.2869 C79.3927,101.3659 79.4457,101.4269 79.5077,101.4699 C79.8477,101.7089 80.4677,101.4459 80.8417,101.1309 C84.2487,98.2539 86.7327,94.3889 88.1697,90.1579 C90.3047,89.1049 92.4577,88.0429 94.6577,86.9579 C96.1517,86.2209 97.9707,84.6019 98.8627,83.5059 C100.2117,81.8499 101.0587,80.3739 101.7317,78.5809 C102.7997,75.7359 103.5587,72.7369 103.5447,69.6989 C103.5317,66.6609 102.7017,63.5689 100.8507,61.1589" id="Fill-339" fill="#FCE9C6"></path>
                    <path d="M100.8507,61.1589 C100.7157,60.9819 100.5657,60.8049 100.3867,60.6789 C100.3427,60.6469 100.2967,60.6199 100.2497,60.5969 L97.0917,59.0169 C97.0397,58.9909 96.9857,58.9709 96.9287,58.9539 C96.5507,58.8499 96.1567,59.0199 95.8017,59.1869 C91.8457,61.0489 87.9397,63.0139 84.0887,65.0829 C80.7427,66.8809 77.4377,68.7559 74.1777,70.7059 C71.9537,72.0359 68.5727,73.3019 67.4337,75.7689 C65.9767,78.9259 65.2917,82.8089 65.2907,86.2519 C65.2897,88.5539 66.0607,93.5189 66.6237,95.7989 C66.7197,96.0919 66.8967,96.4669 67.2147,96.6899 C67.2577,96.7209 67.3027,96.7469 67.3507,96.7709 L70.5087,98.3499 C70.7727,98.4819 71.1177,98.5129 71.5657,98.3499 C71.7627,98.2529 71.9597,98.1559 72.1557,98.0589 L72.1567,98.0589 C74.6797,96.8129 77.1507,95.5949 79.6097,94.3819 C79.7917,96.4709 79.7137,98.5829 79.3337,100.6459 C79.2937,100.8599 79.2537,101.0929 79.3527,101.2869 C79.3927,101.3659 79.4457,101.4269 79.5077,101.4699 C79.8477,101.7089 80.4677,101.4459 80.8417,101.1309 C84.2487,98.2539 86.7327,94.3889 88.1697,90.1579 C90.3047,89.1049 92.4577,88.0429 94.6577,86.9579 C96.1517,86.2209 97.9707,84.6019 98.8627,83.5059 C100.2117,81.8499 101.0587,80.3739 101.7317,78.5809 C102.7997,75.7359 103.5587,72.7369 103.5447,69.6989 C103.5317,66.6609 102.7017,63.5689 100.8507,61.1589 Z" id="Stroke-341" stroke="#33475C" stroke-linecap="round" stroke-linejoin="round"></path>
                    <path d="M97.0914,59.0173 C97.0394,58.9913 96.9854,58.9703 96.9284,58.9543 C96.5504,58.8503 96.1564,59.0203 95.8014,59.1873 C91.8454,61.0483 87.9404,63.0143 84.0894,65.0823 C80.7424,66.8803 77.4374,68.7553 74.1774,70.7053 C71.9534,72.0363 68.5724,73.3013 67.4334,75.7693 C65.9764,78.9253 65.2924,82.8093 65.2904,86.2513 C65.2894,88.5533 66.0614,93.5193 66.6244,95.7983 C66.7194,96.0913 66.8974,96.4663 67.2154,96.6903 C67.2574,96.7203 67.3024,96.7463 67.3504,96.7713 L70.5084,98.3503 C70.4614,98.3263 70.4164,98.2993 70.3734,98.2693 C70.0554,98.0453 69.8774,97.6703 69.7824,97.3773 C69.7004,97.0443 69.6134,96.6503 69.5254,96.2193 C69.0104,93.7003 68.4484,89.7963 68.4484,87.8303 C68.4504,84.3883 69.1344,80.5043 70.5924,77.3483 C71.7314,74.8803 75.1124,73.6153 77.3364,72.2853 C80.5954,70.3343 83.9014,68.4593 87.2474,66.6623 C90.9754,64.6603 94.7574,62.7573 98.5824,60.9503 C98.7094,60.8903 98.8334,60.8263 98.9594,60.7663 C99.3144,60.5993 99.7084,60.4293 100.0874,60.5333 C100.1444,60.5493 100.1974,60.5703 100.2494,60.5963 L97.0914,59.0173 Z" id="Fill-343" fill="#F6C364"></path>
                    <path d="M81.1461,76.0612 C86.4751,72.9592 91.9791,70.1592 97.6241,67.6782" id="Stroke-345" stroke="#F6C364" stroke-width="2" stroke-linecap="round" stroke-linejoin="round"></path>
                    <path d="M73.9972,80.4724 C75.3942,79.5594 76.8062,78.6684 78.2312,77.7984" id="Stroke-347" stroke="#F6C364" stroke-width="2" stroke-linecap="round" stroke-linejoin="round"></path>
                    <path d="M93.6212,75.029 C95.1532,74.306 96.6972,73.607 98.2512,72.931" id="Stroke-349" stroke="#F6C364" stroke-width="2" stroke-linecap="round" stroke-linejoin="round"></path>
                    <path d="M73.3395,86.4314 C78.5505,82.9924 83.9585,79.8524 89.5285,77.0314" id="Stroke-351" stroke="#F6C364" stroke-width="2" stroke-linecap="round" stroke-linejoin="round"></path>
                    <path d="M84.0216,85.4802 C88.0556,83.2402 92.1856,81.1702 96.3956,79.2792" id="Stroke-353" stroke="#F6C364" stroke-width="2" stroke-linecap="round" stroke-linejoin="round"></path>
                    <path d="M73.7765,91.6706 C76.1415,90.1206 78.5475,88.6316 80.9895,87.2066" id="Stroke-355" stroke="#F6C364" stroke-width="2" stroke-linecap="round" stroke-linejoin="round"></path>
                    <path d="M100.8507,61.1589 C100.7157,60.9819 100.5657,60.8049 100.3867,60.6789 C100.3427,60.6469 100.2967,60.6199 100.2497,60.5969 L97.0917,59.0169 C97.0397,58.9909 96.9857,58.9709 96.9287,58.9539 C96.5507,58.8499 96.1567,59.0199 95.8017,59.1869 C91.8457,61.0489 87.9397,63.0139 84.0887,65.0829 C80.7427,66.8809 77.4377,68.7559 74.1777,70.7059 C71.9537,72.0359 68.5727,73.3019 67.4337,75.7689 C65.9767,78.9259 65.2917,82.8089 65.2907,86.2519 C65.2897,88.5539 66.0607,93.5189 66.6237,95.7989 C66.7197,96.0919 66.8967,96.4669 67.2147,96.6899 C67.2577,96.7209 67.3027,96.7469 67.3507,96.7709 L70.5087,98.3499 C70.7727,98.4819 71.1177,98.5129 71.5657,98.3499 C71.7627,98.2529 71.9597,98.1559 72.1557,98.0589 L72.1567,98.0589 C74.6797,96.8129 77.1507,95.5949 79.6097,94.3819 C79.7917,96.4709 79.7137,98.5829 79.3337,100.6459 C79.2937,100.8599 79.2537,101.0929 79.3527,101.2869 C79.3927,101.3659 79.4457,101.4269 79.5077,101.4699 C79.8477,101.7089 80.4677,101.4459 80.8417,101.1309 C84.2487,98.2539 86.7327,94.3889 88.1697,90.1579 C90.3047,89.1049 92.4577,88.0429 94.6577,86.9579 C96.1517,86.2209 97.9707,84.6019 98.8627,83.5059 C100.2117,81.8499 101.0587,80.3739 101.7317,78.5809 C102.7997,75.7359 103.5587,72.7369 103.5447,69.6989 C103.5317,66.6609 102.7017,63.5689 100.8507,61.1589 Z" id="Stroke-357" stroke="#33475C" stroke-linecap="round" stroke-linejoin="round"></path>
                </g>
            </g>
        </g>
    </g>
</svg>